<svg width="25" height="25" viewBox="0 0 25 25" fill="none" xmlns="http://www.w3.org/2000/svg">
<circle cx="12.5" cy="12.5" r="12.5" fill="white"/>
<path d="M9.375 7.50063C9.37483 7.83215 9.24298 8.15002 9.00844 8.38433C8.7739 8.61863 8.4559 8.75017 8.12438 8.75C7.79285 8.74983 7.47498 8.61798 7.24067 8.38344C7.00637 8.1489 6.87483 7.8309 6.875 7.49938C6.87517 7.16785 7.00702 6.84998 7.24156 6.61567C7.4761 6.38137 7.7941 6.24983 8.12563 6.25C8.45715 6.25017 8.77502 6.38202 9.00933 6.61656C9.24363 6.8511 9.37517 7.1691 9.375 7.50063ZM9.4125 9.67562H6.9125V17.5006H9.4125V9.67562ZM13.3625 9.67562H10.875V17.5006H13.3375V13.3944C13.3375 11.1069 16.3188 10.8944 16.3188 13.3944V17.5006H18.7875V12.5444C18.7875 8.68813 14.375 8.83188 13.3375 10.7256L13.3625 9.67562Z" fill="#13705F"/>
</svg>
