<svg width="126" height="41" viewBox="0 0 126 41" fill="none" xmlns="http://www.w3.org/2000/svg">
<rect x="0.478249" y="1.23679" width="124.609" height="39.2164" rx="7.17373" stroke="white" stroke-width="0.956498"/>
<path d="M82.7153 19.2389V21.336H81.4008V22.7113H82.7153V27.3842C82.7153 28.9798 83.4371 29.6181 85.2531 29.6181C85.5722 29.6181 85.8762 29.5801 86.1421 29.5345V28.1744C85.9142 28.1972 85.7698 28.2124 85.5191 28.2124C84.706 28.2124 84.3489 27.8325 84.3489 26.9663V22.7113H86.1421V21.336H84.3489V19.2389H82.7153Z" fill="white"/>
<path d="M90.7682 29.732C93.1844 29.732 94.6661 28.1136 94.6661 25.4314C94.6661 22.7645 93.1768 21.1385 90.7682 21.1385C88.352 21.1385 86.8627 22.7645 86.8627 25.4314C86.8627 28.1136 88.3444 29.732 90.7682 29.732ZM90.7682 28.2808C89.3473 28.2808 88.5495 27.2398 88.5495 25.4314C88.5495 23.6383 89.3473 22.5897 90.7682 22.5897C92.1815 22.5897 92.9869 23.6383 92.9869 25.4314C92.9869 27.2322 92.1815 28.2808 90.7682 28.2808Z" fill="white"/>
<path d="M95.9338 29.5725H97.5674V24.6868C97.5674 23.5243 98.4412 22.7417 99.6797 22.7417C99.9684 22.7417 100.455 22.7949 100.591 22.8405V21.2296C100.417 21.184 100.105 21.1612 99.8621 21.1612C98.7831 21.1612 97.8637 21.7539 97.6282 22.5669H97.5066V21.298H95.9338V29.5725Z" fill="white"/>
<path d="M104.648 22.5289C105.856 22.5289 106.646 23.3723 106.684 24.6716H102.505C102.596 23.3799 103.44 22.5289 104.648 22.5289ZM106.676 27.3386C106.373 27.9845 105.696 28.3416 104.709 28.3416C103.402 28.3416 102.558 27.4222 102.505 25.9709V25.8797H108.348V25.3099C108.348 22.7113 106.958 21.1385 104.655 21.1385C102.323 21.1385 100.841 22.8177 100.841 25.4618C100.841 28.106 102.292 29.732 104.663 29.732C106.555 29.732 107.877 28.8203 108.249 27.3386H106.676Z" fill="white"/>
<path d="M72.0023 26.5168C72.1283 28.5487 73.8215 29.8481 76.3416 29.8481C79.035 29.8481 80.7203 28.4857 80.7203 26.3121C80.7203 24.6031 79.7595 23.6581 77.4284 23.1147L76.1762 22.8076C74.6957 22.4611 74.0971 21.9964 74.0971 21.1853C74.0971 20.1615 75.0264 19.4921 76.4204 19.4921C77.7434 19.4921 78.6569 20.1457 78.8223 21.1931H80.5392C80.4368 19.2794 78.7515 17.9327 76.444 17.9327C73.9632 17.9327 72.3094 19.2794 72.3094 21.3034C72.3094 22.973 73.2466 23.9652 75.3021 24.4456L76.7669 24.8C78.2711 25.1544 78.9326 25.6742 78.9326 26.5405C78.9326 27.5485 77.893 28.2809 76.4755 28.2809C74.9555 28.2809 73.9002 27.5958 73.7506 26.5168H72.0023Z" fill="white"/>
<path d="M55.0797 21.1612C53.9551 21.1612 52.9826 21.7235 52.4811 22.6657H52.3595V21.298H50.7867V32.323H52.4203V28.3188H52.5495C52.9826 29.1926 53.9172 29.7092 55.0949 29.7092C57.1844 29.7092 58.5141 28.0604 58.5141 25.4314C58.5141 22.8025 57.1844 21.1612 55.0797 21.1612ZM54.6162 28.2428C53.2485 28.2428 52.3899 27.1638 52.3899 25.439C52.3899 23.7067 53.2485 22.6277 54.6238 22.6277C56.0067 22.6277 56.8349 23.6839 56.8349 25.4314C56.8349 27.1866 56.0067 28.2428 54.6162 28.2428Z" fill="white"/>
<path d="M64.2304 21.1612C63.1058 21.1612 62.1333 21.7235 61.6318 22.6657H61.5102V21.298H59.9374V32.323H61.571V28.3188H61.7002C62.1333 29.1926 63.0678 29.7092 64.2456 29.7092C66.3351 29.7092 67.6648 28.0604 67.6648 25.4314C67.6648 22.8025 66.3351 21.1612 64.2304 21.1612ZM63.7669 28.2428C62.3992 28.2428 61.5406 27.1638 61.5406 25.439C61.5406 23.7067 62.3992 22.6277 63.7745 22.6277C65.1574 22.6277 65.9856 23.6839 65.9856 25.4314C65.9856 27.1866 65.1574 28.2428 63.7669 28.2428Z" fill="white"/>
<path d="M47.8557 29.5725H49.73L45.627 18.2084H43.729L39.626 29.5725H41.4373L42.4847 26.5562H46.8162L47.8557 29.5725ZM44.5874 20.2717H44.7213L46.3673 25.0757H42.9336L44.5874 20.2717Z" fill="white"/>
<path d="M40.7227 9.6368V15.1189H42.702C44.3356 15.1189 45.2816 14.1122 45.2816 12.3608C45.2816 10.636 44.328 9.6368 42.702 9.6368H40.7227ZM41.5737 10.4118H42.607C43.7429 10.4118 44.4154 11.1337 44.4154 12.3722C44.4154 13.6297 43.7543 14.3439 42.607 14.3439H41.5737V10.4118Z" fill="white"/>
<path d="M48.1788 15.1987C49.3869 15.1987 50.1277 14.3895 50.1277 13.0484C50.1277 11.7149 49.3831 10.9019 48.1788 10.9019C46.9707 10.9019 46.226 11.7149 46.226 13.0484C46.226 14.3895 46.9669 15.1987 48.1788 15.1987ZM48.1788 14.4731C47.4684 14.4731 47.0694 13.9526 47.0694 13.0484C47.0694 12.1518 47.4684 11.6275 48.1788 11.6275C48.8854 11.6275 49.2881 12.1518 49.2881 13.0484C49.2881 13.9488 48.8854 14.4731 48.1788 14.4731Z" fill="white"/>
<path d="M56.4365 10.9817H55.6197L54.8827 14.1387H54.8181L53.9671 10.9817H53.1845L52.3335 14.1387H52.2727L51.5319 10.9817H50.7037L51.8434 15.1189H52.683L53.534 12.072H53.5986L54.4534 15.1189H55.3006L56.4365 10.9817Z" fill="white"/>
<path d="M57.3772 15.1189H58.194V12.6989C58.194 12.053 58.5777 11.6503 59.1818 11.6503C59.7858 11.6503 60.0746 11.9809 60.0746 12.6457V15.1189H60.8914V12.4405C60.8914 11.4566 60.3823 10.9019 59.4591 10.9019C58.8361 10.9019 58.4257 11.1792 58.2244 11.6389H58.1636V10.9817H57.3772V15.1189Z" fill="white"/>
<path d="M62.1777 15.1189H62.9946V9.36707H62.1777V15.1189Z" fill="white"/>
<path d="M66.0665 15.1987C67.2746 15.1987 68.0155 14.3895 68.0155 13.0484C68.0155 11.7149 67.2708 10.9019 66.0665 10.9019C64.8584 10.9019 64.1138 11.7149 64.1138 13.0484C64.1138 14.3895 64.8546 15.1987 66.0665 15.1987ZM66.0665 14.4731C65.3561 14.4731 64.9572 13.9526 64.9572 13.0484C64.9572 12.1518 65.3561 11.6275 66.0665 11.6275C66.7732 11.6275 67.1759 12.1518 67.1759 13.0484C67.1759 13.9488 66.7732 14.4731 66.0665 14.4731Z" fill="white"/>
<path d="M70.4492 14.4997C70.0047 14.4997 69.6818 14.2831 69.6818 13.9108C69.6818 13.5461 69.9401 13.3523 70.51 13.3143L71.5205 13.2498V13.5955C71.5205 14.1084 71.0646 14.4997 70.4492 14.4997ZM70.2402 15.1873C70.7835 15.1873 71.2356 14.9518 71.4825 14.5377H71.5471V15.1189H72.3335V12.2924C72.3335 11.4186 71.7485 10.9019 70.7113 10.9019C69.7729 10.9019 69.1043 11.3578 69.0207 12.0682H69.8109C69.9021 11.7757 70.2174 11.6085 70.6733 11.6085C71.2318 11.6085 71.5205 11.8555 71.5205 12.2924V12.6495L70.3998 12.7141C69.4158 12.7749 68.8611 13.2042 68.8611 13.9488C68.8611 14.7048 69.4424 15.1873 70.2402 15.1873Z" fill="white"/>
<path d="M75.1054 15.1873C75.6752 15.1873 76.1577 14.9176 76.4047 14.4655H76.4692V15.1189H77.2519V9.36707H76.435V11.6389H76.3743C76.1501 11.183 75.6714 10.9133 75.1054 10.9133C74.0606 10.9133 73.3882 11.7415 73.3882 13.0484C73.3882 14.3591 74.053 15.1873 75.1054 15.1873ZM75.3371 11.6465C76.0209 11.6465 76.4502 12.1898 76.4502 13.0522C76.4502 13.9184 76.0247 14.4541 75.3371 14.4541C74.6457 14.4541 74.2316 13.926 74.2316 13.0484C74.2316 12.1784 74.6495 11.6465 75.3371 11.6465Z" fill="white"/>
<path d="M82.5486 15.1987C83.7567 15.1987 84.4975 14.3895 84.4975 13.0484C84.4975 11.7149 83.7529 10.9019 82.5486 10.9019C81.3405 10.9019 80.5958 11.7149 80.5958 13.0484C80.5958 14.3895 81.3367 15.1987 82.5486 15.1987ZM82.5486 14.4731C81.8381 14.4731 81.4392 13.9526 81.4392 13.0484C81.4392 12.1518 81.8381 11.6275 82.5486 11.6275C83.2552 11.6275 83.6579 12.1518 83.6579 13.0484C83.6579 13.9488 83.2552 14.4731 82.5486 14.4731Z" fill="white"/>
<path d="M85.5788 15.1189H86.3956V12.6989C86.3956 12.053 86.7793 11.6503 87.3833 11.6503C87.9874 11.6503 88.2761 11.9809 88.2761 12.6457V15.1189H89.0929V12.4405C89.0929 11.4566 88.5838 10.9019 87.6607 10.9019C87.0376 10.9019 86.6273 11.1792 86.4259 11.6389H86.3652V10.9817H85.5788V15.1189Z" fill="white"/>
<path d="M92.8548 9.95213V11.0007H92.1976V11.6883H92.8548V14.0248C92.8548 14.8226 93.2157 15.1417 94.1237 15.1417C94.2833 15.1417 94.4352 15.1227 94.5682 15.0999V14.4199C94.4542 14.4313 94.382 14.4389 94.2567 14.4389C93.8502 14.4389 93.6716 14.2489 93.6716 13.8158V11.6883H94.5682V11.0007H93.6716V9.95213H92.8548Z" fill="white"/>
<path d="M95.6646 15.1189H96.4814V12.7027C96.4814 12.0758 96.8537 11.6541 97.5224 11.6541C98.0999 11.6541 98.4076 11.9885 98.4076 12.6495V15.1189H99.2244V12.4481C99.2244 11.4642 98.6811 10.9057 97.7997 10.9057C97.1767 10.9057 96.7398 11.183 96.5384 11.6465H96.4738V9.36707H95.6646V15.1189Z" fill="white"/>
<path d="M102.171 11.5971C102.775 11.5971 103.17 12.0188 103.189 12.6685H101.1C101.145 12.0226 101.567 11.5971 102.171 11.5971ZM103.185 14.002C103.033 14.3249 102.695 14.5035 102.201 14.5035C101.548 14.5035 101.126 14.0438 101.1 13.3181V13.2726H104.021V12.9876C104.021 11.6883 103.326 10.9019 102.175 10.9019C101.008 10.9019 100.268 11.7415 100.268 13.0636C100.268 14.3857 100.993 15.1987 102.179 15.1987C103.125 15.1987 103.786 14.7428 103.972 14.002H103.185Z" fill="white"/>
<path d="M30.7617 20.2474C30.7815 18.7087 31.6079 17.2527 32.9188 16.4468C32.0918 15.2657 30.7066 14.5168 29.2654 14.4717C27.7283 14.3104 26.2382 15.3915 25.4549 15.3915C24.6564 15.3915 23.4505 14.4878 22.1518 14.5145C20.4591 14.5692 18.881 15.5316 18.0575 17.0115C16.2871 20.0765 17.6076 24.581 19.3034 27.0586C20.1519 28.2717 21.1435 29.6269 22.441 29.5788C23.7106 29.5262 24.1848 28.7692 25.7174 28.7692C27.2358 28.7692 27.6807 29.5788 29.0045 29.5483C30.3669 29.5262 31.2253 28.3297 32.044 27.105C32.6536 26.2406 33.1227 25.2852 33.4339 24.2743C31.8328 23.5971 30.7636 21.9858 30.7617 20.2474Z" fill="white"/>
<path d="M28.2612 12.8424C29.0041 11.9506 29.37 10.8044 29.2814 9.64722C28.1465 9.76642 27.0982 10.3088 26.3453 11.1664C25.6091 12.0042 25.226 13.1303 25.2984 14.2433C26.4337 14.2549 27.5498 13.7272 28.2612 12.8424Z" fill="white"/>
</svg>
