<svg width="560" height="382" viewBox="0 0 560 382" fill="none" xmlns="http://www.w3.org/2000/svg">
<g clip-path="url(#clip0_2813_6081)">
<rect x="28.8677" y="17.486" width="504.836" height="344.371" fill="#4C9D8D"/>
<rect x="43.2179" y="36.092" width="473.564" height="12.1408" fill="#6BCCB9"/>
<path d="M0 0H560L516.656 36.0923H43.3313L0 0Z" fill="#006956"/>
<path d="M0 382H560L516.49 336.914H43.5096L0 382Z" fill="#006956"/>
<path d="M0 0L43.2179 35.9755V337.03L0 382V0Z" fill="#00866E"/>
<path d="M560 0L516.782 35.9755V337.03L560 382V0Z" fill="#00866E"/>
<rect x="357.958" y="73.1945" width="119.399" height="199.388" rx="2.43747" fill="#6BCCB9"/>
<rect x="368.414" y="83.9214" width="98.4875" height="177.934" rx="2.43747" fill="#DFFFF1"/>
<path opacity="0.6" d="M368.414 86.3589C368.414 85.0127 369.505 83.9214 370.851 83.9214H401.243V261.855H370.851C369.505 261.855 368.414 260.764 368.414 259.418V86.3589Z" fill="white"/>
<rect x="368.414" y="170.004" width="98.4875" height="5.7696" fill="#6BCCB9"/>
<rect x="82.6445" y="73.1945" width="119.399" height="199.388" rx="2.43747" fill="#6BCCB9"/>
<rect x="93.1005" y="83.9214" width="98.4875" height="177.934" rx="2.43747" fill="#DFFFF1"/>
<path opacity="0.6" d="M93.1005 86.3589C93.1005 85.0127 94.1918 83.9214 95.5379 83.9214H125.93V261.855H95.5379C94.1918 261.855 93.1005 260.764 93.1005 259.418V86.3589Z" fill="white"/>
<rect x="93.1005" y="170.004" width="98.4875" height="5.7696" fill="#6BCCB9"/>
<path d="M0 0L43 35.9276L42.8711 48L0 13.4506V0Z" fill="#00A285"/>
<path d="M349.044 363.297H359.681L305.604 145.922H294.968L349.044 363.297Z" fill="#D9D9D9"/>
<path d="M317.292 363.297H327.027L272.95 145.922H263.216L317.292 363.297Z" fill="#A3A3A3"/>
<path d="M324.502 363.297H327.027L272.951 145.922H270.426L324.502 363.297Z" fill="#D9D9D9"/>
<path d="M260.14 145.922H262.664L208.588 363.297H206.063L260.14 145.922Z" fill="#EEEEEE"/>
<path d="M254.076 145.922H260.206L206.13 363.297H200L254.076 145.922Z" fill="#A3A3A3"/>
<rect x="250.396" y="136.298" width="60.6292" height="9.62352" rx="1.62498" fill="#EEEEEE"/>
<path d="M249.156 198.093L272.232 198.093V205.914H246.743L249.156 198.093Z" fill="#EEEEEE"/>
<path d="M286.227 205.914L315.063 205.914V198.093L283.814 198.093L286.227 205.914Z" fill="#D9D9D9"/>
<path d="M292.653 235.429L321.804 235.429V227.608L290.554 227.608L292.653 235.429Z" fill="#D9D9D9"/>
<path d="M300.311 264.944L329.462 264.944V257.123L298.212 257.123L300.311 264.944Z" fill="#D9D9D9"/>
<path d="M308.277 293.946L337.428 293.947V286.126L306.179 286.125L308.277 293.946Z" fill="#D9D9D9"/>
<path d="M316.261 323.85L345.412 323.85V316.029L314.163 316.029L316.261 323.85Z" fill="#D9D9D9"/>
<path d="M240.223 167.913L300.547 167.913L302.397 175.734H240.223V167.913Z" fill="#A3A3A3"/>
<path d="M230.261 169.538C230.261 168.641 230.989 167.913 231.886 167.913L240.223 167.913V175.734H231.886C230.989 175.734 230.261 175.007 230.261 174.109V169.538Z" fill="#EEEEEE"/>
<path d="M241.735 227.608L265.362 227.608V235.429H239.323L241.735 227.608Z" fill="#EEEEEE"/>
<path d="M234.899 257.123L258.631 257.123V264.944H232.486L234.899 257.123Z" fill="#EEEEEE"/>
<path d="M227.411 286.126L250.844 286.126V293.947H224.998L227.411 286.126Z" fill="#EEEEEE"/>
<path d="M219.881 316.03L243.212 316.03V323.851H217.469L219.881 316.03Z" fill="#EEEEEE"/>
<path d="M285.233 145.922H294.968L240.892 363.297H231.157L285.233 145.922Z" fill="#EEEEEE"/>
<path d="M168.821 322.566L159.294 318.198L154.499 316L139.981 322.656C139.383 322.932 139 323.542 139 324.216V360.297C139 361.237 139.741 362 140.653 362H168.437C169.301 362 170 361.279 170 360.39V324.435C170 323.627 169.537 322.896 168.82 322.566H168.821Z" fill="#FFDC5E"/>
<path d="M171 323L156.759 316H154L167.694 323H171Z" fill="#F3BE00"/>
<path d="M117 316.001H154V316.5C154 317.328 153.191 318 152.193 318H117V316V316.001Z" fill="#D3A600"/>
<path d="M154.006 305.894L150.814 305.914L149.951 327.425L154.695 327.394L154.005 305.894H154.006Z" fill="#D9D9D9"/>
<path d="M148.965 319.017L148.872 342.161C148.871 342.428 148.913 342.686 148.991 342.926C149.05 343.109 149.129 343.281 149.227 343.439C149.604 344.06 150.257 344.479 151.009 344.526C151.023 344.528 151.041 344.531 151.059 344.529C151.092 344.53 151.126 344.53 151.16 344.53L153.35 344.515C154.614 344.507 155.644 343.44 155.657 342.128L155.75 318.974C155.75 318.931 155.748 318.888 155.743 318.846C155.686 318.359 155.288 317.988 154.803 317.991L149.922 318.023C149.396 318.027 148.968 318.471 148.965 319.016L148.965 319.017Z" fill="#FF623B"/>
<path d="M150.839 307.212L150.886 307.393C150.996 307.817 151.357 308.117 151.778 308.133L152.88 308.176C153.229 308.19 153.507 308.487 153.51 308.851L153.549 316.417C153.552 316.862 153.242 317.238 152.819 317.303L151.696 317.476C151.368 317.527 151.054 317.759 150.834 318.018L154.394 317.994L154.05 307.271L150.838 307.214V307.212H150.839Z" fill="#A3A3A3"/>
<path d="M143.73 301.683L143.719 304.597C143.718 305.097 144.107 305.501 144.589 305.497L146.155 305.487C146.222 305.487 146.288 305.478 146.352 305.459C146.489 305.422 146.614 305.347 146.705 305.233L146.709 305.228C146.81 305.105 146.947 304.984 147.105 304.881C147.408 304.681 147.796 304.541 148.195 304.537C148.408 304.535 148.602 304.586 148.772 304.661C149.242 304.87 149.572 305.315 149.694 305.832L149.902 306.724C149.941 306.889 150.035 307.027 150.16 307.12C150.266 307.196 150.397 307.242 150.537 307.24L154.249 307.215C154.57 307.213 154.843 306.973 154.899 306.646L155.199 304.871C155.237 304.667 155.414 304.517 155.613 304.518C158.237 304.546 160.522 308.028 161.302 309.367C161.401 309.535 161.624 309.534 161.732 309.393C161.751 309.37 161.766 309.341 161.777 309.308C161.826 309.162 161.88 308.999 161.933 308.843C162.099 308.343 162.041 307.798 161.778 307.35L160.213 304.696C158.608 301.974 155.828 300.244 152.749 300.048L150.257 299.889C149.905 299.867 149.572 300.072 149.426 300.41C149.243 300.836 148.883 301.365 148.213 301.484C147.389 301.626 146.908 301.201 146.698 300.942C146.612 300.839 146.496 300.775 146.368 300.764C146.354 300.76 146.339 300.76 146.322 300.76L144.607 300.772C144.125 300.775 143.732 301.184 143.73 301.684H143.731L143.73 301.683Z" fill="#D9D9D9"/>
<path d="M146.708 305.228C147.005 304.866 147.586 304.542 148.195 304.537C148.408 304.535 148.603 304.587 148.773 304.662C149.242 304.87 149.573 305.315 149.694 305.832L149.902 306.725C149.902 306.725 150.272 304.749 148.758 304.131C147.283 303.531 146.736 305.141 146.71 305.226L146.709 305.228H146.708Z" fill="#A3A3A3"/>
<path d="M143.73 301.683L143.719 304.597C143.718 305.097 144.107 305.501 144.589 305.497H144.598L144.617 300.77H144.608C144.126 300.773 143.733 301.182 143.732 301.681H143.731L143.73 301.683Z" fill="#A3A3A3"/>
<path d="M155.197 304.872C155.236 304.668 155.412 304.518 155.612 304.519C158.236 304.547 160.52 308.029 161.3 309.368C161.399 309.536 161.623 309.535 161.73 309.393C161.802 309.116 161.711 308.638 161.146 307.813C159.893 305.981 155.558 302.906 155.195 304.87H155.196L155.197 304.872Z" fill="#A3A3A3"/>
<path d="M155.656 342.128L155.749 318.974C155.749 318.931 155.747 318.888 155.742 318.846C155.685 318.359 155.287 317.988 154.802 317.991L154.395 317.994L154.163 339.885C154.143 341.98 152.488 343.65 150.465 343.614C150.024 343.606 149.604 343.52 149.213 343.361H149.213C149.588 343.993 150.245 344.43 150.999 344.497C151.015 344.499 151.031 344.502 151.05 344.501C151.065 344.502 151.08 344.503 151.099 344.504L152.191 344.523L153.35 344.515C154.615 344.507 155.645 343.44 155.657 342.128H155.656Z" fill="#DD2C00"/>
<path d="M167.38 323.001H163.018C162.843 323.001 162.759 323.223 162.889 323.344C163.297 323.722 163.542 324.266 163.542 324.849V360.407C163.542 361.287 162.852 362 162 362H171.458C172.31 362 173 361.287 173 360.407V324.845C173 323.826 172.199 323 171.212 323H167.379L167.38 323.001Z" fill="#F3BE00"/>
<path d="M133.468 307.852C133.464 307.93 133.476 308.007 133.508 308.076L139.151 320.33L139.824 321.795L137.471 322.84L131.903 308.788C131.873 308.718 131.829 308.656 131.768 308.607L130.022 307.141C129.926 307.062 129.867 306.952 129.851 306.829L129.393 303.223C129.36 302.972 129.523 302.711 129.787 302.594L130.496 302.28C130.758 302.163 131.056 302.219 131.216 302.414L133.498 305.209C133.576 305.305 133.613 305.424 133.607 305.549L133.47 307.85H133.468V307.852Z" fill="#D9D9D9"/>
<path d="M150.867 341.099C151.725 343.103 150.846 345.427 148.906 346.289C146.966 347.151 144.697 346.224 143.838 344.219L137.36 327.79C137.283 327.594 137.371 327.372 137.558 327.288L142.963 324.888C143.152 324.804 143.369 324.89 143.458 325.081L150.866 341.097H150.868L150.867 341.099Z" fill="#FFDC5E"/>
<path d="M142.269 322.444L136.272 325.107C136 325.228 135.684 325.07 135.604 324.776L135.024 322.633C134.959 322.391 135.074 322.141 135.297 322.042L140.728 319.631C140.95 319.533 141.21 319.617 141.338 319.83L142.485 321.721C142.643 321.983 142.542 322.324 142.268 322.445L142.269 322.444Z" fill="#FF623B"/>
<path d="M142.799 324.962L137.723 327.214L136.63 324.949L141.912 322.604L142.798 324.962H142.799Z" fill="#FFDC5E"/>
<path d="M136.629 324.948C136.629 324.948 136.878 325.282 137.155 325.161L139.654 324.051C140.072 323.866 140.378 323.837 140.59 323.962C140.795 324.083 140.929 324.363 140.982 324.794C141.067 325.472 140.21 325.917 139.519 326.272L139.464 326.302C139.464 326.302 139.454 326.308 139.45 326.312C139.432 326.33 139.427 326.357 139.437 326.383L139.44 326.388C139.454 326.415 139.486 326.428 139.514 326.418C139.561 326.4 139.608 326.381 139.652 326.363L141.656 325.471L142.797 324.964L142.374 323.816L141.911 322.605L136.629 324.951V324.948H136.629Z" fill="#DD2C00"/>
<path d="M150.867 341.099C151.709 343.065 150.879 345.339 149.017 346.237C150.138 345.669 150.628 344.288 150.117 343.089L142.917 326.262C142.575 325.462 141.661 325.468 141.661 325.468L142.967 324.888C143.156 324.804 143.374 324.89 143.462 325.081L150.871 341.097H150.869L150.867 341.099Z" fill="#C42700"/>
<path d="M142.269 322.444L141.39 322.834C142.267 322.443 141.581 321.6 141.581 321.6L140.404 319.774L140.727 319.629C140.949 319.531 141.21 319.616 141.338 319.829L142.485 321.72C142.642 321.981 142.541 322.322 142.267 322.444H142.269Z" fill="#DD2C00"/>
<path d="M133.469 307.851C133.465 307.929 133.477 308.006 133.509 308.075L139.152 320.329L138.127 320.785L132.899 308.567C132.795 308.323 132.752 308.057 132.772 307.792L132.863 306.665C132.905 306.147 132.744 305.63 132.417 305.229L130.141 302.436L130.495 302.279C130.757 302.162 131.055 302.218 131.215 302.413L133.497 305.208C133.575 305.303 133.612 305.423 133.607 305.548L133.469 307.849V307.851Z" fill="#A3A3A3"/>
<path d="M130 323H168.213C169.199 323 170 323.747 170 324.669V362H130V323Z" fill="#D3A600"/>
<path d="M130.359 323.001H125.203C124.996 323.001 124.898 323.223 125.051 323.344C125.532 323.722 125.822 324.266 125.822 324.849V360.407C125.822 361.287 125.007 362 124 362H135.178C136.185 362 137 361.287 137 360.407V324.845C137 323.826 136.054 323 134.887 323H130.358L130.359 323.001Z" fill="#F3BE00"/>
<path d="M130.783 322.566L120.948 318.198L115.999 316L101.013 322.656C100.395 322.932 100 323.541 100 324.215V360.297C100 361.237 100.765 362 101.706 362H130.387C131.278 362 132 361.279 132 360.39V324.434C132 323.627 131.522 322.895 130.782 322.565L130.783 322.566Z" fill="#FFDC5E"/>
<path d="M135 323L119.083 316H116L131.306 323H135Z" fill="#F3BE00"/>
<path d="M416.558 326.625H448.815V361.672C448.815 362.569 448.088 363.297 447.19 363.297H418.183C417.286 363.297 416.558 362.569 416.558 361.672V326.625Z" fill="#EEEEEE"/>
<path d="M418.53 327.788C417.594 328.345 415.495 330.552 414.584 332.191" stroke="#A3A3A3" stroke-width="1.89066"/>
<rect x="415.53" y="323.216" width="34.312" height="2.96616" rx="0.94533" fill="#EEEEEE"/>
<path fill-rule="evenodd" clip-rule="evenodd" d="M448.815 326.182H416.557V330.212H416.557V342.965C418.112 343.268 421.626 343.229 423.244 340.654C424.038 339.389 424.4 338.328 424.688 337.481C425.134 336.172 425.406 335.373 426.835 335.123C427.535 335 428.261 335.129 429.068 335.272C430.973 335.611 433.33 336.029 436.855 333.403C440.376 330.779 443.49 330.303 445.051 330.226H448.815V326.182Z" fill="#F3BE00"/>
<path d="M448.822 326.193H416.552V331.036C418.219 328.845 424.482 328.411 427.406 328.468H448.822V326.193Z" fill="#D3A600"/>
<circle cx="440.995" cy="326.031" r="1.89066" fill="#8C8C8C"/>
<path d="M415.455 330.916C411.79 335.946 410.212 342.178 414.43 344.853C420.654 348.8 434.53 338.623 441.37 325.594" stroke="#A3A3A3" stroke-width="1.89066"/>
<rect x="445.714" y="350.983" width="15.6407" height="1.37638" transform="rotate(-26.3152 445.714 350.983)" fill="#D9D9D9"/>
<rect x="446.323" y="352.216" width="15.6407" height="1.37638" transform="rotate(-26.3152 446.323 352.216)" fill="#A3A3A3"/>
<rect x="445.102" y="349.748" width="15.6407" height="1.37638" transform="rotate(-26.3152 445.102 349.748)" fill="#A3A3A3"/>
<path d="M444.52 348.57C443.923 347.363 444.417 345.901 445.624 345.304L455.274 340.532C456.481 339.935 457.943 340.429 458.539 341.636L459.122 342.815L445.102 349.748L444.52 348.57Z" fill="#CFB144"/>
<rect x="446.933" y="353.451" width="15.6407" height="11.1912" transform="rotate(-26.3152 446.933 353.451)" fill="#FFE68D"/>
<rect x="453.59" y="350.159" width="0.787371" height="11.1912" transform="rotate(-26.3152 453.59 350.159)" fill="#FFF4CB"/>
<rect x="448.13" y="352.889" width="0.787371" height="11.1912" transform="rotate(-26.3152 448.13 352.889)" fill="#FFF4CB"/>
<rect x="450.86" y="351.524" width="0.787371" height="11.1912" transform="rotate(-26.3152 450.86 351.524)" fill="#FFF4CB"/>
<rect x="459.05" y="347.428" width="0.787371" height="11.1912" transform="rotate(-26.3152 459.05 347.428)" fill="#FFF4CB"/>
<rect x="456.321" y="348.793" width="0.787371" height="11.1912" transform="rotate(-26.3152 456.321 348.793)" fill="#FFF4CB"/>
<path d="M443.862 333.823C443.662 333.422 443.824 332.934 444.226 332.733L445.928 331.882C446.329 331.681 446.817 331.844 447.018 332.245L452.046 342.3L448.89 343.878L443.862 333.823Z" fill="#CFB144"/>
<circle cx="445.954" cy="334.171" r="0.587944" transform="rotate(-26.5677 445.954 334.171)" fill="#EEEEEE"/>
<path d="M560 0L517 35.9258L517.129 48L560 13.4506V0Z" fill="#00A285"/>
</g>
<defs>
<clipPath id="clip0_2813_6081">
<rect width="560" height="382" fill="white"/>
</clipPath>
</defs>
</svg>
