<svg width="24" height="25" viewBox="0 0 24 25" fill="none" xmlns="http://www.w3.org/2000/svg">
<path d="M3.16411 0.641798C4.01301 0.338957 4.93043 0.283295 5.80972 0.481283C6.689 0.679272 7.49403 1.12278 8.1312 1.76024C8.76838 2.39769 9.21152 3.20292 9.40912 4.08229C9.60671 4.96167 9.55064 5.87907 9.24742 6.72783L24 21.4804L21.1134 24.3656L6.36084 9.61441C5.51194 9.91726 4.59451 9.97292 3.71523 9.77493C2.83594 9.57694 2.03091 9.13344 1.39374 8.49598C0.756566 7.85852 0.313421 7.05329 0.115826 6.17392C-0.0817689 5.29454 -0.0256968 4.37714 0.277524 3.52838L3.31918 6.5714C3.50741 6.76628 3.73256 6.92173 3.98151 7.02867C4.23045 7.13561 4.4982 7.1919 4.76913 7.19425C5.04007 7.19661 5.30875 7.14498 5.55952 7.04238C5.81029 6.93979 6.03811 6.78827 6.22969 6.59669C6.42128 6.4051 6.57279 6.17728 6.67539 5.92652C6.77798 5.67575 6.82961 5.40706 6.82726 5.13613C6.8249 4.8652 6.76861 4.59745 6.66167 4.3485C6.55474 4.09956 6.39929 3.8744 6.2044 3.68618L3.16274 0.640438L3.16411 0.641798ZM17.2665 3.20463L21.595 0.799595L23.5184 2.72308L21.1134 7.05159L18.7084 7.53314L15.8245 10.4184L13.8997 8.49488L16.7849 5.60966L17.2665 3.20463ZM7.64769 13.7851L10.5329 16.6717L3.79937 23.4053C3.42806 23.7731 2.92975 23.9844 2.4072 23.9957C1.88466 24.0069 1.37772 23.8172 0.990944 23.4656C0.604163 23.1141 0.367028 22.6275 0.328442 22.1063C0.289855 21.5851 0.452759 21.0689 0.78356 20.6642L0.91551 20.5187L7.64905 13.7851H7.64769Z" fill="#09121F"/>
</svg>
