<svg width="98" height="97" viewBox="0 0 98 97" fill="none" xmlns="http://www.w3.org/2000/svg">
<circle cx="49" cy="48.5" r="48.5" fill="#C5E9FF"/>
<path d="M26.1582 42.4722L72.1837 33.322C72.5934 33.2405 72.8595 32.8424 72.7781 32.4326L72.0124 28.5812C71.729 27.1557 70.3436 26.2298 68.918 26.5132L24.7318 35.2977L26.1582 42.4722Z" fill="#1A1A1A"/>
<path d="M25.6836 40.8523H70.7986C72.252 40.8523 73.4303 42.0305 73.4303 43.484V69.4644C73.4303 70.3125 72.7428 71 71.8947 71H28.3153C26.8618 71 25.6836 69.8218 25.6836 68.3683V40.8523Z" fill="#1A1A1A"/>
<path d="M25.6836 40.8523H70.4273C71.2994 40.8523 72.0063 41.5592 72.0063 42.4313V68.0373C72.0063 68.8854 71.3188 69.5729 70.4707 69.5729H27.2192C26.3711 69.5729 25.6836 68.8854 25.6836 68.0373V40.8523Z" fill="#747474"/>
<path d="M29.0147 40.8523H35.3075L31.9764 46.7109H25.6836L29.0147 40.8523Z" fill="white"/>
<path d="M41.249 40.8523H47.5419L44.2108 46.7109H37.918L41.249 40.8523Z" fill="white"/>
<path d="M53.4815 40.8523H59.7743L56.4432 46.7109H50.1504L53.4815 40.8523Z" fill="white"/>
<path d="M25.7129 41.0991L70.4046 32.2141C70.8143 32.1327 71.0804 31.7345 70.9989 31.3248L70.1515 27.0624C70.0701 26.6527 69.6719 26.3866 69.2622 26.468L24.5705 35.353L25.7129 41.0991Z" fill="#747474"/>
<path d="M28.98 40.4496L35.1521 39.2225L30.7425 34.126L24.5705 35.353L28.98 40.4496Z" fill="white"/>
<path d="M40.979 38.0641L47.1511 36.837L42.7416 31.7405L36.5695 32.9675L40.979 38.0641Z" fill="white"/>
<path fill-rule="evenodd" clip-rule="evenodd" d="M70.9117 31.8102L66.7375 26.9856L60.5654 28.2126L64.9748 33.309L70.3407 32.2423C70.597 32.1913 70.8015 32.0261 70.9117 31.8102Z" fill="white"/>
<path d="M52.9751 35.6787L59.1472 34.4517L54.7377 29.3551L48.5656 30.5821L52.9751 35.6787Z" fill="white"/>
<rect x="29.6816" y="53.62" width="38.3288" height="0.747364" fill="white"/>
<path d="M25.6836 46.7109H72.0031V47.4626H25.6836V46.7109Z" fill="white"/>
<rect x="29.6816" y="61.2765" width="38.3288" height="0.747364" fill="white"/>
<rect x="40.9561" y="66.5524" width="4.90227" height="0.747376" transform="rotate(-90 40.9561 66.5524)" fill="white"/>
<rect x="56.2686" y="66.5525" width="4.90227" height="0.747376" transform="rotate(-90 56.2686 66.5525)" fill="white"/>
<path fill-rule="evenodd" clip-rule="evenodd" d="M70.3692 40.8523C70.9877 40.8982 71.4028 41.1989 71.6457 41.4873L68.6757 46.7109H62.3828L65.7139 40.8523H70.3692Z" fill="white"/>
</svg>
