<svg width="27" height="25" viewBox="0 0 27 25" fill="none" xmlns="http://www.w3.org/2000/svg">
<path d="M23.2715 23.7111C23.2715 24.0351 23.1428 24.3458 22.9138 24.5749C22.6847 24.8039 22.374 24.9326 22.05 24.9326H4.94938C4.62543 24.9326 4.31474 24.8039 4.08567 24.5749C3.8566 24.3458 3.7279 24.0351 3.7279 23.7111V12.7179H0.0634766L12.6777 1.25064C12.9025 1.04601 13.1957 0.932617 13.4997 0.932617C13.8038 0.932617 14.0969 1.04601 14.3218 1.25064L26.936 12.7179H23.2715V23.7111ZM13.4997 20.0467L17.6027 15.9438C17.8579 15.6886 18.0603 15.3856 18.1984 15.0521C18.3365 14.7187 18.4076 14.3613 18.4076 14.0004C18.4076 13.6395 18.3365 13.2821 18.1984 12.9487C18.0603 12.6152 17.8579 12.3122 17.6027 12.057C17.3474 11.8018 17.0445 11.5994 16.711 11.4613C16.3776 11.3232 16.0202 11.2521 15.6593 11.2521C15.2984 11.2521 14.941 11.3232 14.6075 11.4613C14.2741 11.5994 13.9711 11.8018 13.7159 12.057L13.4997 12.2732L13.2835 12.057C13.0283 11.8018 12.7253 11.5994 12.3919 11.4613C12.0584 11.3232 11.7011 11.2521 11.3401 11.2521C10.9792 11.2521 10.6218 11.3232 10.2884 11.4613C9.95496 11.5994 9.65198 11.8018 9.39678 12.057C9.14157 12.3122 8.93913 12.6152 8.80101 12.9487C8.66289 13.2821 8.59181 13.6395 8.59181 14.0004C8.59181 14.3613 8.66289 14.7187 8.80101 15.0521C8.93913 15.3856 9.14157 15.6886 9.39678 15.9438L13.4997 20.0467Z" fill="#09121F"/>
</svg>
