<svg width="180" height="115" viewBox="0 0 180 115" fill="none" xmlns="http://www.w3.org/2000/svg">
<rect width="180" height="114.943" rx="7.66286" fill="#4C9D8D"/>
<path d="M41.4369 28.8078C41.4369 28.4164 41.7542 28.0991 42.1455 28.0991H89.6722C90.0636 28.0991 90.3809 28.4164 90.3809 28.8078V89.33C90.3809 89.7214 90.0636 90.0387 89.6722 90.0387H42.1455C41.7542 90.0387 41.4369 89.7214 41.4369 89.33V28.8078Z" fill="#2F1F70"/>
<path d="M139.325 28.807C139.325 28.4157 139.008 28.0984 138.617 28.0984H91.0898C90.6985 28.0984 90.3812 28.4157 90.3812 28.807V89.3293C90.3812 89.7207 90.6985 90.0379 91.0898 90.0379H138.617C139.008 90.0379 139.325 89.7207 139.325 89.3293V28.807Z" fill="#2F1F70"/>
<path d="M87.3504 88.3452H93.4079L93.7427 90.0377H87.0155L87.3504 88.3452Z" fill="#0E0045"/>
<path d="M43.1094 27.112C43.1094 26.7206 43.4267 26.4033 43.818 26.4033H90.379V88.3429H43.818C43.4267 88.3429 43.1094 88.0256 43.1094 87.6342V27.112Z" fill="#D4D4D4"/>
<path d="M137.649 27.1125C137.649 26.7211 137.332 26.4038 136.94 26.4038H90.3795V88.3434H136.94C137.332 88.3434 137.649 88.0261 137.649 87.6347V27.1125Z" fill="#D4D4D4"/>
<path d="M90.3795 24.7114H135.266C135.657 24.7114 135.975 25.0287 135.975 25.4201V85.9423C135.975 86.3337 135.657 86.651 135.266 86.651H90.3795V24.7114Z" fill="#FFFDF4"/>
<path d="M44.7854 25.4196C44.7854 25.0282 45.1027 24.7109 45.4941 24.7109H90.3806V86.6505H45.4941C45.1027 86.6505 44.7854 86.3332 44.7854 85.9418V25.4196Z" fill="#FFFDF4"/>
<rect x="51.7603" y="29.9234" width="31.6446" height="51.505" rx="0.565032" fill="#D3FFF3" stroke="#EBE8DD" stroke-width="0.287245"/>
<path d="M51.6167 30.4884C51.6167 30.0971 51.934 29.7798 52.3254 29.7798H82.8399C83.2313 29.7798 83.5485 30.0971 83.5485 30.4884V37.0493H51.6167V30.4884Z" fill="#FFDC5E"/>
<ellipse cx="87.94" cy="29.7813" rx="0.968082" ry="1.49074" fill="#F3F0E3"/>
<ellipse cx="92.7736" cy="29.7813" rx="0.968082" ry="1.49074" fill="#EBE8DD"/>
<path d="M87.9496 29.9522V29.0094C87.9496 27.757 88.9649 26.7417 90.2173 26.7417H90.5395C91.7919 26.7417 92.8072 27.757 92.8072 29.0094V29.9522" stroke="#FFDC5E" stroke-width="0.566923" stroke-linecap="round"/>
<path d="M92.8068 29.9522V29.0094C92.8068 27.757 91.7916 26.7417 90.5391 26.7417H90.3781" stroke="#F3BE00" stroke-width="0.566923" stroke-linecap="round"/>
<ellipse cx="87.94" cy="83.4644" rx="0.968082" ry="1.49074" fill="#F3F0E3"/>
<ellipse cx="92.7736" cy="83.4644" rx="0.968082" ry="1.49074" fill="#EBE8DD"/>
<path d="M87.949 83.6387V82.6959C87.949 81.4435 88.9643 80.4282 90.2167 80.4282H90.5389C91.7913 80.4282 92.8065 81.4435 92.8065 82.6959V83.6387" stroke="#FFDC5E" stroke-width="0.566923" stroke-linecap="round"/>
<path d="M92.8087 83.638V82.6952C92.8087 81.4428 91.7934 80.4275 90.541 80.4275H90.3799" stroke="#F3BE00" stroke-width="0.566923" stroke-linecap="round"/>
<ellipse cx="87.9435" cy="70.0471" rx="0.968082" ry="1.49074" fill="#F3F0E3"/>
<ellipse cx="92.7776" cy="70.0471" rx="0.968082" ry="1.49074" fill="#EBE8DD"/>
<path d="M87.9543 70.2205V69.2777C87.9543 68.0253 88.9696 67.01 90.222 67.01H90.5442C91.7966 67.01 92.8119 68.0253 92.8119 69.2777V70.2205" stroke="#FFDC5E" stroke-width="0.566923" stroke-linecap="round"/>
<path d="M92.8104 70.22V69.2772C92.8104 68.0248 91.7951 67.0095 90.5427 67.0095H90.3816" stroke="#F3BE00" stroke-width="0.566923" stroke-linecap="round"/>
<ellipse cx="87.94" cy="56.625" rx="0.968082" ry="1.49074" fill="#F3F0E3"/>
<ellipse cx="92.7741" cy="56.625" rx="0.968082" ry="1.49074" fill="#EBE8DD"/>
<path d="M87.9508 56.7984V55.8556C87.9508 54.6032 88.9661 53.5879 90.2185 53.5879H90.5407C91.7931 53.5879 92.8084 54.6032 92.8084 55.8556V56.7984" stroke="#FFDC5E" stroke-width="0.566923" stroke-linecap="round"/>
<path d="M92.8087 56.7984V55.8556C92.8087 54.6032 91.7934 53.5879 90.541 53.5879H90.3799" stroke="#F3BE00" stroke-width="0.566923" stroke-linecap="round"/>
<ellipse cx="87.9406" cy="43.2044" rx="0.968082" ry="1.49074" fill="#F3F0E3"/>
<ellipse cx="92.7759" cy="43.2049" rx="0.968082" ry="1.49074" fill="#EBE8DD"/>
<path d="M87.9514 43.377V42.4342C87.9514 41.1818 88.9667 40.1665 90.2191 40.1665H90.5413C91.7937 40.1665 92.809 41.1818 92.809 42.4342V43.377" stroke="#FFDC5E" stroke-width="0.566923" stroke-linecap="round"/>
<path d="M92.8093 43.377V42.4342C92.8093 41.1818 91.794 40.1665 90.5416 40.1665H90.3805" stroke="#F3BE00" stroke-width="0.566923" stroke-linecap="round"/>
<path d="M111.424 35.6919C111.424 36.4682 111.273 37.2369 110.979 37.9541C110.685 38.6714 110.255 39.323 109.712 39.8719C109.168 40.4209 108.524 40.8563 107.814 41.1534C107.105 41.4505 106.344 41.6034 105.576 41.6034C104.808 41.6034 104.048 41.4505 103.338 41.1534C102.629 40.8563 101.984 40.4209 101.441 39.8719C100.898 39.323 100.467 38.6714 100.173 37.9541C99.8793 37.2369 99.728 36.4682 99.728 35.6919L105.576 35.6919H111.424Z" fill="#00866E"/>
<path d="M99.7296 35.6904C99.7296 34.9141 99.8809 34.1454 100.175 33.4282C100.469 32.711 100.899 32.0593 101.443 31.5104C101.986 30.9614 102.63 30.526 103.34 30.2289C104.049 29.9319 104.81 29.779 105.578 29.779L105.578 35.6904H99.7296Z" fill="#FFDC5E"/>
<path d="M111.425 35.6904C111.425 34.9141 111.274 34.1454 110.98 33.4282C110.686 32.711 110.255 32.0593 109.712 31.5104C109.169 30.9614 108.525 30.526 107.815 30.2289C107.105 29.9319 106.345 29.779 105.577 29.779L105.577 35.6904H111.425Z" fill="#64C9B5"/>
<path d="M111.425 35.6904C111.425 34.9141 111.274 34.1454 110.98 33.4282C110.686 32.711 110.255 32.0593 109.712 31.5104L105.577 35.6904H111.425Z" fill="#4C9D8D"/>
<ellipse cx="105.578" cy="35.693" rx="3.7827" ry="3.82359" fill="#FFFDF4"/>
<path d="M104.923 35.1578C104.591 35.1578 104.356 34.9137 104.356 34.5883C104.356 34.2629 104.591 34.0188 104.923 34.0188C105.255 34.0188 105.489 34.2629 105.489 34.5883C105.489 34.9137 105.255 35.1578 104.923 35.1578ZM106.475 34.2011L105.056 36.3651L104.822 36.2056L106.241 34.0416L106.475 34.2011ZM104.923 34.8779C105.072 34.8779 105.189 34.7608 105.189 34.5883C105.189 34.4158 105.072 34.2987 104.923 34.2987C104.773 34.2987 104.656 34.4158 104.656 34.5883C104.656 34.7608 104.773 34.8779 104.923 34.8779ZM106.374 36.3878C106.042 36.3878 105.808 36.1438 105.808 35.8184C105.808 35.493 106.042 35.2489 106.374 35.2489C106.706 35.2489 106.94 35.493 106.94 35.8184C106.94 36.1438 106.706 36.3878 106.374 36.3878ZM106.374 36.108C106.524 36.108 106.641 35.9908 106.641 35.8184C106.641 35.6459 106.524 35.5287 106.374 35.5287C106.224 35.5287 106.107 35.6459 106.107 35.8184C106.107 35.9908 106.224 36.108 106.374 36.108Z" fill="#00866E"/>
<path d="M65.3264 34.0625H63.7774V33.7566L64.643 32.9073C64.8285 32.725 64.9099 32.6079 64.9099 32.4419C64.9099 32.2499 64.7764 32.1165 64.5617 32.1165C64.3534 32.1165 64.207 32.2369 64.207 32.4387C64.207 32.5038 64.22 32.5526 64.2362 32.5949L63.8197 32.673C63.7904 32.5981 63.7774 32.5103 63.7774 32.4159C63.7774 32.0612 64.0735 31.739 64.5617 31.739C65.0628 31.739 65.3264 32.0222 65.3264 32.3931C65.3264 32.6925 65.2255 32.8812 64.9294 33.1676L64.4185 33.6655H65.3264V34.0625ZM66.5884 34.1081C65.9896 34.1081 65.56 33.6395 65.56 32.9235C65.56 32.2076 65.9896 31.739 66.5884 31.739C67.1871 31.739 67.6167 32.2076 67.6167 32.9235C67.6167 33.6395 67.1871 34.1081 66.5884 34.1081ZM66.5884 33.7111C66.9398 33.7111 67.1871 33.4182 67.1871 32.9235C67.1871 32.4289 66.9398 32.136 66.5884 32.136C66.2369 32.136 65.9896 32.4289 65.9896 32.9235C65.9896 33.4182 66.2369 33.7111 66.5884 33.7111ZM69.41 34.0625H67.861V33.7566L68.7266 32.9073C68.9121 32.725 68.9934 32.6079 68.9934 32.4419C68.9934 32.2499 68.86 32.1165 68.6452 32.1165C68.437 32.1165 68.2905 32.2369 68.2905 32.4387C68.2905 32.5038 68.3035 32.5526 68.3198 32.5949L67.9033 32.673C67.874 32.5981 67.861 32.5103 67.861 32.4159C67.861 32.0612 68.1571 31.739 68.6452 31.739C69.1464 31.739 69.41 32.0222 69.41 32.3931C69.41 32.6925 69.3091 32.8812 69.013 33.1676L68.502 33.6655H69.41V34.0625ZM70.5241 34.1081C70.0067 34.1081 69.7138 33.7957 69.7138 33.4572C69.7138 33.3921 69.7269 33.3336 69.7464 33.2783L70.1564 33.3759C70.1499 33.3987 70.1434 33.4279 70.1434 33.4605C70.1434 33.646 70.3028 33.7436 70.5274 33.7436C70.7845 33.7436 70.9667 33.5809 70.9667 33.2815C70.9667 33.0082 70.791 32.8389 70.5274 32.8389C70.3484 32.8389 70.1759 32.9398 70.0685 33.1155L69.7334 33.0277L69.8408 31.7846H71.253V32.1816H70.1401L70.0848 32.7055C70.215 32.5688 70.4232 32.507 70.5925 32.507C71.1131 32.507 71.3962 32.8162 71.3962 33.2815C71.3962 33.7468 71.048 34.1081 70.5241 34.1081Z" fill="#00866E"/>
<path d="M99.2412 73.0802C99.2412 73.0019 99.3047 72.9385 99.3829 72.9385H130.322C130.4 72.9385 130.463 73.0019 130.463 73.0802V74.8626C130.463 74.9409 130.4 75.0044 130.322 75.0044H99.3829C99.3047 75.0044 99.2412 74.9409 99.2412 74.8626V73.0802Z" fill="#006956"/>
<path d="M99.2412 73.0802C99.2412 73.0019 99.3047 72.9385 99.3829 72.9385H110.953V75.0044H99.3829C99.3047 75.0044 99.2412 74.9409 99.2412 74.8626V73.0802Z" fill="#FFDC5E"/>
<path d="M99.2406 76.3637C99.2406 76.2854 99.3041 76.2219 99.3823 76.2219H130.321C130.399 76.2219 130.463 76.2854 130.463 76.3637V78.1461C130.463 78.2244 130.399 78.2878 130.321 78.2878H99.3823C99.3041 78.2878 99.2406 78.2244 99.2406 78.1461V76.3637Z" fill="#006956"/>
<path d="M99.2406 76.3637C99.2406 76.2854 99.3041 76.2219 99.3823 76.2219H113.877V78.2878H99.3823C99.3041 78.2878 99.2406 78.2244 99.2406 78.1461V76.3637Z" fill="#64C9B5"/>
<rect x="99.24" y="79.5066" width="31.2222" height="2.06588" rx="0.141731" fill="#006956"/>
<path d="M99.24 79.6483C99.24 79.57 99.3034 79.5066 99.3817 79.5066H121.38V81.5725H99.3817C99.3034 81.5725 99.24 81.509 99.24 81.4307V79.6483Z" fill="#4C9D8D"/>
<path d="M98.9548 45.8324C98.9548 45.4802 99.2403 45.1946 99.5926 45.1946H130.107C130.459 45.1946 130.745 45.4802 130.745 45.8324V47.5916H98.9548V45.8324Z" fill="#EBE8DD" stroke="#EBE8DD" stroke-width="0.141731"/>
<path d="M98.8839 50.0879H130.816V52.5107H98.8839V50.0879Z" fill="#F7F4E8"/>
<path d="M98.8839 54.9333H130.816V57.3561H98.8839V54.9333Z" fill="#F7F4E8"/>
<path d="M98.8851 59.7783H130.817V62.2011H98.8851V59.7783Z" fill="#F7F4E8"/>
<path d="M98.8845 64.6238H130.816V67.0466H98.8845V64.6238Z" fill="#F7F4E8"/>
<rect x="54.2192" y="50.7452" width="7.04389" height="7.12158" rx="0.353381" fill="#FFFDF4" stroke="#EBE8DD" stroke-width="0.143622"/>
<path d="M54.2192 51.0985C54.2192 50.9034 54.3774 50.7452 54.5725 50.7452H60.9097C61.1048 50.7452 61.263 50.9034 61.263 51.0985V51.9859H54.2192V51.0985Z" fill="#EBE8DD" stroke="#EBE8DD" stroke-width="0.143622"/>
<rect x="54.2202" y="70.7705" width="7.04389" height="7.12158" rx="0.353381" fill="#FFFDF4" stroke="#EBE8DD" stroke-width="0.143622"/>
<path d="M54.2202 71.1239C54.2202 70.9288 54.3785 70.7705 54.5736 70.7705H60.9108C61.1059 70.7705 61.2641 70.9288 61.2641 71.1239V72.0113H54.2202V71.1239Z" fill="#EBE8DD" stroke="#EBE8DD" stroke-width="0.143622"/>
<rect x="64.0596" y="40.7334" width="7.04389" height="7.12158" rx="0.353381" fill="#FFFDF4" stroke="#EBE8DD" stroke-width="0.143622"/>
<path d="M64.0601 41.0868C64.0601 40.8916 64.2183 40.7334 64.4135 40.7334H70.7506C70.9458 40.7334 71.104 40.8916 71.104 41.0868V41.9742H64.0601V41.0868Z" fill="#EBE8DD" stroke="#EBE8DD" stroke-width="0.143622"/>
<rect x="64.0614" y="60.7581" width="7.04389" height="7.12158" rx="0.353381" fill="#FFFDF4" stroke="#EBE8DD" stroke-width="0.143622"/>
<path d="M64.0619 61.1115C64.0619 60.9163 64.2201 60.7581 64.4153 60.7581H70.7524C70.9476 60.7581 71.1058 60.9163 71.1058 61.1115V61.9989H64.0619V61.1115Z" fill="#EBE8DD" stroke="#EBE8DD" stroke-width="0.143622"/>
<rect x="64.0601" y="70.7723" width="7.04389" height="7.12158" rx="0.353381" fill="#FFFDF4" stroke="#EBE8DD" stroke-width="0.143622"/>
<path d="M64.0606 71.1249C64.0606 70.9297 64.2188 70.7715 64.414 70.7715H70.7511C70.9463 70.7715 71.1045 70.9297 71.1045 71.1249V72.0123H64.0606V71.1249Z" fill="#EBE8DD" stroke="#EBE8DD" stroke-width="0.143622"/>
<rect x="73.9007" y="40.7342" width="7.04389" height="7.12158" rx="0.353381" fill="#FFFDF4" stroke="#EBE8DD" stroke-width="0.143622"/>
<path d="M73.9012 41.0875C73.9012 40.8924 74.0594 40.7342 74.2545 40.7342H80.5917C80.7868 40.7342 80.945 40.8924 80.945 41.0875V41.9749H73.9012V41.0875Z" fill="#EBE8DD" stroke="#EBE8DD" stroke-width="0.143622"/>
<rect x="73.9037" y="50.7466" width="7.04389" height="7.12158" rx="0.353381" fill="#FFFDF4" stroke="#EBE8DD" stroke-width="0.143622"/>
<path d="M73.9042 51.0993C73.9042 50.9041 74.0624 50.7459 74.2576 50.7459H80.5947C80.7899 50.7459 80.9481 50.9041 80.9481 51.0993V51.9866H73.9042V51.0993Z" fill="#EBE8DD" stroke="#EBE8DD" stroke-width="0.143622"/>
<rect x="73.9025" y="60.7566" width="7.04389" height="7.12158" rx="0.353381" fill="#FFFDF4" stroke="#EBE8DD" stroke-width="0.143622"/>
<path d="M73.9024 61.1105C73.9024 60.9153 74.0606 60.7571 74.2558 60.7571H80.5929C80.7881 60.7571 80.9463 60.9153 80.9463 61.1105V61.9979H73.9024V61.1105Z" fill="#EBE8DD" stroke="#EBE8DD" stroke-width="0.143622"/>
<rect x="98.9557" y="45.1956" width="31.7882" height="24.1457" rx="0.636843" stroke="#EBE8DD" stroke-width="0.143622"/>
<rect opacity="0.04" x="90.3795" y="24.7114" width="15.1982" height="61.9396" fill="#1A1A1A"/>
<path d="M110.854 33.4986L116.405 32.0317" stroke="#4C9D8D" stroke-width="0.283462" stroke-linecap="round"/>
<path d="M110.596 38.1804H116.939" stroke="#00866E" stroke-width="0.283462" stroke-linecap="round"/>
<rect x="118.723" y="31.2151" width="4.3043" height="1.3091" rx="0.654549" fill="#EBE8DD"/>
<rect x="123.788" y="31.2146" width="7.03103" height="1.3091" rx="0.654549" fill="#EBE8DD"/>
<rect x="118.722" y="37.5256" width="12.0952" height="1.3091" rx="0.654549" fill="#EBE8DD"/>
<rect x="64.0596" y="50.7464" width="7.04389" height="7.12158" rx="0.353381" fill="#FFFDF4" stroke="#EBE8DD" stroke-width="0.143622"/>
<path d="M64.06 51.0993C64.06 50.9041 64.2182 50.7459 64.4134 50.7459H70.7505C70.9456 50.7459 71.1039 50.9041 71.1039 51.0993V51.9866H64.06V51.0993Z" fill="#EBE8DD" stroke="#EBE8DD" stroke-width="0.143622"/>
<rect x="64.7548" y="52.9053" width="5.65197" height="0.721611" rx="0.360806" fill="#CAC4FF"/>
<rect x="64.7554" y="54.4709" width="4.42088" height="0.721611" rx="0.360806" fill="#CAC4FF"/>
<rect x="73.9013" y="70.7713" width="7.04389" height="7.12158" rx="0.353381" fill="#FFFDF4" stroke="#EBE8DD" stroke-width="0.143622"/>
<path d="M73.9018 71.1247C73.9018 70.9295 74.06 70.7713 74.2551 70.7713H80.5923C80.7874 70.7713 80.9457 70.9295 80.9457 71.1247V72.012H73.9018V71.1247Z" fill="#EBE8DD" stroke="#EBE8DD" stroke-width="0.143622"/>
<rect x="74.5981" y="72.929" width="5.65197" height="0.721611" rx="0.360806" fill="#CAC4FF"/>
<rect x="74.5994" y="74.4934" width="2.90774" height="0.721611" rx="0.360806" fill="#CAC4FF"/>
<rect x="54.2179" y="40.7317" width="7.04389" height="7.12158" rx="0.353381" fill="#FFFDF4" stroke="#EBE8DD" stroke-width="0.143622"/>
<path d="M54.2179 41.0851C54.2179 40.8899 54.3761 40.7317 54.5713 40.7317H60.9084C61.1036 40.7317 61.2618 40.8899 61.2618 41.0851V41.9725H54.2179V41.0851Z" fill="#EBE8DD" stroke="#EBE8DD" stroke-width="0.143622"/>
<path d="M61.2918 42.8697C61.2918 44.0286 60.363 44.964 59.2222 44.964C58.0814 44.964 57.1527 44.0286 57.1527 42.8697C57.1527 41.7109 58.0814 40.7755 59.2222 40.7755C60.363 40.7755 61.2918 41.7109 61.2918 42.8697Z" stroke="#FFDC5E" stroke-width="0.430867"/>
<path d="M58.7044 43.8777H59.6355L58.5928 42.014L57.6692 42.0073L58.7044 43.8777Z" fill="#006956"/>
<path d="M59.635 43.8786H58.7039L60.9388 39.812H61.87L59.635 43.8786Z" fill="#4C9D8D"/>
<rect x="54.2192" y="60.7578" width="7.04389" height="7.12158" rx="0.353381" fill="#FFFDF4" stroke="#EBE8DD" stroke-width="0.143622"/>
<path d="M54.2192 61.1112C54.2192 60.9161 54.3774 60.7578 54.5725 60.7578H60.9097C61.1048 60.7578 61.263 60.9161 61.263 61.1112V61.9986H54.2192V61.1112Z" fill="#EBE8DD" stroke="#EBE8DD" stroke-width="0.143622"/>
<path d="M61.2878 62.9054C61.2878 64.0642 60.359 64.9996 59.2182 64.9996C58.0774 64.9996 57.1487 64.0642 57.1487 62.9054C57.1487 61.7466 58.0774 60.8111 59.2182 60.8111C60.359 60.8111 61.2878 61.7466 61.2878 62.9054Z" stroke="#FFDC5E" stroke-width="0.430867"/>
<path d="M58.7033 63.9038H59.6345L58.5917 62.0401L57.6681 62.0334L58.7033 63.9038Z" fill="#006956"/>
<path d="M59.6351 63.906H58.704L60.939 59.8394H61.8701L59.6351 63.906Z" fill="#4C9D8D"/>
<path fill-rule="evenodd" clip-rule="evenodd" d="M90.3858 25.6001C105.047 25.0741 126.059 24.7234 134.733 24.6138L90.379 23.6272V23.628L46.0314 24.6144C54.7071 24.724 75.724 25.0748 90.3858 25.6009V25.6001Z" fill="#4C9D8D"/>
<path d="M136.171 45.9995L135.896 47.4795L135.896 49.0547L128.84 54.9145C128.801 54.9474 128.756 54.9723 128.707 54.9876L125.26 56.0987L125.006 55.9919L136.17 46.0003L136.171 45.9995Z" fill="#D4D4D4"/>
<path d="M146.953 35.6869L147.43 36.2249L128.037 53.801L127.56 53.263L146.953 35.6869Z" fill="#FFDC5E"/>
<path d="M147.878 36.7254L147.879 36.7266L128.486 54.3027L128.485 54.3015L147.878 36.7254Z" fill="#FFDC5E"/>
<path d="M147.431 36.2234L147.878 36.7273L128.485 54.3034L128.038 53.7996L147.431 36.2234Z" fill="#DBA700"/>
<path d="M146.508 35.1805L146.955 35.6843L127.562 53.2605L127.115 52.7566L146.508 35.1805Z" fill="#F3BE00"/>
<path d="M128.487 54.3031L127.114 52.7561L124.997 55.8019C124.873 55.9793 125.073 56.2041 125.261 56.0989L128.486 54.3031H128.487Z" fill="#FFF1BE"/>
<path d="M146.507 35.1813L147.636 34.1577L149.008 35.7046L147.879 36.7282L146.507 35.1813Z" fill="#CCCCCC"/>
<path d="M148.175 33.6685L147.637 34.1562L149.009 35.7031L149.547 35.2154C149.874 34.9195 149.901 34.4117 149.608 34.0817L149.297 33.7303C149.004 33.4003 148.502 33.3727 148.175 33.6685Z" fill="#FCBFB7"/>
<path d="M124.997 55.8037L125.359 55.2832L125.812 55.794L125.26 56.1009C125.072 56.2061 124.872 55.9812 124.996 55.8037H124.997Z" fill="#A6A6A6"/>
<path d="M135.884 49.0675L137.565 47.5943L137.566 46.0645L135.884 47.5943V49.0675Z" fill="#A9A9A9"/>
</svg>
