<svg width="180" height="116" viewBox="0 0 180 116" fill="none" xmlns="http://www.w3.org/2000/svg">
<rect y="0.942627" width="180" height="114.943" rx="7.66286" fill="#D3FFF3"/>
<path d="M45.4004 92.2164V65.8846C45.4004 65.4008 45.7465 64.9847 46.2211 64.8953L57.1193 62.8755V45.2178C57.1193 44.6622 57.5699 44.2134 58.1229 44.2134H78.8219V92.2164H45.4004Z" fill="#FFDC5E"/>
<path d="M143.839 92.2172V75.0345C143.839 74.5508 143.493 74.1346 143.019 74.0453L132.12 72.0255V57.2113C132.12 56.6556 131.67 56.2068 131.117 56.2068H123.989V92.2194H143.839V92.2172Z" fill="#FFDC5E"/>
<path d="M78.7616 92.2174V35.6034C78.7616 35.1197 79.1077 34.7036 79.5823 34.6142L90.4805 32.5944V25.4237C90.4805 24.9269 90.844 24.5042 91.3339 24.4301L98.7444 23.3036C99.3518 23.2121 99.9004 23.6828 99.9004 24.2972V92.2174H78.7616Z" fill="#FFDC5E"/>
<path d="M96.3376 92.2175V39.3294L108.056 37.1571V30.1258C108.056 29.5702 108.507 29.1213 109.06 29.1213H122.982C123.537 29.1213 123.986 29.5724 123.986 30.1258V92.2175H96.3354H96.3376Z" fill="#FFDC5E"/>
<g clip-path="url(#clip0_3140_10030)">
<path d="M86.2349 92.2122V64.6915C86.2349 64.2276 86.5379 63.8274 86.9549 63.7429L96.524 61.8054V47.1218C96.524 46.59 96.9188 46.1565 97.4067 46.1565H114.888C115.271 46.1565 115.583 46.4667 115.583 46.8489V92.2122H86.2335H86.2349Z" fill="#006956"/>
<path d="M67.9671 78.9321H86.4552V92.2522H67.2653V79.6289C67.2653 79.2443 67.5797 78.9321 67.9671 78.9321Z" fill="#006956"/>
<path fill-rule="evenodd" clip-rule="evenodd" d="M77.9371 68.8571C77.8234 68.767 77.6654 68.767 77.5545 68.8571L73.5899 72.0344C73.3667 72.2146 73.4914 72.5792 73.7825 72.5792H74.5006V80.9757H75.2797V77.4227H80.4698V80.9757H81.2489V77.4227V72.5792H81.7077C81.9947 72.5792 82.1236 72.216 81.8976 72.0344L77.9357 68.8571H77.9371Z" fill="#006956"/>
<path d="M99.8301 73.7H111.918C112.196 73.7 112.421 73.5032 112.421 73.2605V70.9787C112.421 70.736 112.196 70.5393 111.918 70.5393H99.8301C99.5523 70.5393 99.3271 70.736 99.3271 70.9787V73.2605C99.3271 73.5032 99.5523 73.7 99.8301 73.7Z" fill="#138872"/>
<path d="M94.0784 84.5857H96.8204C96.9498 84.5857 97.0547 84.4808 97.0547 84.3514V81.6094C97.0547 81.48 96.9498 81.3752 96.8204 81.3752H94.0784C93.949 81.3752 93.8441 81.48 93.8441 81.6094V84.3514C93.8441 84.4808 93.949 84.5857 94.0784 84.5857Z" fill="#138872"/>
<path d="M88.6103 84.5842H91.3523C91.4817 84.5842 91.5865 84.4793 91.5865 84.35V81.608C91.5865 81.4786 91.4817 81.3737 91.3523 81.3737H88.6103C88.4809 81.3737 88.376 81.4786 88.376 81.608V84.35C88.376 84.4793 88.4809 84.5842 88.6103 84.5842Z" fill="#138872"/>
<path d="M94.0783 73.7466H96.8203C96.9497 73.7466 97.0546 73.6417 97.0546 73.5123V70.7703C97.0546 70.6409 96.9497 70.536 96.8203 70.536H94.0783C93.9489 70.536 93.844 70.6409 93.844 70.7703V73.5123C93.844 73.6417 93.9489 73.7466 94.0783 73.7466Z" fill="#138872"/>
<path d="M88.6104 73.7471H91.3524C91.4818 73.7471 91.5867 73.6422 91.5867 73.5128V70.7708C91.5867 70.6414 91.4818 70.5365 91.3524 70.5365H88.6104C88.481 70.5365 88.3761 70.6414 88.3761 70.7708V73.5128C88.3761 73.6422 88.481 73.7471 88.6104 73.7471Z" fill="#138872"/>
<path d="M94.0765 68.3313H96.8185C96.9478 68.3313 97.0527 68.2264 97.0527 68.097V65.355C97.0527 65.2257 96.9478 65.1208 96.8185 65.1208H94.0765C93.9471 65.1208 93.8422 65.2257 93.8422 65.355V68.097C93.8422 68.2264 93.9471 68.3313 94.0765 68.3313Z" fill="#138872"/>
<path d="M88.6097 68.3303H91.3517C91.481 68.3303 91.5859 68.2254 91.5859 68.096V65.3541C91.5859 65.2247 91.481 65.1198 91.3517 65.1198H88.6097C88.4803 65.1198 88.3754 65.2247 88.3754 65.3541V68.096C88.3754 68.2254 88.4803 68.3303 88.6097 68.3303Z" fill="#138872"/>
<path d="M94.0783 79.1653H96.8203C96.9497 79.1653 97.0546 79.0604 97.0546 78.931V76.189C97.0546 76.0596 96.9497 75.9547 96.8203 75.9547H94.0783C93.9489 75.9547 93.844 76.0596 93.844 76.189V78.931C93.844 79.0604 93.9489 79.1653 94.0783 79.1653Z" fill="#138872"/>
<path d="M88.6116 79.1667H91.3536C91.483 79.1667 91.5879 79.0619 91.5879 78.9325V76.1905C91.5879 76.0611 91.483 75.9562 91.3536 75.9562H88.6116C88.4822 75.9562 88.3774 76.0611 88.3774 76.1905V78.9325C88.3774 79.0619 88.4822 79.1667 88.6116 79.1667Z" fill="#138872"/>
<path d="M99.8307 68.2805H111.919C112.197 68.2805 112.422 68.0838 112.422 67.8411V65.5593C112.422 65.3166 112.197 65.1198 111.919 65.1198H99.8307C99.5529 65.1198 99.3277 65.3166 99.3277 65.5593V67.8411C99.3277 68.0838 99.5529 68.2805 99.8307 68.2805Z" fill="#138872"/>
<path d="M99.8301 79.1182H111.918C112.196 79.1182 112.421 78.9214 112.421 78.6787V76.3969C112.421 76.1542 112.196 75.9575 111.918 75.9575H99.8301C99.5523 75.9575 99.3271 76.1542 99.3271 76.3969V78.6787C99.3271 78.9214 99.5523 79.1182 99.8301 79.1182Z" fill="#138872"/>
<path d="M99.8298 84.5361H111.918C112.196 84.5361 112.421 84.3394 112.421 84.0967V81.8149C112.421 81.5722 112.196 81.3754 111.918 81.3754H99.8298C99.552 81.3754 99.3268 81.5722 99.3268 81.8149V84.0967C99.3268 84.3394 99.552 84.5361 99.8298 84.5361Z" fill="#138872"/>
<path d="M70.0949 84.7607H85.4397C85.7534 84.7607 86.0077 84.564 86.0077 84.3213V82.0395C86.0077 81.7968 85.7534 81.6001 85.4397 81.6001H70.0949C69.7812 81.6001 69.5269 81.7968 69.5269 82.0395V84.3213C69.5269 84.564 69.7812 84.7607 70.0949 84.7607Z" fill="#138872"/>
<path d="M99.8308 62.8628H111.919C112.197 62.8628 112.422 62.652 112.422 62.392V59.9472C112.422 59.6871 112.197 59.4763 111.919 59.4763H99.8308C99.553 59.4763 99.3278 59.6871 99.3278 59.9472V62.392C99.3278 62.652 99.553 62.8628 99.8308 62.8628Z" fill="#138872"/>
<path d="M99.8298 57.2202H111.918C112.196 57.2202 112.421 57.0235 112.421 56.7808V54.499C112.421 54.2563 112.196 54.0595 111.918 54.0595H99.8298C99.552 54.0595 99.3268 54.2563 99.3268 54.499V56.7808C99.3268 57.0235 99.552 57.2202 99.8298 57.2202Z" fill="#138872"/>
<path d="M99.8291 51.8H111.917C112.195 51.8 112.42 51.6033 112.42 51.3606V49.0788C112.42 48.8361 112.195 48.6394 111.917 48.6394H99.8291C99.5513 48.6394 99.3261 48.8361 99.3261 49.0788V51.3606C99.3261 51.6033 99.5513 51.8 99.8291 51.8Z" fill="#138872"/>
<path d="M115.356 61.7334L119.944 63.1466C120.174 63.2169 120.323 63.3852 120.323 63.5717V92.2115H115.356V61.7334Z" fill="#006956"/>
<path d="M114.914 84.584H117.656C117.786 84.584 117.891 84.4791 117.891 84.3497V81.6077C117.891 81.4783 117.786 81.3734 117.656 81.3734H114.914C114.785 81.3734 114.68 81.4783 114.68 81.6077V84.3497C114.68 84.4791 114.785 84.584 114.914 84.584Z" fill="#138872"/>
<path d="M114.914 79.1663H117.656C117.786 79.1663 117.891 79.0614 117.891 78.932V76.19C117.891 76.0606 117.786 75.9557 117.656 75.9557H114.914C114.785 75.9557 114.68 76.0606 114.68 76.19V78.932C114.68 79.0614 114.785 79.1663 114.914 79.1663Z" fill="#138872"/>
<path d="M114.914 73.7507H117.656C117.786 73.7507 117.891 73.6458 117.891 73.5165V70.7745C117.891 70.6451 117.786 70.5402 117.656 70.5402H114.914C114.785 70.5402 114.68 70.6451 114.68 70.7745V73.5165C114.68 73.6458 114.785 73.7507 114.914 73.7507Z" fill="#138872"/>
<path d="M114.914 68.3311H117.656C117.785 68.3311 117.89 68.2262 117.89 68.0968V65.3548C117.89 65.2254 117.785 65.1205 117.656 65.1205H114.914C114.784 65.1205 114.68 65.2254 114.68 65.3548V68.0968C114.68 68.2262 114.784 68.3311 114.914 68.3311Z" fill="#138872"/>
</g>
<path d="M54.2422 62.9142L56.9697 65.2898L54.1444 68.5318L51.4169 66.1562L54.2422 62.9142Z" fill="#BABABA"/>
<path d="M53.5925 63.6574C53.5925 63.6574 55.2713 65.2354 54.5996 68.0048L56.9729 65.2885L54.2419 62.9134L53.5984 63.6515L53.5925 63.6574Z" fill="#8C8C8C"/>
<path d="M54.8382 68.1978L51.6512 65.4232C51.225 65.0522 50.5763 65.0977 50.2041 65.5247L37.9113 79.6239C37.0543 80.6068 37.1553 82.1029 38.1362 82.957L39.3125 83.981C40.2935 84.835 41.7905 84.73 42.6475 83.7471L54.9402 69.6479C55.3125 69.2209 55.2688 68.5726 54.8426 68.2016L54.8382 68.1978Z" fill="#4255FF"/>
<path d="M38.1762 82.025C39.4877 83.1613 41.4715 83.0192 42.6161 81.7158L54.611 68.0096L54.8414 68.2087C55.2668 68.5777 55.3145 69.2243 54.9369 69.649L42.6234 83.7209C41.7619 84.7058 40.2682 84.805 39.2875 83.9557L38.1118 82.9366C37.4856 82.3978 37.2194 81.599 37.3252 80.8401C37.5026 81.2864 37.7863 81.6971 38.1762 82.0309L38.1762 82.025Z" fill="#1200B4"/>
<path d="M56.1708 63.3996C62.0318 68.485 70.9359 67.8605 76.0516 62.0082C81.1733 56.1559 80.5711 47.2881 74.7101 42.2085C68.8492 37.1231 59.9451 37.7476 54.8293 43.5999C49.7136 49.4522 50.3099 58.3201 56.1708 63.3996ZM76.0083 40.7278C82.6904 46.5221 83.3702 56.6307 77.5346 63.2972C71.699 69.9636 61.549 70.6747 54.8727 64.8804C48.1905 59.0861 47.5108 48.9774 53.3464 42.311C59.182 35.6386 69.332 34.9334 76.0083 40.7278Z" fill="#BABABA"/>
<path opacity="0.5" d="M65.4558 66.8407C57.6746 66.8673 51.3626 60.6059 51.3575 52.8556C51.3525 45.1053 57.6563 38.8008 65.4375 38.7742C73.2187 38.7476 79.5307 45.009 79.5357 52.7593C79.5408 60.5096 73.237 66.8141 65.4558 66.8407Z" fill="#C7E9FA"/>
<path opacity="0.7" d="M54.8359 43.5919C59.5448 38.2113 67.4511 37.249 73.2525 41.0879C68.8775 42.191 64.2969 45.0125 60.5617 49.2781C57.216 53.1012 55.1225 57.4258 54.3634 61.4989C50.2559 56.3072 50.3042 48.772 54.8359 43.5919Z" fill="white"/>
<path d="M120.21 80.5489C121.527 80.2469 122.809 81.5356 122.836 82.7853C124.482 82.307 126.248 83.4267 126.623 85.1997C126.819 86.122 127.332 86.9323 128.088 87.4092C129.182 88.0984 130.473 89.4887 130.473 92.2109H120.21V80.5489Z" fill="#08494B"/>
<path d="M122.043 85.976C122.043 85.976 118.115 85.1194 116.535 87.7266C116.535 87.7266 114.344 87.5502 113.123 89.365C111.901 91.1799 110.213 90.0946 108.674 92.2114H122.043V85.9775V85.976Z" fill="#08494B"/>
<path d="M67.2046 80.5488C66.3926 80.363 65.5936 80.781 65.0926 81.4225C64.5809 82.0791 63.9028 82.5705 63.1287 82.7563C61.7056 83.0986 60.5428 84.5026 60.7328 86.2857C60.8537 87.4154 60.5741 88.5624 59.8733 89.4102C59.3486 90.0452 58.8962 90.9589 58.9102 92.2182H67.2046V80.5477V80.5488Z" fill="#08494B"/>
<defs>
<clipPath id="clip0_3140_10030">
<rect width="54.8606" height="46.1009" fill="white" transform="translate(67.2692 46.1567)"/>
</clipPath>
</defs>
</svg>
