<svg xmlns="http://www.w3.org/2000/svg" width="100%" height="auto" viewBox="0 0 132 51" fill="none">
  <path d="M26.623 0.0722973C27.2035 -0.179103 27.8464 0.255859 27.8464 0.902317V40.5557C27.8464 41.258 27.3126 41.8247 26.6542 41.8247H1.19225C0.533785 41.8247 0 41.254 0 40.5557V15.8427C0 15.1443 0.533785 14.5737 1.19225 14.5737H10.7419C11.229 14.5737 11.6225 14.1707 11.6225 13.6718V7.15939C11.6225 6.79625 11.8329 6.46903 12.1602 6.32937L26.623 0.0722973Z" fill="white"/>
  <path d="M22.6314 14.5747H16.6273C16.2728 14.5747 15.9844 14.2794 15.9844 13.9162V9.88188C15.9844 9.59855 16.1598 9.35114 16.4208 9.25936L22.4249 6.86907C22.8418 6.72541 23.2743 7.04066 23.2743 7.49158V13.9162C23.2743 14.2794 22.986 14.5747 22.6314 14.5747Z" fill="#13705F"/>
  <path d="M22.415 18.8401H16.8395C16.3811 18.8401 16.0096 19.2206 16.0096 19.6901V25.161C16.0096 25.6304 16.3811 26.011 16.8395 26.011H22.415C22.8733 26.011 23.2449 25.6304 23.2449 25.161V19.6901C23.2449 19.2206 22.8733 18.8401 22.415 18.8401Z" fill="#13705F"/>
  <path d="M22.415 30.2761H16.8395C16.3811 30.2761 16.0096 30.6567 16.0096 31.1261V36.597C16.0096 37.0665 16.3811 37.447 16.8395 37.447H22.415C22.8733 37.447 23.2449 37.0665 23.2449 36.597V31.1261C23.2449 30.6567 22.8733 30.2761 22.415 30.2761Z" fill="#13705F"/>
  <path d="M10.7839 18.8401H5.20838C4.75004 18.8401 4.37848 19.2206 4.37848 19.6901V25.161C4.37848 25.6304 4.75004 26.011 5.20838 26.011H10.7839C11.2422 26.011 11.6138 25.6304 11.6138 25.161V19.6901C11.6138 19.2206 11.2422 18.8401 10.7839 18.8401Z" fill="#13705F"/>
  <path d="M10.7839 30.2761H5.20838C4.75004 30.2761 4.37848 30.6567 4.37848 31.1261V36.597C4.37848 37.0665 4.75004 37.447 5.20838 37.447H10.7839C11.2422 37.447 11.6138 37.0665 11.6138 36.597V31.1261C11.6138 30.6567 11.2422 30.2761 10.7839 30.2761Z" fill="#13705F"/>
  <path d="M37.3177 30.5833C37.3177 22.7746 42.1833 18.1016 48.0862 18.1016C49.4495 18.1016 50.5282 18.379 51.4095 18.8256C52.0016 19.1265 52.6948 18.6893 52.6948 18.017V14.6557C52.6948 12.9773 52.1761 12.1405 50.3675 11.9666C50.0233 11.9149 49.7662 11.614 49.7662 11.2567V11.1533C49.7662 10.8289 49.982 10.5421 50.2895 10.4575L56.3256 8.82148C56.4036 8.80268 56.4816 8.78857 56.5597 8.78857C57.0646 8.78857 57.4731 9.20698 57.4731 9.72411V37.4235C57.4731 39.3651 58.0331 40.1596 59.6672 40.1596H59.8187C60.2089 40.1596 60.5302 40.484 60.5302 40.8883C60.5302 41.2879 60.2134 41.617 59.8187 41.617H53.723H53.2364C52.9334 41.617 52.6902 41.3678 52.6902 41.0575V38.4296C52.6902 38.2133 52.4239 38.1334 52.3 38.3073C50.799 40.5028 48.6738 41.617 46.6587 41.617C40.5859 41.617 37.3131 36.897 37.3131 30.588L37.3177 30.5833ZM48.2561 38.6129C48.3479 38.6129 48.4351 38.6129 48.5269 38.6035C50.8816 38.4766 52.6902 36.4081 52.6902 33.9916V26.5685C52.5157 23.0849 51.1387 20.1278 47.6502 20.1278C44.5931 20.1278 42.2659 23.5691 42.2659 28.9473C42.2659 34.3254 44.3774 38.6082 48.2515 38.6082L48.2561 38.6129Z" fill="white"/>
  <path d="M89.101 37.7055C89.0367 37.4611 89 37.179 89 36.8499V19.6577C89 19.1405 88.5915 18.7221 88.0866 18.7221C88.0085 18.7221 87.9305 18.7315 87.8525 18.755L87.4669 18.8585L82.5554 20.1983L81.844 20.391C81.5456 20.471 81.3344 20.753 81.3344 21.068V21.2561C81.3344 21.5757 81.5502 21.8578 81.8531 21.9377C82.1699 21.9753 82.4453 22.0318 82.6885 22.107C83.8682 22.4784 84.2217 23.3105 84.2217 24.6268V35.2562C84.2217 36.3093 84.0518 37.1038 83.7902 37.7008C82.9823 39.5578 81.3344 39.5343 81.3344 39.5343C81.3344 39.5343 79.5351 39.5578 78.663 37.7008C78.4243 37.1884 78.2499 36.5443 78.2085 35.7122C78.1994 35.5665 78.1948 35.4113 78.1948 35.2562V26.653C78.1948 24.2789 77.5797 22.295 76.3954 20.833C75.0735 19.2016 73.0492 18.2285 70.3961 18.111C70.2171 18.1063 70.0289 18.1016 69.8453 18.1016C67.4033 18.1016 65.2138 18.802 63.5935 19.9397C62.0879 20.9928 61.0734 22.4173 60.7934 24.0016C60.743 24.293 60.7154 24.5892 60.7154 24.8948C60.7154 25.7081 60.9128 26.4556 61.3121 27.2501C61.4039 27.4287 61.6197 27.5039 61.7941 27.4005C62.3312 27.0855 63.5567 26.4133 65.2872 25.7786C65.4341 25.7222 65.5167 25.5529 65.4571 25.4025C65.223 24.7961 65.1082 24.2366 65.1082 23.6584C65.1082 21.5851 66.4439 19.9961 68.7712 19.9961C69.9646 19.9961 70.9653 20.4098 71.7272 21.1761C72.8105 22.2621 73.421 24.0627 73.421 26.3898C73.421 26.6859 73.32 26.9586 73.1502 27.1796C72.9757 27.3958 72.7325 27.5557 72.4525 27.6168L71.8925 27.739L70.7587 27.9835C68.1836 28.5852 65.9482 29.2434 64.2315 30.1554C61.9226 31.3777 60.5502 33.0513 60.5502 35.6558C60.5502 35.9614 60.5685 36.2576 60.6053 36.549C60.9908 39.492 63.2813 41.6122 66.5725 41.6122C69.2761 41.6122 71.4977 40.4745 72.9528 37.9124C72.9528 37.9124 72.9528 37.9124 72.9528 37.9077C73.1456 37.6397 73.4164 37.5786 73.4164 38.0393V40.4322C73.4164 40.7425 73.6597 40.9917 73.9626 40.9917H91.1436C91.5797 40.9917 91.9331 40.6297 91.9331 40.183C91.9331 39.8117 91.6899 39.4873 91.3364 39.3979C90.1476 39.0971 89.3672 38.6975 89.101 37.7055ZM71.8971 37.4423C71.8971 37.4423 71.8879 37.4517 71.8787 37.4564C70.9882 38.2415 69.9187 38.6505 68.762 38.6505C68.0551 38.6505 67.44 38.453 66.9443 38.1051C66.0492 37.4799 65.5305 36.3657 65.5305 35.0352C65.5305 34.9882 65.5305 34.9459 65.5305 34.8989C65.5764 32.2474 67.1049 30.7807 71.2131 29.6994L71.8741 29.5396L73.063 29.2528C73.2374 29.2105 73.4072 29.3468 73.4072 29.5349V33.9446C73.4072 35.2797 72.8748 36.5725 71.8925 37.4423H71.8971Z" fill="white"/>
  <path d="M86.6635 16.0713C88.472 16.0713 89.8077 14.7502 89.8077 12.898C89.8077 11.0457 88.472 9.71997 86.6635 9.71997C84.855 9.71997 83.432 11.088 83.432 12.898C83.432 14.7079 84.7677 16.0713 86.6635 16.0713Z" fill="white"/>
  <path d="M91.7984 37.3435L94.938 34.7015C95.0803 34.5839 95.2869 34.6404 95.3557 34.8143C96.5538 37.8372 98.7616 39.7976 101.167 39.7976C103.572 39.7976 105.344 38.3402 105.344 36.1823C105.303 34.3301 104.095 33.183 102.415 32.5671L98.1098 31.0251C95.0941 29.9204 92.5557 28.3361 92.5557 24.7631C92.5557 20.659 95.7 18.1016 100.566 18.1016C104.954 18.1016 107.625 19.8222 108.722 21.3172C108.81 21.4394 108.787 21.6087 108.672 21.7027L105.67 24.0533C105.532 24.1614 105.33 24.1097 105.261 23.9451C104.279 21.4864 102.443 19.9068 100.175 19.9068C97.9079 19.9068 96.3426 21.1432 96.3426 23.0378C96.3426 24.9324 97.8482 25.7269 99.6154 26.4321L103.967 27.9741C106.937 29.0318 109.135 30.9734 109.135 34.457C109.135 38.3825 105.95 41.6028 100.74 41.6028C97.1 41.6028 93.4967 40.1031 91.7571 37.7102C91.6744 37.5927 91.6974 37.4282 91.8075 37.3388L91.7984 37.3435Z" fill="white"/>
  <path d="M132 19.5211V19.6199C132 19.9677 131.784 20.2686 131.463 20.3814C130.168 20.8328 129.732 21.5332 129.159 22.8261C129.159 22.8261 127.951 25.6092 126.386 29.2103C124.821 32.8114 122.898 37.2258 121.47 40.4884C121.47 40.4884 119.386 45.6362 117.899 47.686C116.407 49.7404 114.915 50.69 112.955 50.69C110.995 50.69 108.824 49.7404 108.824 47.3616C108.824 44.9828 111.197 44.884 111.197 44.884C113.671 44.884 113.832 47.78 115.292 47.78C115.397 47.78 115.508 47.7565 115.618 47.7142C116.233 47.4744 116.963 46.6235 117.591 45.5046C118.454 43.972 119.143 41.9411 119.143 40.3098C119.152 39.1345 118.913 37.9592 118.418 36.8685L112.102 23C111.418 21.4768 110.968 20.7528 109.683 20.3297C109.357 20.2216 109.132 19.916 109.132 19.5634V19.5258C109.132 19.0839 109.481 18.7219 109.917 18.7219H118.941C119.372 18.7219 119.726 19.0839 119.726 19.5258V19.5446C119.726 19.9301 119.455 20.2592 119.083 20.3344C116.696 20.8046 116.871 21.6273 117.27 22.6098L122.397 34.297L127.35 22.5628C127.901 21.2277 127.589 20.6729 125.344 20.3203C124.963 20.2592 124.679 19.9207 124.679 19.5258C124.679 19.0839 125.028 18.7219 125.464 18.7219H131.22C131.651 18.7219 132 19.0839 132 19.5258V19.5211Z" fill="white"/>
</svg>