<svg width="98" height="97" viewBox="0 0 98 97" fill="none" xmlns="http://www.w3.org/2000/svg">
<path d="M49 97C75.7858 97 97.5 75.2858 97.5 48.5C97.5 21.7142 75.7858 0 49 0C22.2142 0 0.5 21.7142 0.5 48.5C0.5 75.2858 22.2142 97 49 97Z" fill="#C5E9FF"/>
<path d="M19.5325 24.683C19.6163 24.2045 20.0318 23.8555 20.5175 23.8555H78.6797C79.1655 23.8555 79.581 24.2045 79.6647 24.683L85.3818 57.3406H13.8154L19.5325 24.683Z" fill="white"/>
<path d="M21.1353 26.9606C21.2108 26.4731 21.6304 26.1135 22.1236 26.1135H77.0729C77.5661 26.1135 77.9856 26.4731 78.0611 26.9606L82.2357 53.9296C82.3295 54.5356 81.8608 55.0826 81.2475 55.0826H17.9489C17.3357 55.0826 16.8669 54.5356 16.9607 53.9296L21.1353 26.9606Z" fill="#4255FF"/>
<path d="M21.1818 26.9537C21.2583 26.4674 21.6774 26.1091 22.1696 26.1091L67.1547 26.1093C67.6538 26.1093 68.0765 26.4773 68.1451 26.9717L70.9748 47.3435C71.058 47.9424 70.5948 48.4775 69.9902 48.4811L18.9229 48.7817C18.3063 48.7854 17.8333 48.2355 17.9292 47.6263L21.1818 26.9537Z" fill="#009EFF"/>
<path d="M21.1738 26.9509C21.2516 26.466 21.67 26.1093 22.1612 26.1093L57.1212 26.1094C57.6424 26.1094 58.0762 26.5097 58.118 27.0292L59.1304 39.6103C59.1769 40.1884 58.7235 40.6847 58.1436 40.6904L20.0932 41.0692C19.4737 41.0754 18.9977 40.5226 19.0958 39.911L21.1738 26.9509Z" fill="#73C9FF"/>
<rect x="30.5518" y="58.5784" width="1" height="11.0385" transform="rotate(30 30.5518 58.5784)" fill="#A6A6A6"/>
<rect x="23.6279" y="59.2462" width="2.5" height="9.01192" fill="#BCBCBC"/>
<path d="M21.8154 69.2581C21.8154 68.7058 22.2631 68.2581 22.8154 68.2581H26.9409C27.4932 68.2581 27.9409 68.7058 27.9409 69.2581V70.6395H21.8154V69.2581Z" fill="#BCBCBC"/>
<rect width="1" height="11.0385" transform="matrix(-0.866025 0.5 0.5 0.866025 68.6455 58.5784)" fill="#A6A6A6"/>
<rect width="2.5" height="9.01192" transform="matrix(-1 0 0 1 75.5693 59.2462)" fill="#BCBCBC"/>
<path d="M77.3818 69.2581C77.3818 68.7058 76.9341 68.2581 76.3818 68.2581H72.2563C71.704 68.2581 71.2563 68.7058 71.2563 69.2581V70.6395H77.3818V69.2581Z" fill="#BCBCBC"/>
<path d="M21.1374 26.9575C21.2142 26.4715 21.6331 26.1135 22.1251 26.1135H48.1263C48.6963 26.1135 49.151 26.5891 49.1253 27.1585L48.9085 31.977C48.8847 32.5074 48.4505 32.9266 47.9196 32.932L21.3317 33.1992C20.7132 33.2054 20.2374 32.6542 20.3339 32.0432L21.1374 26.9575Z" fill="#C5E9FF"/>
<path d="M13.8154 57.3406H85.3818L83.3329 59.5039C83.144 59.7033 82.8815 59.8163 82.6068 59.8163H16.5904C16.3158 59.8163 16.0532 59.7033 15.8644 59.5039L13.8154 57.3406Z" fill="#EEEEEE"/>
<path d="M49 25.7493V55.4468" stroke="white" stroke-width="1.5"/>
<path d="M40.0752 25.1135L38.0752 55.811" stroke="white" stroke-width="1.5"/>
<path d="M30.1504 25.1135L26.1504 55.811" stroke="white" stroke-width="1.5"/>
<path d="M57.9248 25.1135L59.9248 55.811" stroke="white" stroke-width="1.5"/>
<path d="M67.8496 25.1135L71.8496 55.811" stroke="white" stroke-width="1.5"/>
<path d="M17.333 40.6309L80.6667 40.6309" stroke="white" stroke-width="1.5"/>
<path d="M19.3301 32.9438L79.8452 32.9438" stroke="white" stroke-width="1.5"/>
<path d="M17.333 48.3177L82.7239 48.3177" stroke="white" stroke-width="1.5"/>
</svg>
