<svg width="24" height="25" viewBox="0 0 24 25" fill="none" xmlns="http://www.w3.org/2000/svg">
<path d="M12 24.8315C5.3724 24.8315 0 19.4591 0 12.8315C0 6.20394 5.3724 0.831543 12 0.831543C18.6276 0.831543 24 6.20394 24 12.8315C24 19.4591 18.6276 24.8315 12 24.8315ZM7.8 15.2315V17.6315H10.8V20.0315H13.2V17.6315H14.4C15.1957 17.6315 15.9587 17.3155 16.5213 16.7529C17.0839 16.1903 17.4 15.4272 17.4 14.6315C17.4 13.8359 17.0839 13.0728 16.5213 12.5102C15.9587 11.9476 15.1957 11.6315 14.4 11.6315H9.6C9.44087 11.6315 9.28826 11.5683 9.17574 11.4558C9.06321 11.3433 9 11.1907 9 11.0315C9 10.8724 9.06321 10.7198 9.17574 10.6073C9.28826 10.4948 9.44087 10.4315 9.6 10.4315H16.2V8.03154H13.2V5.63154H10.8V8.03154H9.6C8.80435 8.03154 8.04129 8.34761 7.47868 8.91022C6.91607 9.47283 6.6 10.2359 6.6 11.0315C6.6 11.8272 6.91607 12.5903 7.47868 13.1529C8.04129 13.7155 8.80435 14.0315 9.6 14.0315H14.4C14.5591 14.0315 14.7117 14.0948 14.8243 14.2073C14.9368 14.3198 15 14.4724 15 14.6315C15 14.7907 14.9368 14.9433 14.8243 15.0558C14.7117 15.1683 14.5591 15.2315 14.4 15.2315H7.8Z" fill="#09121F"/>
</svg>
