<svg width="24" height="25" viewBox="0 0 24 25" fill="none" xmlns="http://www.w3.org/2000/svg">
<path d="M1.26316 0.763672H21.4737C21.8087 0.763672 22.13 0.896754 22.3669 1.13364C22.6038 1.37053 22.7368 1.69182 22.7368 2.02683V8.34262C22.7368 8.67763 22.6038 8.99892 22.3669 9.23581C22.13 9.47269 21.8087 9.60578 21.4737 9.60578H1.26316C0.928148 9.60578 0.606858 9.47269 0.36997 9.23581C0.133082 8.99892 0 8.67763 0 8.34262V2.02683C0 1.69182 0.133082 1.37053 0.36997 1.13364C0.606858 0.896754 0.928148 0.763672 1.26316 0.763672ZM3.78947 12.1321H11.3684C11.7034 12.1321 12.0247 12.2652 12.2616 12.5021C12.4985 12.739 12.6316 13.0602 12.6316 13.3953V17.1847H13.8947V24.7637H8.8421V17.1847H10.1053V14.6584H2.52632C2.19131 14.6584 1.87002 14.5253 1.63313 14.2884C1.39624 14.0515 1.26316 13.7303 1.26316 13.3953V10.8689H3.78947V12.1321ZM18.6088 14.3199L20.8421 12.0866L23.0754 14.3199C23.5169 14.7616 23.8176 15.3242 23.9394 15.9368C24.0612 16.5493 23.9986 17.1842 23.7595 17.7612C23.5205 18.3382 23.1157 18.8313 22.5965 19.1783C22.0772 19.5253 21.4666 19.7105 20.8421 19.7105C20.2176 19.7105 19.6071 19.5253 19.0878 19.1783C18.5685 18.8313 18.1637 18.3382 17.9247 17.7612C17.6856 17.1842 17.623 16.5493 17.7448 15.9368C17.8666 15.3242 18.1673 14.7616 18.6088 14.3199Z" fill="#09121F"/>
</svg>
