<svg width="180" height="116" viewBox="0 0 180 116" fill="none" xmlns="http://www.w3.org/2000/svg">
<rect y="0.885498" width="180" height="114.943" rx="7.66286" fill="#4C9D8D"/>
<path d="M121.418 88.8808V49.7011C121.418 49.2216 121.105 48.8091 120.674 48.7219L111.422 47.0345V42.7554C111.422 42.2635 111.094 41.8447 110.649 41.7716L103.311 40.6585C102.76 40.5667 102.264 41.0337 102.264 41.6424V88.8824H121.418V88.8808Z" fill="#D3FFF3"/>
<path d="M129.792 73.4739C128.72 73.2293 127.664 73.7806 127.004 74.6271C126.329 75.4929 125.434 76.1433 124.411 76.3879C122.533 76.8383 120.998 78.6923 121.25 81.0473C121.409 82.5382 121.04 84.0525 120.114 85.1708C119.422 86.0075 118.826 87.2151 118.843 88.8789H129.792V73.4739Z" fill="#08494B"/>
<rect width="3.78273" height="3.78273" rx="0.705906" transform="matrix(-1 0 0 1 108.703 44.6304)" fill="#9FDFCE"/>
<rect width="14.0121" height="3.78273" rx="0.705906" transform="matrix(-1 0 0 1 118.933 52.1755)" fill="#9FDFCE"/>
<rect width="14.0121" height="3.78273" rx="0.705906" transform="matrix(-1 0 0 1 118.929 59.7224)" fill="#9FDFCE"/>
<rect width="14.0121" height="3.78273" rx="0.705906" transform="matrix(-1 0 0 1 118.932 67.2703)" fill="#9FDFCE"/>
<rect width="14.0121" height="3.78273" rx="0.705906" transform="matrix(-1 0 0 1 118.93 74.8118)" fill="#9FDFCE"/>
<path d="M99.5631 73.0444C101.354 72.6347 103.1 74.3866 103.136 76.0885C105.375 75.438 107.778 76.9622 108.291 79.372C108.556 80.6275 109.254 81.7303 110.283 82.3779C111.77 83.3147 113.529 85.2061 113.529 88.9125H99.5631V73.0444Z" fill="#08494B"/>
<path d="M140.619 49.5923C140.619 48.9425 140.092 48.4158 139.443 48.4158L127.857 48.4158C127.208 48.4158 126.681 48.9425 126.681 49.5923V88.9169H140.619V49.5923Z" fill="#D3FFF3"/>
<rect width="3.78273" height="3.78273" rx="0.705906" transform="matrix(-1 0 0 1 138.45 67.2668)" fill="#9FDFCE"/>
<rect width="3.78273" height="3.78273" rx="0.705906" transform="matrix(-1 0 0 1 132.637 67.2668)" fill="#9FDFCE"/>
<rect width="3.78273" height="3.78273" rx="0.705906" transform="matrix(-1 0 0 1 138.448 59.5115)" fill="#9FDFCE"/>
<rect width="3.78273" height="3.78273" rx="0.705906" transform="matrix(-1 0 0 1 132.633 59.5115)" fill="#9FDFCE"/>
<rect width="3.78273" height="3.78273" rx="0.705906" transform="matrix(-1 0 0 1 138.45 52.0823)" fill="#9FDFCE"/>
<rect width="3.78273" height="3.78273" rx="0.705906" transform="matrix(-1 0 0 1 132.637 52.082)" fill="#9FDFCE"/>
<rect width="3.78273" height="3.78273" rx="0.705906" transform="matrix(-1 0 0 1 138.446 74.6196)" fill="#9FDFCE"/>
<rect width="3.78273" height="3.78273" rx="0.705906" transform="matrix(-1 0 0 1 132.633 74.6196)" fill="#9FDFCE"/>
<path d="M42.4365 78.4333C41.1607 78.1635 39.9188 79.3165 39.8923 80.4371C38.2985 80.0088 36.5868 81.0124 36.2232 82.5995C36.034 83.4263 35.5376 84.1518 34.8046 84.5785C33.7454 85.1953 32.4936 86.4404 32.4944 88.8801H42.4374V78.4333H42.4365Z" fill="#08494B"/>
<path d="M80.7291 26.9658C80.7291 26.316 81.2559 25.7893 81.9056 25.7893H98.4663C99.1161 25.7893 99.6428 26.316 99.6428 26.9658V88.9493H80.7291V26.9658Z" fill="#D3FFF3"/>
<rect x="84.5133" y="29.5432" width="3.78273" height="3.78273" rx="0.705906" fill="#9FDFCE"/>
<rect x="92.0187" y="29.5427" width="3.78273" height="3.78273" rx="0.705906" fill="#9FDFCE"/>
<rect x="84.5144" y="29.5415" width="3.78273" height="3.78273" rx="0.705906" fill="#9FDFCE"/>
<rect x="92.0194" y="29.5425" width="3.78273" height="3.78273" rx="0.705906" fill="#9FDFCE"/>
<rect x="84.5127" y="37.0862" width="3.78273" height="3.78273" rx="0.705906" fill="#9FDFCE"/>
<rect x="92.0177" y="37.0862" width="3.78273" height="3.78273" rx="0.705906" fill="#9FDFCE"/>
<rect x="84.5103" y="44.6333" width="3.78273" height="3.78273" rx="0.705906" fill="#9FDFCE"/>
<rect x="92.0166" y="44.6326" width="3.78273" height="3.78273" rx="0.705906" fill="#9FDFCE"/>
<rect x="84.512" y="52.1758" width="3.78273" height="3.78273" rx="0.705906" fill="#9FDFCE"/>
<rect x="92.0189" y="52.1758" width="3.78273" height="3.78273" rx="0.705906" fill="#9FDFCE"/>
<rect x="84.51" y="59.7214" width="3.78273" height="3.78273" rx="0.705906" fill="#9FDFCE"/>
<rect x="92.0155" y="59.7214" width="3.78273" height="3.78273" rx="0.705906" fill="#9FDFCE"/>
<rect x="84.5112" y="67.2683" width="3.78273" height="3.78273" rx="0.705906" fill="#9FDFCE"/>
<rect x="92.019" y="67.2668" width="3.78273" height="3.78273" rx="0.705906" fill="#9FDFCE"/>
<rect x="84.512" y="74.8127" width="11.2896" height="3.78273" rx="0.705906" fill="#9FDFCE"/>
<path d="M58.8046 88.8798V42.9323C58.8046 42.4528 59.1174 42.0403 59.5485 41.9531L68.8004 40.2657V35.9866C68.8004 35.4947 69.1287 35.0759 69.5738 35.0028L76.9115 33.8897C77.4625 33.7979 77.9589 34.2649 77.9589 34.8736V88.8813H58.8046V88.8798Z" fill="#D3FFF3"/>
<path d="M53.6328 76.5273C54.4918 76.3311 55.3384 76.7732 55.8675 77.4519C56.4091 78.1462 57.1265 78.6677 57.9467 78.8638C59.4531 79.225 60.6841 80.7116 60.4818 82.5998C60.3542 83.7954 60.6499 85.0096 61.3922 85.9062C61.9478 86.5772 62.4256 87.5454 62.4116 88.8795H53.6328V76.5273Z" fill="#08494B"/>
<rect x="71.6675" y="37.0879" width="3.78273" height="3.78273" rx="0.705906" fill="#9FDFCE"/>
<rect x="61.4398" y="44.6304" width="14.0121" height="3.78273" rx="0.705906" fill="#9FDFCE"/>
<rect x="61.4387" y="52.176" width="14.0121" height="3.78273" rx="0.705906" fill="#9FDFCE"/>
<rect x="61.4381" y="59.7224" width="14.0121" height="3.78273" rx="0.705906" fill="#9FDFCE"/>
<rect x="61.4387" y="67.2693" width="14.0121" height="3.78273" rx="0.705906" fill="#9FDFCE"/>
<rect x="61.4387" y="74.8118" width="14.0121" height="3.78273" rx="0.705906" fill="#9FDFCE"/>
<path d="M80.6583 73.0459C78.8673 72.6362 77.1218 74.388 77.0851 76.09C74.8463 75.4394 72.4431 76.9637 71.9308 79.3734C71.6651 80.6289 70.9677 81.7317 69.9386 82.3793C68.4515 83.3162 66.6928 85.2076 66.6928 88.9139H80.6583V73.0459Z" fill="#08494B"/>
<path d="M39.7491 56.8735C39.7491 56.2238 40.2759 55.697 40.9257 55.697L53.6875 55.697V88.916H39.7491V56.8735Z" fill="#D3FFF3"/>
<rect x="41.9216" y="67.2664" width="3.78273" height="3.78273" rx="0.705906" fill="#9FDFCE"/>
<rect x="47.7369" y="67.2664" width="3.78273" height="3.78273" rx="0.705906" fill="#9FDFCE"/>
<rect x="41.9222" y="59.5137" width="3.78273" height="3.78273" rx="0.705906" fill="#9FDFCE"/>
<rect x="47.7363" y="59.5132" width="3.78273" height="3.78273" rx="0.705906" fill="#9FDFCE"/>
<rect x="41.9207" y="74.6177" width="3.78273" height="3.78273" rx="0.705906" fill="#9FDFCE"/>
<rect x="47.7346" y="74.6179" width="3.78273" height="3.78273" rx="0.705906" fill="#9FDFCE"/>
<path d="M87.3075 85.1971C87.3075 83.6239 88.5828 82.3486 90.156 82.3486C91.7291 82.3486 93.0045 83.6239 93.0045 85.1971V88.9502H87.3075V85.1971Z" fill="#9FDFCE"/>
<path d="M33.1888 88.8783C33.2704 88.2252 33.4771 87.586 33.8166 87.0143C34.5581 85.7662 35.749 85.1549 36.9191 85.2688C37.6 85.3362 38.0945 85.4071 38.6729 84.9585C39.2665 84.5007 39.8244 84.313 40.5773 84.313C41.7189 84.313 42.7449 84.9243 43.4504 85.8934C43.8809 86.4861 44.8026 86.4797 45.4398 86.6168C46.3292 86.8097 47.1352 87.4954 47.5695 88.5599C47.6112 88.6621 47.6491 88.7667 47.6833 88.8736H33.1907L33.1888 88.8783Z" fill="#08494B"/>
<path d="M56.3648 37.4332C56.8526 36.5882 58.0723 36.5882 58.5601 37.4332L69.6703 56.6766C70.1582 57.5216 69.5484 58.5779 68.5726 58.5779H46.3523C45.3765 58.5779 44.7667 57.5216 45.2546 56.6766L56.3648 37.4332Z" fill="#F3BE00"/>
<path d="M56.9125 40.8293C57.1564 40.4068 57.7663 40.4068 58.0102 40.8293L66.4543 55.455C66.6983 55.8775 66.3934 56.4056 65.9055 56.4056H49.0172C48.5293 56.4056 48.2244 55.8775 48.4683 55.455L56.9125 40.8293Z" fill="#FFDC5C"/>
<path d="M58.268 52.3812H56.6817L56.4279 48.4313V44.5766H58.5219V48.4313L58.268 52.3812ZM58.5219 55.6807H56.4279V53.4916H58.5219V55.6807Z" fill="#0D4F43"/>
<path d="M123.256 68.4523C123.614 67.831 124.511 67.831 124.87 68.4523L133.038 82.6005C133.397 83.2218 132.949 83.9984 132.231 83.9984H115.894C115.177 83.9984 114.728 83.2218 115.087 82.6005L123.256 68.4523Z" fill="#F3BE00"/>
<path d="M123.659 70.9509C123.839 70.6402 124.287 70.6402 124.466 70.9509L130.675 81.7041C130.854 82.0147 130.63 82.403 130.271 82.403H117.854C117.496 82.403 117.272 82.0147 117.451 81.7041L123.659 70.9509Z" fill="#FFDC5C"/>
<path d="M124.655 79.0902H123.489L123.302 76.1862V73.3521H124.842V76.1862L124.655 79.0902ZM124.842 81.5161H123.302V79.9066H124.842V81.5161Z" fill="#0D4F43"/>
<path d="M147.685 88.8817C147.685 88.8817 148.183 86.4955 145.813 85.0119C143.443 83.5283 144.605 80.0811 140.52 80.0811V88.8817H147.685H147.685Z" fill="#08494B"/>
<path d="M140.824 83.9233C140.824 83.9233 137.701 83.2421 136.444 85.3154C136.444 85.3154 134.702 85.1751 133.731 86.6183C132.759 88.0615 131.495 87.1757 131.107 88.8818L140.824 88.8818V83.9245V83.9233Z" fill="#08494B"/>
</svg>
