<svg width="560" height="382" viewBox="0 0 560 382" fill="none" xmlns="http://www.w3.org/2000/svg">
<g clip-path="url(#clip0_2813_6234)">
<rect width="560" height="382" fill="#C5E9FF"/>
<path d="M180.742 52.8665H103.488L103.488 20.3097C121.483 3.06718 140.002 20.8333 140.002 20.8333C140.517 20.7804 143.658 20.3097 144.151 20.3097C150.491 20.3097 156.183 24.3431 160.09 30.7413C162.48 34.6578 165.779 37.0561 169.321 37.9586C174.252 39.2315 178.729 43.7635 181.142 50.7941C181.253 51.1145 181.358 51.4404 181.458 51.7635C181.623 52.3039 181.258 52.8665 180.745 52.8665H180.742Z" fill="white"/>
<rect y="222" width="560" height="66" fill="#ECE9E3"/>
<path d="M559.996 123.41L539.879 123.41V103.636H507.678V85.015L435.629 74.3243V56.6851H385.084V14.4282H332.377V47.019H287.399V80.1885H244.582V45.4026L192.585 34.6201V52.0659H104.963V0H52.9706V17.4458H0.263794V166.022L559.996 166.021V123.41Z" fill="#4C9D8D"/>
<rect y="159" width="560" height="45" fill="#919191"/>
<rect y="288" width="560" height="94" fill="#BFBFBF"/>
<path d="M68.0204 113.334L59.7966 119.055C55.8088 121.829 50.5785 119.108 49.9291 113.922L48.59 103.23C47.9029 97.7459 48.6554 92.1597 50.7578 87.141L50.7645 87.1259C53.4711 80.664 60.3681 77.8679 66.1698 80.8825L72.1145 83.9708C77.9162 86.9854 80.4267 94.667 77.7201 101.129C75.6144 106.156 72.2463 110.396 68.022 113.335L68.0204 113.334Z" fill="#0D4F43"/>
<path d="M25.5923 128.564L35.165 130.285C39.8055 131.119 43.6787 126.352 42.4715 121.291L39.9824 110.858C38.7059 105.506 36.0662 100.682 32.383 96.9645L32.3718 96.9536C27.6275 92.1655 20.2964 92.5688 15.9975 97.8528L11.5936 103.267C7.29467 108.551 7.65671 116.716 12.401 121.504C16.0921 125.228 20.6734 127.682 25.5911 128.566L25.5923 128.564Z" fill="#0D4F43"/>
<path d="M69.4436 139.747L62.1309 142.227C58.5854 143.43 55.1037 140.167 55.5627 136.07L56.5079 127.625C56.9931 123.293 58.5932 119.212 61.1138 115.87L61.1211 115.86C64.3687 111.556 70.1342 111.001 73.9966 114.618L77.9541 118.324C81.8179 121.941 82.3165 128.363 79.0686 132.665C76.5416 136.012 73.1985 138.473 69.4422 139.747L69.4436 139.747Z" fill="#117060"/>
<path d="M39.1915 52.2653L54.6411 184.259" stroke="#0D4F43" stroke-width="1.48317" stroke-miterlimit="10" stroke-linecap="round"/>
<path d="M13.572 100.98C13.572 100.98 41.3056 123.539 49.4395 139.824" stroke="#0D4F43" stroke-width="1.05961" stroke-miterlimit="10"/>
<path d="M75.3823 116.226C75.3823 116.226 55.5191 138.568 51.4071 156.632" stroke="#0D4F43" stroke-width="1.05961" stroke-miterlimit="10"/>
<path d="M35.0936 158.945L42.2991 160.282C45.7927 160.93 48.7271 157.356 47.835 153.539L45.9964 145.668C45.0533 141.632 43.0816 137.985 40.3193 135.169L40.3113 135.16C36.7532 131.533 31.2302 131.806 27.9736 135.768L24.6381 139.827C21.3817 143.79 21.6268 149.942 25.1836 153.569C27.9521 156.391 31.3947 158.257 35.0964 158.945L35.0936 158.945Z" fill="#117060"/>
<path d="M26.6603 137.763C26.6603 137.763 47.0409 153.303 53.0512 170.695" stroke="#0D4F43" stroke-width="1.05961" stroke-miterlimit="10"/>
<path d="M61.8628 74.9808L54.5501 77.461C51.0046 78.6638 47.5229 75.4005 47.9819 71.3037L48.9271 62.859C49.4123 58.5269 51.0124 54.4455 53.533 51.1041L53.5403 51.0936C56.7879 46.7902 62.5534 46.2349 66.4158 49.8522L70.3733 53.5581C74.2371 57.1752 74.7357 63.5968 71.4878 67.8986C68.9608 71.2456 65.6177 73.7067 61.8614 74.981L61.8628 74.9808Z" fill="#117060"/>
<path d="M67.8016 51.46C67.8016 51.46 47.9384 73.8023 43.8264 91.866" stroke="#0D4F43" stroke-width="1.05961" stroke-miterlimit="10"/>
<path d="M68.9599 83.5727C68.9599 83.5727 53.286 113.702 48.8144 134.49" stroke="#0D4F43" stroke-width="1.05961" stroke-miterlimit="10"/>
<path d="M31.0013 58.2502L36.0756 64.9881C38.5357 68.2549 43.2004 67.6169 44.8774 63.7825L48.3328 55.8801C50.1058 51.827 50.7874 47.2886 50.2947 42.8136L50.293 42.7997C49.6595 37.0369 44.9518 32.9362 39.7778 33.6418L34.477 34.3642C29.303 35.0698 25.6211 40.3131 26.2547 46.0759C26.747 50.5604 28.3968 54.7886 31.0027 58.25L31.0013 58.2502Z" fill="#0D4F43"/>
<path d="M40.0767 81.4724L41.2337 92.5527C41.7946 97.9245 37.2018 102.159 32.5685 100.541L23.0158 97.2035C18.1171 95.492 13.7673 92.2382 10.4914 87.8352L10.4812 87.8209C6.26249 82.1489 6.97037 73.7418 12.0615 69.0432L17.2777 64.2289C22.3703 59.5302 29.9186 60.3186 34.1371 65.9891C37.4197 70.4006 39.4825 75.7795 40.0766 81.4709L40.0767 81.4724Z" fill="#117060"/>
<path d="M14.9053 66.4203C14.9053 66.4203 38.6026 94.1031 46.2001 112.146" stroke="#0D4F43" stroke-width="1.05961" stroke-miterlimit="10"/>
<path d="M502.137 93.4267C505.602 96.1806 506.313 103.542 506.313 103.542C506.313 103.542 499.832 105.19 496.367 102.436C494.134 100.662 493.614 97.2068 495.208 94.7177C496.801 92.2305 499.903 91.6507 502.138 93.4267H502.137Z" fill="#117060"/>
<path d="M510.892 90.8178C509.124 95.1294 511.807 101.905 511.807 101.905C511.807 101.905 518.161 99.7308 519.931 95.4173C521.071 92.6383 519.972 89.3549 517.475 88.0852C514.98 86.8155 512.032 88.0388 510.892 90.8197V90.8178Z" fill="#117060"/>
<path d="M515.478 92.9553L509.95 106.425L499.123 97.8273" stroke="#0D4F43" stroke-width="1.27419" stroke-miterlimit="10" stroke-linecap="round"/>
<path d="M509.639 85.5826C510.841 89.7898 507.682 95.7189 507.682 95.7189C507.682 95.7189 502.023 92.9167 500.821 88.7095C500.045 85.9981 501.39 83.0992 503.826 82.2354C506.261 81.3715 508.863 82.8692 509.639 85.5826Z" fill="#117060"/>
<path d="M500.614 105.824C504.662 107.289 507.329 114.071 507.329 114.071C507.329 114.071 501.594 117.814 497.544 116.351C494.935 115.408 493.505 112.287 494.354 109.378C495.2 106.472 498.003 104.879 500.614 105.824Z" fill="#117060"/>
<path d="M517.212 101.258C514.242 104.653 514.717 112.038 514.717 112.038C514.717 112.038 521.358 112.376 524.328 108.982C526.244 106.795 526.202 103.291 524.238 101.157C522.274 99.0239 519.128 99.0703 517.212 101.258Z" fill="#117060"/>
<path d="M520.882 104.992L511.576 115.601L498.927 111.031" stroke="#0D4F43" stroke-width="1.27419" stroke-miterlimit="10" stroke-linecap="round"/>
<path d="M503.852 118.236C507.492 119.598 509.842 125.746 509.842 125.746C509.842 125.746 504.636 129.064 500.994 127.701C498.646 126.822 497.385 123.991 498.173 121.378C498.96 118.765 501.504 117.358 503.85 118.236H503.852Z" fill="#117060"/>
<path d="M518.866 114.287C516.158 117.32 516.524 123.989 516.524 123.989C516.524 123.989 522.513 124.364 525.222 121.332C526.968 119.376 526.961 116.216 525.206 114.27C523.45 112.326 520.613 112.334 518.866 114.287Z" fill="#117060"/>
<path d="M522.145 117.696L513.661 127.172L502.287 122.916" stroke="#0D4F43" stroke-width="1.27419" stroke-miterlimit="10" stroke-linecap="round"/>
<path d="M506.56 129.494C509.754 130.737 511.766 136.177 511.766 136.177C511.766 136.177 507.15 139.039 503.956 137.797C501.898 136.997 500.812 134.488 501.53 132.194C502.248 129.902 504.5 128.692 506.56 129.492V129.494Z" fill="#117060"/>
<path d="M519.821 126.192C517.407 128.832 517.667 134.709 517.667 134.709C517.667 134.709 522.939 135.109 525.352 132.469C526.909 130.768 526.931 127.983 525.404 126.25C523.877 124.516 521.377 124.491 519.821 126.192Z" fill="#117060"/>
<path d="M522.677 129.23L515.117 137.478L505.138 133.6" stroke="#0D4F43" stroke-width="1.27419" stroke-miterlimit="10" stroke-linecap="round"/>
<path d="M505 87C519.845 146.024 517.918 186 517.918 186" stroke="#0D4F43" stroke-width="1.27419" stroke-miterlimit="10" stroke-linecap="round"/>
<path d="M550.225 123.686C546.886 125.062 544.865 130.826 544.865 130.826C544.865 130.826 549.77 133.739 553.107 132.363C555.258 131.476 556.358 128.815 555.562 126.418C554.765 124.022 552.376 122.797 550.225 123.684V123.686Z" fill="#117060"/>
<path d="M543.672 119.443C544.25 123.355 540.752 128.165 540.752 128.165C540.752 128.165 536.053 124.858 535.475 120.947C535.102 118.425 536.636 116.046 538.899 115.63C541.163 115.215 543.299 116.923 543.672 119.443Z" fill="#117060"/>
<path d="M539.552 120.048L541.362 132.266L551.79 127.972" stroke="#0D4F43" stroke-width="1.27419" stroke-miterlimit="10" stroke-linecap="round"/>
<path d="M545.714 115.524C543.914 118.626 545.297 124.182 545.297 124.182C545.297 124.182 550.414 123.302 552.212 120.202C553.371 118.204 552.857 115.535 551.062 114.244C549.266 112.953 546.871 113.525 545.712 115.526L545.714 115.524Z" fill="#117060"/>
<path d="M549.011 134.06C545.456 134.253 541.97 139.073 541.97 139.073C541.97 139.073 545.86 143.495 549.416 143.301C551.708 143.178 553.474 141.007 553.363 138.454C553.252 135.901 551.303 133.934 549.011 134.058V134.06Z" fill="#117060"/>
<path d="M536.518 126.322C538.246 129.787 536.41 135.629 536.41 135.629C536.41 135.629 530.986 134.282 529.256 130.817C528.142 128.583 528.864 125.767 530.87 124.524C532.876 123.282 535.404 124.088 536.52 126.322H536.518Z" fill="#117060"/>
<path d="M532.822 128.44L538.242 139.272L549.347 138.673" stroke="#0D4F43" stroke-width="1.27419" stroke-miterlimit="10" stroke-linecap="round"/>
<path d="M543.957 143.284C540.75 143.494 537.646 147.881 537.646 147.881C537.646 147.881 541.192 151.829 544.399 151.619C546.466 151.484 548.041 149.507 547.92 147.205C547.798 144.903 546.023 143.148 543.957 143.284Z" fill="#117060"/>
<path d="M532.619 136.433C534.209 139.54 532.6 144.832 532.6 144.832C532.6 144.832 527.695 143.672 526.106 140.563C525.082 138.559 525.71 136.01 527.508 134.869C529.307 133.729 531.596 134.429 532.619 136.431V136.433Z" fill="#117060"/>
<path d="M529.302 138.38L534.283 148.099L544.299 147.442" stroke="#0D4F43" stroke-width="1.27419" stroke-miterlimit="10" stroke-linecap="round"/>
<path d="M548.817 117.963C527.31 155.346 524.323 185.749 524.323 185.749" stroke="#0D4F43" stroke-width="1.27419" stroke-miterlimit="10" stroke-linecap="round"/>
<path d="M492.152 150.264C495.596 151.261 498.126 156.773 498.126 156.773C498.126 156.773 493.507 160.216 490.063 159.219C487.842 158.578 486.509 156.052 487.087 153.578C487.663 151.104 489.931 149.62 492.152 150.264Z" fill="#117060"/>
<path d="M498.29 145.313C498.066 149.269 501.979 153.665 501.979 153.665C501.979 153.665 506.359 149.852 506.583 145.896C506.727 143.345 504.988 141.148 502.699 140.988C500.409 140.827 498.436 142.764 498.292 145.313H498.29Z" fill="#117060"/>
<path d="M502.445 145.456L501.74 157.814L490.979 154.705" stroke="#0D4F43" stroke-width="1.27419" stroke-miterlimit="10" stroke-linecap="round"/>
<path d="M495.48 141.591C497.715 144.318 497.177 150.052 497.177 150.052C497.177 150.052 492.001 150.129 489.766 147.402C488.326 145.645 488.437 142.918 490.014 141.314C491.592 139.71 494.04 139.834 495.48 141.591Z" fill="#117060"/>
<path d="M494.763 160.139C497.975 160.081 501.367 164.194 501.367 164.194C501.367 164.194 498.097 168.43 494.887 168.488C492.816 168.527 491.111 166.689 491.078 164.383C491.045 162.078 492.693 160.178 494.763 160.141V160.139Z" fill="#117060"/>
<path d="M505.605 152.355C504.23 155.588 506.193 160.729 506.193 160.729C506.193 160.729 511.006 159.159 512.38 155.928C513.265 153.845 512.467 151.356 510.597 150.368C508.726 149.383 506.491 150.272 505.605 152.355Z" fill="#117060"/>
<path d="M509.046 154.019L504.736 164.129L494.705 164.316" stroke="#0D4F43" stroke-width="1.27419" stroke-miterlimit="10" stroke-linecap="round"/>
<path d="M493.13 144.779C505.755 159.136 511.776 185.748 511.776 185.748" stroke="#0D4F43" stroke-width="1.27419" stroke-miterlimit="10" stroke-linecap="round"/>
<path d="M136.148 157.01C137.29 157.01 138.216 155.979 138.216 154.707C138.216 153.435 137.29 152.403 136.148 152.403C135.005 152.403 134.079 153.435 134.079 154.707C134.079 155.979 135.005 157.01 136.148 157.01Z" fill="#FF623B"/>
<path d="M143.586 159.492C139.565 164.125 140.174 173.289 140.174 173.289" stroke="#08494B" stroke-width="0.875815" stroke-miterlimit="10"/>
<path d="M143.324 159.925C142.445 159.285 142.197 157.971 142.772 156.991L145.958 159.309C145.384 160.289 144.204 160.564 143.324 159.925Z" fill="#08494B"/>
<path d="M137.08 156.478C140.479 164.125 140.175 172.61 140.175 172.61" stroke="#08494B" stroke-width="0.875815" stroke-miterlimit="10"/>
<path d="M144.214 142.771C144.966 143.319 145.282 144.33 145.054 145.246C145.716 144.646 146.675 144.561 147.428 145.109C148.18 145.658 148.495 146.669 148.268 147.585C148.93 146.985 149.889 146.9 150.641 147.448C151.394 147.997 151.709 149.008 151.482 149.923C152.144 149.324 153.103 149.239 153.855 149.787C154.608 150.335 154.923 151.347 154.696 152.262C155.358 151.663 156.316 151.578 157.069 152.126C158.002 152.804 158.264 154.195 157.655 155.234C154.726 160.226 148.719 161.63 144.235 158.368C139.752 155.106 138.492 148.415 141.421 143.421C142.03 142.383 143.28 142.091 144.212 142.769L144.214 142.771Z" fill="#FF623B"/>
<path d="M147.509 145.175C147.518 145.183 147.528 145.191 147.538 145.199C147.524 145.211 147.51 145.221 147.496 145.233C147.5 145.215 147.504 145.194 147.509 145.175Z" fill="#C42700"/>
<path d="M144.324 142.86C144.31 142.873 144.296 142.882 144.282 142.895C144.286 142.876 144.29 142.855 144.294 142.837C144.304 142.845 144.314 142.852 144.324 142.86Z" fill="#C42700"/>
<path d="M150.722 147.514C150.732 147.522 150.742 147.53 150.752 147.538C150.738 147.55 150.723 147.56 150.709 147.572C150.714 147.554 150.718 147.533 150.722 147.514Z" fill="#C42700"/>
<path d="M143.463 156.018C147.946 159.28 153.954 157.878 156.883 152.884C157.011 152.666 157.098 152.432 157.15 152.193C158.015 152.892 158.246 154.229 157.654 155.236C154.725 160.228 148.718 161.632 144.234 158.37C142.077 156.799 140.668 154.433 140.112 151.846C140.855 153.487 141.982 154.941 143.463 156.018Z" fill="#C42700"/>
<path d="M153.936 149.853C153.946 149.861 153.956 149.869 153.966 149.877C153.952 149.889 153.938 149.899 153.924 149.911C153.928 149.892 153.932 149.872 153.936 149.853Z" fill="#C42700"/>
<path d="M134.356 155.858C134.927 156.961 136.193 157.338 137.183 156.701C138.173 156.065 138.511 154.656 137.94 153.553L134.356 155.856V155.858Z" fill="#08494B"/>
<path d="M410.337 175.682C411.809 179.583 409.48 185.03 409.48 185.03" stroke="#08494B" stroke-width="0.575063" stroke-miterlimit="10"/>
<path d="M405.538 169.628C405.27 169.679 405.019 169.451 405.008 169.146C404.937 166.982 406.321 165.042 408.291 164.677C410.261 164.312 412.132 165.646 412.697 167.717C412.775 168.01 412.606 168.314 412.335 168.364L405.538 169.628Z" fill="#FFDC5C"/>
<path d="M410.406 176.014C411.081 175.856 411.513 175.118 411.37 174.367L408.926 174.94C409.068 175.691 409.732 176.173 410.406 176.014Z" fill="#08494B"/>
<path d="M413.524 165.282C412.946 165.418 412.537 165.953 412.481 166.574C412.204 166.031 411.635 165.726 411.058 165.862C410.48 165.998 410.071 166.534 410.015 167.154C409.737 166.612 409.169 166.306 408.591 166.442C408.013 166.578 407.605 167.114 407.548 167.734C407.271 167.192 406.703 166.886 406.125 167.022C405.547 167.158 405.138 167.694 405.082 168.315C404.805 167.772 404.236 167.466 403.659 167.603C402.943 167.771 402.486 168.553 402.636 169.35C403.363 173.181 406.74 175.631 410.181 174.822C413.621 174.013 415.82 170.251 415.094 166.419C414.943 165.622 414.241 165.113 413.525 165.281L413.524 165.282Z" fill="#FF623B"/>
<path d="M410.994 165.881C410.986 165.883 410.979 165.885 410.971 165.887C410.977 165.899 410.984 165.908 410.99 165.92C410.991 165.907 410.993 165.893 410.994 165.881Z" fill="#C42700"/>
<path d="M413.438 165.307C413.444 165.319 413.451 165.328 413.457 165.34C413.458 165.327 413.46 165.313 413.461 165.301C413.453 165.303 413.445 165.305 413.438 165.307Z" fill="#C42700"/>
<path d="M408.528 166.461C408.52 166.463 408.512 166.465 408.504 166.467C408.511 166.479 408.517 166.489 408.524 166.5C408.525 166.487 408.527 166.474 408.528 166.461Z" fill="#C42700"/>
<path d="M411.168 173.608C407.733 174.376 404.336 171.916 403.58 168.112C403.547 167.946 403.541 167.781 403.559 167.622C402.882 167.813 402.462 168.559 402.615 169.326C403.372 173.129 406.769 175.59 410.203 174.822C411.857 174.452 413.216 173.4 414.097 171.986C413.299 172.778 412.303 173.355 411.168 173.608Z" fill="#C42700"/>
<path d="M406.062 167.041C406.054 167.043 406.046 167.045 406.038 167.047C406.044 167.059 406.051 167.069 406.057 167.08C406.059 167.067 406.06 167.054 406.062 167.041Z" fill="#C42700"/>
<path d="M88.2827 143.902C88.1053 144.009 87.8812 143.915 87.8089 143.704C87.3 142.207 87.8579 140.483 89.1603 139.709C90.4627 138.934 92.0569 139.376 92.8925 140.678C93.0092 140.863 92.9555 141.12 92.7757 141.227L88.2827 143.902Z" fill="#FFDC5C"/>
<path d="M109.45 143.92C109.287 143.655 109.371 143.291 109.627 143.145C111.45 142.113 113.724 142.724 114.907 144.656C116.09 146.587 115.775 149.166 114.249 150.684C114.034 150.897 113.698 150.851 113.537 150.585L109.45 143.92Z" fill="#FFDC5C"/>
<path d="M92.7109 146.977C92.7109 146.977 96.5318 155.759 97.0079 169.83" stroke="#0D4F43" stroke-width="1.20365" stroke-miterlimit="10" stroke-linecap="round"/>
<path d="M89.9988 157.084C89.9988 157.084 94.9773 160.867 96.5435 169.83" stroke="#0D4F43" stroke-width="1.20365" stroke-miterlimit="10" stroke-linecap="round"/>
<path d="M101.288 137.285C101.288 137.285 96.8417 153.816 97.7077 169.827" stroke="#0D4F43" stroke-width="1.20365" stroke-miterlimit="10" stroke-linecap="round"/>
<path d="M106.745 150.913C106.745 150.913 99.8646 157.604 98.0114 169.83" stroke="#0D4F43" stroke-width="1.20365" stroke-miterlimit="10" stroke-linecap="round"/>
<path d="M94.4856 138.497C94.8473 138.281 95.2978 138.468 95.4425 138.895C96.4719 141.926 95.3445 145.409 92.7093 146.977C90.0742 148.545 86.8485 147.65 85.1586 145.014C84.9206 144.643 85.0326 144.123 85.3944 143.907L94.4856 138.497Z" fill="#FF623B"/>
<path d="M116.854 151.955C117.158 152.442 117.02 153.125 116.546 153.398C113.253 155.296 109.126 154.228 106.948 150.747C104.771 147.266 105.3 142.584 108.038 139.8C108.43 139.399 109.056 139.493 109.359 139.979L116.852 151.955H116.854Z" fill="#FF623B"/>
<path d="M102.918 137.6C105.598 137.6 107.77 135.181 107.77 132.196C107.77 129.211 105.598 126.791 102.918 126.791C100.238 126.791 98.0652 129.211 98.0652 132.196C98.0652 135.181 100.238 137.6 102.918 137.6Z" fill="#FF623B"/>
<path d="M87.3143 158.814C89.0868 158.814 90.5237 157.213 90.5237 155.239C90.5237 153.265 89.0868 151.665 87.3143 151.665C85.5419 151.665 84.105 153.265 84.105 155.239C84.105 157.213 85.5419 158.814 87.3143 158.814Z" fill="#FF623B"/>
<path d="M102.918 135.406C104.51 135.406 105.801 133.969 105.801 132.196C105.801 130.422 104.51 128.985 102.918 128.985C101.326 128.985 100.035 130.422 100.035 132.196C100.035 133.969 101.326 135.406 102.918 135.406Z" fill="#FFDC5C"/>
<path d="M87.3362 157.137C88.2875 157.137 89.0587 156.278 89.0587 155.218C89.0587 154.159 88.2875 153.3 87.3362 153.3C86.3849 153.3 85.6136 154.159 85.6136 155.218C85.6136 156.278 86.3849 157.137 87.3362 157.137Z" fill="#FFDC5C"/>
<path d="M449.686 150.69C449.509 150.796 449.285 150.703 449.212 150.492C448.703 148.995 449.261 147.271 450.564 146.496C451.866 145.722 453.46 146.164 454.296 147.466C454.413 147.651 454.359 147.908 454.179 148.015L449.686 150.69Z" fill="#FFDC5C"/>
<path d="M469.064 154.194C468.927 153.973 468.997 153.669 469.211 153.548C470.731 152.687 472.627 153.197 473.614 154.807C474.6 156.418 474.338 158.568 473.065 159.834C472.886 160.012 472.606 159.973 472.471 159.751L469.064 154.194Z" fill="#FFDC5C"/>
<path d="M454.114 153.765C454.114 153.765 457.935 162.547 458.411 176.618" stroke="#0D4F43" stroke-width="1.20365" stroke-miterlimit="10" stroke-linecap="round"/>
<path d="M462.692 144.073C462.692 144.073 458.245 160.604 459.111 176.616" stroke="#0D4F43" stroke-width="1.20365" stroke-miterlimit="10" stroke-linecap="round"/>
<path d="M466.809 160.024C466.809 160.024 461.071 165.604 459.526 175.798" stroke="#0D4F43" stroke-width="1.00363" stroke-miterlimit="10" stroke-linecap="round"/>
<path d="M455.89 145.285C456.252 145.069 456.703 145.256 456.847 145.682C457.877 148.714 456.749 152.197 454.114 153.765C451.479 155.332 448.253 154.438 446.563 151.802C446.325 151.43 446.437 150.91 446.799 150.694L455.89 145.285Z" fill="#FF623B"/>
<path d="M475.237 160.894C475.49 161.299 475.375 161.869 474.98 162.097C472.234 163.679 468.793 162.788 466.977 159.886C465.161 156.983 465.603 153.08 467.886 150.758C468.213 150.424 468.734 150.502 468.988 150.908L475.235 160.894H475.237Z" fill="#FF623B"/>
<path d="M464.321 144.388C467.001 144.388 469.174 141.969 469.174 138.984C469.174 135.999 467.001 133.579 464.321 133.579C461.641 133.579 459.469 135.999 459.469 138.984C459.469 141.969 461.641 144.388 464.321 144.388Z" fill="#FF623B"/>
<path d="M464.321 142.194C465.913 142.194 467.204 140.757 467.204 138.984C467.204 137.21 465.913 135.773 464.321 135.773C462.729 135.773 461.438 137.21 461.438 138.984C461.438 140.757 462.729 142.194 464.321 142.194Z" fill="#FFDC5C"/>
<path fill-rule="evenodd" clip-rule="evenodd" d="M348.704 217.623C350.682 215.79 352.43 213.725 353.902 211.473C356.912 212.836 360.27 213.597 363.813 213.597C367.308 213.597 370.625 212.856 373.604 211.527C375.225 213.785 377.406 215.842 380.032 217.623H507.04C510.193 216.355 513.014 214.936 515.441 213.394C516.865 214.992 518.529 216.416 520.386 217.623H550.615C556.914 213.527 561 206.934 561 199.5C561 187.073 549.583 177 535.5 177C527.321 177 520.041 180.398 515.374 185.681C505.021 179.128 487.539 174.823 467.717 174.823C450.651 174.823 435.319 178.014 424.778 183.084C419.242 180.733 412.613 179.365 405.49 179.365C398.209 179.365 391.446 180.794 385.838 183.241C382.58 174.522 373.948 168.291 363.813 168.291C358.918 168.291 354.375 169.744 350.617 172.229C344.442 165.489 335.439 161.243 325.415 161.243C310.293 161.243 297.496 170.905 293.221 184.214C283.244 175.245 265.738 169.297 245.809 169.297C224.813 169.297 206.506 175.899 196.86 185.68C192.552 182.356 187.107 180.372 181.188 180.372C175.788 180.372 170.783 182.023 166.675 184.837C162.331 177.362 154.1 172.318 144.662 172.318C138.605 172.318 133.046 174.395 128.692 177.86C119.441 172.599 106.106 169.297 91.2804 169.297C76.6642 169.297 63.4962 172.506 54.2632 177.638C49.2101 175.556 43.5029 174.384 37.4618 174.384C16.7723 174.384 0.00012207 188.132 0.00012207 205.091C0.00012207 209.555 1.16218 213.796 3.25187 217.623H118.244C121.25 216.641 124.041 215.5 126.575 214.222C127.854 215.498 129.274 216.64 130.81 217.623H158.515C158.738 217.481 158.958 217.335 159.175 217.186C159.26 217.333 159.347 217.479 159.435 217.623H294.484C295.895 216.224 297.128 214.759 298.166 213.237C299.35 214.812 300.676 216.28 302.125 217.623H348.704Z" fill="#117060"/>
<g clip-path="url(#clip1_2813_6234)">
<path d="M108.765 254.973C107.429 258.996 103.229 258.488 101.247 262.026C99.268 265.564 101.042 268.523 100.116 271.361C99.188 274.203 94.5555 275.192 92.8646 279.521C90.0456 286.74 93.9261 292.732 97.7852 294.157C101.567 295.806 108.152 294.02 110.432 286.582C111.798 282.124 108.907 278.107 109.939 275.312C110.973 272.514 113.675 273.34 115.131 269.521C116.587 265.702 113.16 262.689 115.739 259.836C118.19 257.124 120.815 252.43 117.148 249.692C113.48 246.954 109.947 251.415 108.763 254.976L108.765 254.973Z" fill="#0D4F43" stroke="#0D4F43" stroke-width="1.33121" stroke-miterlimit="10" stroke-linecap="round"/>
<path d="M94.1163 319.545C94.5991 300.9 103.248 267.961 117.151 249.692" stroke="#117060" stroke-width="1.33121" stroke-miterlimit="10" stroke-linecap="round"/>
<path d="M92.8683 279.521C94.5591 275.191 99.1917 274.202 100.12 271.361C101.048 268.52 99.2717 265.564 101.251 262.026C103.23 258.488 107.433 258.995 108.769 254.973C109.95 251.412 113.487 246.951 117.154 249.689C108.438 261.14 101.789 278.359 97.9195 294.205C97.8769 294.188 97.8315 294.171 97.7889 294.154C93.9297 292.729 90.0493 286.737 92.8683 279.518V279.521Z" fill="#117060" stroke="#117060" stroke-width="1.33121" stroke-miterlimit="10" stroke-linecap="round"/>
<path d="M52.1878 275.257C49.4675 271.315 51.3717 266.891 49.1315 264.583C46.8938 262.275 42.9147 260.337 44.3949 253.216C44.4296 253.267 68.0884 259.89 78.255 297.531C78.255 297.531 69.6379 300.596 64.2293 293.328C60.9862 288.97 62.6584 283.208 60.4288 280.553C58.1966 277.898 54.9055 279.2 52.1878 275.26" fill="#0D4F43"/>
<path d="M44.3983 253.216C44.1583 254.368 44.0622 255.383 44.0782 256.289C50.0256 258.904 66.8463 268.623 75.3247 298.108C77.0796 297.947 78.2557 297.529 78.2557 297.529C68.0918 259.887 44.433 253.267 44.3983 253.216Z" fill="#117060"/>
<path d="M75.4125 230.382C76.666 235.242 81.656 235.033 83.7042 239.379C85.7525 243.725 83.4269 247.048 84.2936 250.48C85.1604 253.912 90.5371 255.503 92.1853 260.756C94.9296 269.517 89.8836 276.218 85.2244 277.542C80.6372 279.133 73.0256 276.424 70.932 267.456C69.6785 262.077 73.4043 257.616 72.4095 254.225C71.4147 250.833 68.1663 251.558 66.7555 246.925C65.3447 242.292 69.6198 239.061 66.8088 235.463C64.1392 232.045 61.4215 226.274 65.9581 223.384C70.4946 220.497 74.3031 226.076 75.4125 230.376V230.382Z" fill="#0D4F43" stroke="#0D4F43" stroke-width="1.33121" stroke-miterlimit="10" stroke-linecap="round"/>
<path d="M45.0063 253.37C59.0934 260.965 67.2757 269.695 73.4258 283.77C79.2425 297.081 81.3734 310.9 81.3734 310.9" stroke="#117060" stroke-width="1.33121" stroke-miterlimit="10" stroke-linecap="round"/>
<path d="M87.5981 312.033C88.2275 285.994 80.8773 246.186 65.9581 223.39" stroke="#117060" stroke-width="1.33121" stroke-miterlimit="10" stroke-linecap="round"/>
<path d="M92.1853 260.759C90.5398 255.504 85.1605 253.913 84.2937 250.484C83.4269 247.052 85.7525 243.732 83.7043 239.382C81.656 235.033 76.6634 235.245 75.4126 230.386C74.3031 226.082 70.4947 220.503 65.9581 223.393C75.3113 237.685 81.7734 258.574 85.0671 277.597C85.1205 277.58 85.1738 277.566 85.2245 277.549C89.8837 276.224 94.9296 269.524 92.1853 260.762V260.759Z" fill="#117060" stroke="#117060" stroke-width="1.33121" stroke-miterlimit="10" stroke-linecap="round"/>
<path d="M111.419 340.669H97.6521L88.7225 335.069C96.784 334.536 113.577 334.189 116.255 337.069C118.934 339.949 114.147 340.669 111.419 340.669Z" fill="#1A1A1A" fill-opacity="0.4"/>
<path d="M97.3201 340.167H75.2908C69.5861 340.167 64.8095 335.52 64.2441 329.416L62.9933 315.906H109.618L108.367 329.416C107.801 335.517 103.025 340.167 97.3201 340.167Z" fill="#FFDC5C" stroke="#FFDC5C" stroke-width="1.06496" stroke-linecap="round" stroke-linejoin="round"/>
<path d="M100.411 315.909C74.1647 319.685 66.1104 320.72 86.6569 320.72C93.0496 320.72 98.0609 322.858 95.3619 332.692C93.5484 339.295 84.2619 339.691 77.3277 340.124C77.7518 340.15 78.1785 340.164 78.6105 340.164H97.3168C103.022 340.164 107.798 335.516 108.363 329.413L109.614 315.903H100.411V315.909Z" fill="#F3BE00" stroke="#F3BE00" stroke-width="1.06496" stroke-linecap="round" stroke-linejoin="round"/>
<path d="M108.962 320.72L109.866 312.033H62.7427L63.5214 320.72H108.962Z" fill="#F3BE00" stroke="#F3BE00" stroke-width="1.06496" stroke-linecap="round" stroke-linejoin="round"/>
<path d="M61.2678 310.903H111.338L111.839 316.959H60.769L61.2678 310.903Z" fill="#FFDC5C" stroke="#FFDC5C" stroke-width="1.06496" stroke-linecap="round" stroke-linejoin="round"/>
</g>
<path d="M155.409 352.728H144.134L136.821 347.976C143.423 347.524 157.177 347.23 159.371 349.673C161.565 352.117 157.644 352.728 155.409 352.728Z" fill="#1A1A1A" fill-opacity="0.4"/>
<path d="M142.909 321.202C139.794 324.215 137.686 327.902 136.733 331.538C140.099 330.995 143.671 329.186 146.787 326.176C149.902 323.163 152.01 319.476 152.963 315.84C149.597 316.383 146.025 318.191 142.909 321.202Z" fill="#117060"/>
<path d="M136.733 331.538C140.099 330.995 143.671 329.186 146.787 326.176C149.902 323.163 152.01 319.476 152.963 315.84L136.733 331.538Z" fill="#0D4F43"/>
<path d="M128.517 321.201C131.633 324.214 133.741 327.902 134.693 331.537C131.327 330.995 127.755 329.186 124.64 326.176C121.524 323.163 119.416 319.476 118.464 315.84C121.83 316.383 125.402 318.191 128.517 321.201Z" fill="#117060"/>
<path d="M134.693 331.537C131.327 330.995 127.755 329.186 124.64 326.176C121.524 323.163 119.416 319.476 118.464 315.84L134.693 331.537Z" fill="#0D4F43"/>
<path d="M132.094 314.568C134.054 320.481 134.632 326.373 133.999 331.292C130.65 328.012 127.65 323.117 125.69 317.204C123.731 311.292 123.153 305.4 123.786 300.48C127.135 303.76 130.135 308.655 132.094 314.568Z" fill="#117060"/>
<path d="M133.999 331.292C130.65 328.012 127.65 323.117 125.69 317.204C123.731 311.292 123.153 305.4 123.786 300.48L133.999 331.292Z" fill="#0D4F43"/>
<path d="M139.334 314.568C137.374 320.481 136.796 326.373 137.429 331.292C140.778 328.012 143.778 323.117 145.738 317.204C147.697 311.292 148.275 305.4 147.642 300.48C144.293 303.76 141.293 308.655 139.334 314.568Z" fill="#117060"/>
<path d="M137.43 331.292C140.779 328.012 143.779 323.117 145.738 317.204C147.698 311.292 148.276 305.4 147.643 300.48L137.43 331.292Z" fill="#0D4F43"/>
<path d="M135.709 295.132C137.831 300.073 139.121 306.578 139.121 313.707C139.121 320.837 137.831 327.339 135.709 332.283V295.132Z" fill="#117060"/>
<path d="M135.709 295.132V332.283C133.587 327.341 132.293 320.837 132.293 313.707C132.293 306.577 133.584 300.076 135.709 295.132Z" fill="#0D4F43"/>
<path d="M128.53 352.7H142.896C147.75 352.7 151.771 348.504 152.082 343.106L152.977 327.706H118.449L119.343 343.106C119.657 348.501 123.678 352.7 128.53 352.7Z" fill="#FF623B"/>
<path d="M152.716 332.236L152.581 334.541L152.088 343.044C151.772 348.464 148.048 352.7 142.816 352.7H132.856C132.702 352.7 132.554 352.694 132.402 352.685C132.273 352.678 132.149 352.669 132.025 352.657C131.918 352.648 131.811 352.633 131.706 352.62C131.72 352.449 131.844 352.314 131.998 352.301L132.356 352.265C136.781 351.832 142.285 352.427 143.383 346.042C144.236 341.067 144.173 338.244 143.177 336.902C142.348 335.786 140.818 335.697 139.054 335.697C138.041 335.697 137.158 335.697 136.379 335.691H118.909L118.713 332.243H152.718L152.716 332.236Z" fill="#C42700"/>
<path d="M119.104 332.282H152.327C153.324 332.282 154.152 331.427 154.232 330.321L154.416 327.706H117.015L117.199 330.321C117.276 331.427 118.107 332.282 119.104 332.282Z" fill="#FF623B"/>
<path d="M449.547 32.4824C450.082 28.6907 451.421 24.9817 453.618 21.6639C458.438 14.4114 466.17 10.8679 473.77 11.5375C478.199 11.9287 482.586 10.6573 486.342 8.06174C490.194 5.39848 494.753 3.8562 499.642 3.8562C507.064 3.8562 513.724 7.39969 518.297 13.0271C521.091 16.4653 524.957 18.5793 529.097 19.3768C534.871 20.4903 540.103 24.4776 542.932 30.6618C543.207 31.2637 543.447 31.8655 543.667 32.4824H449.547Z" fill="white"/>
<path fill-rule="evenodd" clip-rule="evenodd" d="M569.305 217.814C569.758 216.602 570 215.322 570 214C570 206.268 561.717 200 551.5 200C549.312 200 547.214 200.287 545.266 200.815C541.351 197.114 535.766 194.8 529.567 194.8C517.727 194.8 508.128 203.242 508.128 213.656C508.128 215.085 508.309 216.477 508.651 217.814H569.305ZM497.139 217.814C502.234 214.926 505.232 211.388 505.232 207.567C505.232 197.82 485.722 189.919 461.656 189.919C447.727 189.919 435.323 192.566 427.346 196.686C421.365 193.4 413.609 191.416 405.136 191.416C393.339 191.416 382.934 195.261 376.769 201.113C375.066 192.38 367.139 185.775 357.618 185.775C353.544 185.775 349.762 186.984 346.634 189.052C341.494 183.443 334 179.909 325.656 179.909C312.513 179.909 301.48 188.677 298.429 200.515C290.706 189.621 272.06 181.939 250.286 181.939C227.49 181.939 208.125 190.357 201.129 202.067C196.462 197.232 189.191 194.123 181.024 194.123C173.982 194.123 167.607 196.434 162.992 200.17C159.434 193.748 152.47 189.385 144.462 189.385C138.142 189.385 132.472 192.102 128.614 196.405C121.851 189.052 107.363 183.97 90.5823 183.97C73.5525 183.97 58.8845 189.204 52.2551 196.734C47.1847 193.81 41.0035 192.093 34.333 192.093C17.1109 192.093 3.14966 203.537 3.14966 217.654C3.14966 217.707 3.14986 217.761 3.15026 217.814H497.139Z" fill="#419484"/>
<rect y="204" width="560" height="18" fill="#BFBFBF"/>
<path d="M528.595 311.901C528.595 318.07 488.672 317.655 439.814 317.655C390.955 317.655 348.829 318.07 348.829 311.901C348.829 305.733 374.959 302.764 439.814 302.764C488.672 302.764 528.595 305.733 528.595 311.901Z" fill="#1A1A1A" fill-opacity="0.4"/>
<rect x="348.198" y="309.871" width="47.2241" height="7.44573" fill="#1A1A1A"/>
<rect x="368.448" y="66.1923" width="7.00408" height="11.2942" fill="#1A1A1A"/>
<path d="M344.434 87.1672H402.968L493.02 118.899H254.381L344.434 87.1672Z" fill="#FFDC5C"/>
<path d="M368.194 77.4865H375.98L414.474 88.7806H332.926L368.194 77.4865Z" fill="#F3BE00"/>
<path d="M483.515 118.899H263.887L315.71 126.28H432.192L483.515 118.899Z" fill="#D0A50A"/>
<rect x="368.348" y="118.99" width="6.9262" height="193.589" fill="#1A1A1A"/>
<path d="M345.052 118.989H349.46L374.016 138.619H369.609L345.052 118.989Z" fill="#1A1A1A"/>
<path d="M329.31 118.99H334.977L373.071 139.973L369.293 140.988L329.31 118.99Z" fill="#1A1A1A"/>
<path d="M398.571 118.989H394.163L369.607 138.619H374.015L398.571 118.989Z" fill="#1A1A1A"/>
<path d="M414.313 118.99H408.646L370.552 139.973L374.33 140.988L414.313 118.99Z" fill="#1A1A1A"/>
</g>
<defs>
<clipPath id="clip0_2813_6234">
<rect width="560" height="382" fill="white"/>
</clipPath>
<clipPath id="clip1_2813_6234">
<rect width="75.5585" height="118.865" fill="white" transform="translate(44.0753 221.876)"/>
</clipPath>
</defs>
</svg>
