<svg width="19" height="18" viewBox="0 0 19 18" fill="none" xmlns="http://www.w3.org/2000/svg">
<path d="M9.5045 12.9027C7.35033 12.9027 5.60175 11.1541 5.60175 8.99992C5.60175 6.84574 7.35033 5.09717 9.5045 5.09717C11.6587 5.09717 13.4073 6.84574 13.4073 8.99992C13.4073 11.1541 11.6587 12.9027 9.5045 12.9027ZM9.5045 6.44916C8.09843 6.44916 6.95375 7.59385 6.95375 8.99992C6.95375 10.406 8.09843 11.5507 9.5045 11.5507C10.9106 11.5507 12.0553 10.406 12.0553 8.99992C12.0553 7.59385 10.9106 6.44916 9.5045 6.44916Z" fill="white"/>
<path d="M9.50451 17.13C6.11551 17.13 2.9158 15.147 0.716556 11.704C-0.238852 10.2168 -0.238852 7.7922 0.716556 6.29599C2.92481 2.85292 6.12453 0.869995 9.50451 0.869995C12.8845 0.869995 16.0842 2.85292 18.2834 6.29599C19.2389 7.78318 19.2389 10.2078 18.2834 11.704C16.0842 15.147 12.8845 17.13 9.50451 17.13ZM9.50451 2.22199C6.59322 2.22199 3.80811 3.97056 1.86124 7.02607C1.18525 8.08062 1.18525 9.91933 1.86124 10.9739C3.80811 14.0294 6.59322 15.778 9.50451 15.778C12.4158 15.778 15.2009 14.0294 17.1478 10.9739C17.8238 9.91933 17.8238 8.08062 17.1478 7.02607C15.2009 3.97056 12.4158 2.22199 9.50451 2.22199Z" fill="white"/>
</svg>
