<svg width="18" height="18" viewBox="0 0 18 18" fill="none" xmlns="http://www.w3.org/2000/svg">
<path d="M3.79512 12.952L0 16.7462L1.25381 18L5.04805 14.2049C6.45982 15.3366 8.21581 15.9522 10.0252 15.9496C14.4273 15.9496 18 12.3769 18 7.9748C18 3.57271 14.4273 0 10.0252 0C5.62312 0 2.05041 3.57271 2.05041 7.9748C2.04783 9.78419 2.66339 11.5402 3.79512 12.952ZM5.57261 12.2945C4.44806 11.138 3.82004 9.58786 3.82259 7.9748C3.82259 4.54741 6.5987 1.77218 10.0252 1.77218C13.4526 1.77218 16.2278 4.54741 16.2278 7.9748C16.2278 11.4013 13.4526 14.1774 10.0252 14.1774C8.41214 14.18 6.86197 13.5519 5.70552 12.4274L5.57261 12.2945Z" fill="#85FF5B"/>
</svg>
