<svg width="40" height="38" viewBox="0 0 40 38" fill="none" xmlns="http://www.w3.org/2000/svg">
<path d="M30.7619 10.8571H39.8095V14.4762H30.7619V10.8571ZM27.1429 19.9048H39.8095V23.5238H27.1429V19.9048ZM32.5714 28.9524H39.8095V32.5714H32.5714V28.9524ZM0 38C0 34.1607 1.52517 30.4786 4.23998 27.7638C6.95479 25.049 10.6369 23.5238 14.4762 23.5238C18.3155 23.5238 21.9976 25.049 24.7124 27.7638C27.4272 30.4786 28.9524 34.1607 28.9524 38H25.3333C25.3333 35.1205 24.1895 32.3589 22.1534 30.3228C20.1172 28.2867 17.3557 27.1429 14.4762 27.1429C11.5967 27.1429 8.83514 28.2867 6.79903 30.3228C4.76292 32.3589 3.61905 35.1205 3.61905 38H0ZM14.4762 21.7143C8.47762 21.7143 3.61905 16.8557 3.61905 10.8571C3.61905 4.85857 8.47762 0 14.4762 0C20.4748 0 25.3333 4.85857 25.3333 10.8571C25.3333 16.8557 20.4748 21.7143 14.4762 21.7143ZM14.4762 18.0952C18.4752 18.0952 21.7143 14.8562 21.7143 10.8571C21.7143 6.8581 18.4752 3.61905 14.4762 3.61905C10.4771 3.61905 7.2381 6.8581 7.2381 10.8571C7.2381 14.8562 10.4771 18.0952 14.4762 18.0952Z" fill="white"/>
</svg>
