<svg width="34" height="38" viewBox="0 0 34 38" fill="none" xmlns="http://www.w3.org/2000/svg">
<path d="M26.4444 26.6H30.2222V3.8H11.3333V7.59999H26.4444V26.6ZM26.4444 30.4V36.1C26.4444 37.1488 25.5944 38 24.5423 38H1.90211C1.65302 38.0015 1.40608 37.9534 1.1755 37.8587C0.944912 37.7639 0.735218 37.6242 0.558466 37.4476C0.381714 37.2711 0.241387 37.0611 0.145547 36.8299C0.0497072 36.5986 0.000244374 36.3505 0 36.1L0.00566671 9.49999C0.00566671 8.45119 0.855667 7.59999 1.90778 7.59999H7.55556V1.9C7.55556 1.39609 7.75456 0.912815 8.1088 0.556497C8.46303 0.200178 8.94348 0 9.44444 0H32.1111C32.6121 0 33.0925 0.200178 33.4468 0.556497C33.801 0.912815 34 1.39609 34 1.9V28.5C34 29.0039 33.801 29.4872 33.4468 29.8435C33.0925 30.1998 32.6121 30.4 32.1111 30.4H26.4444ZM3.78344 11.4L3.77778 34.2H22.6667V11.4H3.78344ZM7.55556 26.6H16.0556C16.306 26.6 16.5463 26.4999 16.7234 26.3217C16.9005 26.1436 17 25.9019 17 25.65C17 25.398 16.9005 25.1564 16.7234 24.9782C16.5463 24.8001 16.306 24.7 16.0556 24.7H10.3889C9.13648 24.7 7.93536 24.1995 7.04977 23.3087C6.16419 22.4179 5.66667 21.2098 5.66667 19.95C5.66667 18.6902 6.16419 17.482 7.04977 16.5912C7.93536 15.7004 9.13648 15.2 10.3889 15.2H11.3333V13.3H15.1111V15.2H18.8889V19H10.3889C10.1384 19 9.89818 19.1001 9.72106 19.2782C9.54395 19.4564 9.44444 19.698 9.44444 19.95C9.44444 20.2019 9.54395 20.4436 9.72106 20.6217C9.89818 20.7999 10.1384 20.9 10.3889 20.9H16.0556C17.308 20.9 18.5091 21.4004 19.3947 22.2912C20.2803 23.182 20.7778 24.3902 20.7778 25.65C20.7778 26.9098 20.2803 28.1179 19.3947 29.0087C18.5091 29.8995 17.308 30.4 16.0556 30.4H15.1111V32.3H11.3333V30.4H7.55556V26.6Z" fill="white"/>
</svg>
