<svg width="98" height="97" viewBox="0 0 98 97" fill="none" xmlns="http://www.w3.org/2000/svg">
<path d="M49 97C75.7858 97 97.5 75.2858 97.5 48.5C97.5 21.7142 75.7858 0 49 0C22.2142 0 0.5 21.7142 0.5 48.5C0.5 75.2858 22.2142 97 49 97Z" fill="#C5E9FF"/>
<path d="M28.3604 17.7852C28.3604 17.207 28.8291 16.7383 29.4073 16.7383H68.5927C69.1709 16.7383 69.6396 17.207 69.6396 17.7852V72.6201H28.3604V17.7852Z" fill="#4C9D8D"/>
<rect x="32.5479" y="20.9772" width="22.5966" height="38.5009" rx="1.04696" fill="#BCBCBC"/>
<rect x="33.7871" y="22.3843" width="20.1197" height="35.6865" rx="0.52348" fill="#EEEEEE"/>
<rect x="32.5479" y="61.5723" width="22.5966" height="6.87362" rx="1.04696" fill="#BCBCBC"/>
<path d="M32.5479 62.6192C32.5479 62.041 33.0166 61.5723 33.5948 61.5723H54.0975C54.6757 61.5723 55.1444 62.041 55.1444 62.6192V64.0565H32.5479V62.6192Z" fill="#EEEEEE"/>
<path d="M59.1201 16.7382H68.5929C69.1711 16.7382 69.6398 17.2069 69.6398 17.7851V72.62H59.1201V16.7382Z" fill="#006956"/>
<path d="M28.3604 72.62H69.6396V75.0272C69.6396 75.6054 69.1709 76.0741 68.5927 76.0741H29.4073C28.8291 76.0741 28.3604 75.6054 28.3604 75.0272V72.62Z" fill="#BCBCBC"/>
<path d="M63.3574 76.0741H67.5453V80.2619H64.4044L63.3574 76.0741Z" fill="#A6A6A6"/>
<path d="M30.4541 76.0741H34.6419L33.595 80.2619H30.4541V76.0741Z" fill="#A6A6A6"/>
<rect x="35.2988" y="39.6106" width="17.098" height="1.23381" fill="#D9D9D9"/>
<rect x="35.2988" y="29.8137" width="17.098" height="1.23381" fill="#D9D9D9"/>
<rect x="35.2988" y="49.4073" width="17.098" height="1.23381" fill="#D9D9D9"/>
<path d="M43.6761 65.45L46.3424 64.0565H41.0098L43.6761 65.45Z" fill="#A6A6A6"/>
<rect x="60.8379" y="29.8137" width="7.11402" height="20.8275" rx="0.52348" fill="#BCBCBC"/>
<rect x="61.5811" y="30.6073" width="5.62736" height="9.0032" rx="0.52348" fill="#C5E9FF"/>
<rect x="61.5811" y="40.8444" width="5.62736" height="5.62218" rx="0.52348" fill="#A6A6A6"/>
<rect x="61.5811" y="47.5673" width="5.62736" height="1.71039" rx="0.52348" fill="#EEEEEE"/>
<circle cx="64.3799" cy="45.306" r="0.627001" fill="#FCBFB7"/>
</svg>
