<svg width="26" height="25" viewBox="0 0 26 25" fill="none" xmlns="http://www.w3.org/2000/svg">
<circle cx="13.0122" cy="12.5" r="12.5" fill="white"/>
<path d="M13.0122 6.25C14.7103 6.25 14.9222 6.25625 15.5885 6.2875C16.2541 6.31875 16.7072 6.42313 17.106 6.57813C17.5185 6.73688 17.866 6.95187 18.2135 7.29875C18.5313 7.61118 18.7772 7.98912 18.9341 8.40625C19.0885 8.80437 19.1935 9.25812 19.2247 9.92375C19.2541 10.59 19.2622 10.8019 19.2622 12.5C19.2622 14.1981 19.256 14.41 19.2247 15.0763C19.1935 15.7419 19.0885 16.195 18.9341 16.5938C18.7776 17.0111 18.5317 17.3891 18.2135 17.7013C17.9009 18.0189 17.523 18.2648 17.106 18.4219C16.7078 18.5763 16.2541 18.6813 15.5885 18.7125C14.9222 18.7419 14.7103 18.75 13.0122 18.75C11.3141 18.75 11.1022 18.7438 10.436 18.7125C9.77033 18.6813 9.31721 18.5763 8.91846 18.4219C8.50116 18.2653 8.12316 18.0193 7.81096 17.7013C7.49309 17.3889 7.24716 17.0109 7.09033 16.5938C6.93533 16.1956 6.83096 15.7419 6.79971 15.0763C6.77033 14.41 6.76221 14.1981 6.76221 12.5C6.76221 10.8019 6.76846 10.59 6.79971 9.92375C6.83096 9.2575 6.93533 8.805 7.09033 8.40625C7.24673 7.98886 7.49271 7.61083 7.81096 7.29875C8.12325 6.98077 8.50122 6.73483 8.91846 6.57813C9.31721 6.42313 9.76971 6.31875 10.436 6.2875C11.1022 6.25812 11.3141 6.25 13.0122 6.25ZM13.0122 9.375C12.1834 9.375 11.3885 9.70424 10.8025 10.2903C10.2164 10.8763 9.88721 11.6712 9.88721 12.5C9.88721 13.3288 10.2164 14.1237 10.8025 14.7097C11.3885 15.2958 12.1834 15.625 13.0122 15.625C13.841 15.625 14.6359 15.2958 15.2219 14.7097C15.808 14.1237 16.1372 13.3288 16.1372 12.5C16.1372 11.6712 15.808 10.8763 15.2219 10.2903C14.6359 9.70424 13.841 9.375 13.0122 9.375ZM17.0747 9.21875C17.0747 9.01155 16.9924 8.81284 16.8459 8.66632C16.6994 8.51981 16.5007 8.4375 16.2935 8.4375C16.0863 8.4375 15.8875 8.51981 15.741 8.66632C15.5945 8.81284 15.5122 9.01155 15.5122 9.21875C15.5122 9.42595 15.5945 9.62466 15.741 9.77118C15.8875 9.91769 16.0863 10 16.2935 10C16.5007 10 16.6994 9.91769 16.8459 9.77118C16.9924 9.62466 17.0747 9.42595 17.0747 9.21875ZM13.0122 10.625C13.5095 10.625 13.9864 10.8225 14.338 11.1742C14.6897 11.5258 14.8872 12.0027 14.8872 12.5C14.8872 12.9973 14.6897 13.4742 14.338 13.8258C13.9864 14.1775 13.5095 14.375 13.0122 14.375C12.5149 14.375 12.038 14.1775 11.6864 13.8258C11.3348 13.4742 11.1372 12.9973 11.1372 12.5C11.1372 12.0027 11.3348 11.5258 11.6864 11.1742C12.038 10.8225 12.5149 10.625 13.0122 10.625Z" fill="#13705F"/>
</svg>
