<svg width="42" height="38" viewBox="0 0 42 38" fill="none" xmlns="http://www.w3.org/2000/svg">
<path fill-rule="evenodd" clip-rule="evenodd" d="M26.2402 0.0184735H15.282C6.85642 0.0184735 0 6.8051 0 15.1944C0 20.9462 3.23665 25.9454 7.98051 28.5126V35.9586C7.98051 36.773 8.4679 37.5094 9.22065 37.8325C9.9734 38.1555 10.8475 38.0034 11.4447 37.4453L19.0363 30.3519H26.518C34.9436 30.3519 41.8 23.5653 41.8 15.176C41.8 6.7885 34.9641 0 26.518 0C26.4238 0 26.3311 0.00629128 26.2402 0.0184735ZM26.7736 4.08548C26.6899 4.0958 26.6046 4.10111 26.518 4.10111H15.282C9.12319 4.10111 4.11117 9.06362 4.11117 15.1944C4.11117 19.743 6.88705 23.6624 10.8521 25.3656C11.6046 25.6888 12.0917 26.425 12.0917 27.2391V31.2351L16.8126 26.8239C17.1939 26.4677 17.6977 26.2693 18.2212 26.2693H26.518C32.6768 26.2693 37.6888 21.3068 37.6888 15.176C37.6888 9.12813 32.8308 4.22014 26.7736 4.08548Z" fill="white"/>
</svg>
