<svg width="20" height="21" viewBox="0 0 20 21" fill="none" xmlns="http://www.w3.org/2000/svg">
<path d="M10 20.6887C4.477 20.6887 0 16.2117 0 10.6887C0 5.16572 4.477 0.688721 10 0.688721C15.523 0.688721 20 5.16572 20 10.6887C20 16.2117 15.523 20.6887 10 20.6887ZM10 18.6887C12.1217 18.6887 14.1566 17.8459 15.6569 16.3456C17.1571 14.8453 18 12.8105 18 10.6887C18 8.56699 17.1571 6.53216 15.6569 5.03187C14.1566 3.53158 12.1217 2.68872 10 2.68872C7.87827 2.68872 5.84344 3.53158 4.34315 5.03187C2.84285 6.53216 2 8.56699 2 10.6887C2 12.8105 2.84285 14.8453 4.34315 16.3456C5.84344 17.8459 7.87827 18.6887 10 18.6887ZM11 10.6887H15V12.6887H9V5.68872H11V10.6887Z" fill="#BEBEBE"/>
</svg>
