<svg width="133" height="41" viewBox="0 0 133 41" fill="none" xmlns="http://www.w3.org/2000/svg">
<rect x="1.32395" y="1.23679" width="131.197" height="39.2164" rx="7.17373" stroke="white" stroke-width="0.956498"/>
<path d="M67.1255 21.9254C65.1415 21.9254 63.5244 23.4345 63.5244 25.513C63.5244 27.5789 65.1415 29.1006 67.1255 29.1006C69.1104 29.1006 70.7274 27.5789 70.7274 25.513C70.7266 23.4345 69.1095 21.9254 67.1255 21.9254ZM67.1255 27.6885C66.0382 27.6885 65.101 26.7918 65.101 25.5139C65.101 24.2224 66.039 23.3392 67.1255 23.3392C68.2128 23.3392 69.15 24.2224 69.15 25.5139C69.15 26.791 68.2128 27.6885 67.1255 27.6885ZM59.2687 21.9254C57.2847 21.9254 55.6676 23.4345 55.6676 25.513C55.6676 27.5789 57.2847 29.1006 59.2687 29.1006C61.2536 29.1006 62.8707 27.5789 62.8707 25.513C62.8707 23.4345 61.2536 21.9254 59.2687 21.9254ZM59.2687 27.6885C58.1814 27.6885 57.2442 26.7918 57.2442 25.5139C57.2442 24.2224 58.1822 23.3392 59.2687 23.3392C60.3561 23.3392 61.2932 24.2224 61.2932 25.5139C61.2941 26.791 60.3561 27.6885 59.2687 27.6885ZM49.9239 23.0271V24.5489H53.5664C53.4576 25.4051 53.1724 26.0301 52.7372 26.4645C52.2074 26.9943 51.3782 27.5789 49.9239 27.5789C47.6818 27.5789 45.9289 25.7712 45.9289 23.529C45.9289 21.2869 47.6818 19.4792 49.9239 19.4792C51.1336 19.4792 52.0168 19.9549 52.6688 20.5665L53.7427 19.4926C52.8316 18.623 51.6228 17.9574 49.9239 17.9574C46.8526 17.9574 44.2705 20.4577 44.2705 23.529C44.2705 26.6004 46.8526 29.1006 49.9239 29.1006C51.5815 29.1006 52.8325 28.5565 53.8102 27.5375C54.8157 26.532 55.1286 25.1182 55.1286 23.9769C55.1286 23.6243 55.1016 23.2979 55.0468 23.0263H49.9239V23.0271ZM88.1433 24.2089C87.8447 23.4075 86.9336 21.9254 85.0719 21.9254C83.2237 21.9254 81.6876 23.3797 81.6876 25.513C81.6876 27.524 83.2102 29.1006 85.2482 29.1006C86.8923 29.1006 87.8438 28.0951 88.2386 27.5105L87.0154 26.6948C86.608 27.2929 86.0504 27.6868 85.2482 27.6868C84.4469 27.6868 83.8758 27.3199 83.5088 26.5995L88.3061 24.6155L88.1433 24.2089ZM83.2507 25.4051C83.2102 24.0183 84.3245 23.3122 85.1267 23.3122C85.7518 23.3122 86.2816 23.6252 86.4587 24.0731L83.2507 25.4051ZM79.351 28.8838H80.9267V18.3387H79.351V28.8838ZM76.7681 22.7276H76.7141C76.3606 22.3059 75.6807 21.9254 74.8254 21.9254C73.0312 21.9254 71.3871 23.502 71.3871 25.5274C71.3871 27.5384 73.0312 29.1015 74.8254 29.1015C75.6816 29.1015 76.3606 28.721 76.7141 28.2866H76.7681V28.8029C76.7681 30.1753 76.0342 30.9092 74.8524 30.9092C73.8874 30.9092 73.2893 30.2166 73.0447 29.6321L71.6722 30.2031C72.0661 31.1538 73.1121 32.323 74.8524 32.323C76.7006 32.323 78.2637 31.2356 78.2637 28.5852V22.1439H76.7689V22.7276H76.7681ZM74.9612 27.6885C73.8739 27.6885 72.9637 26.7775 72.9637 25.5274C72.9637 24.2629 73.8739 23.3392 74.9612 23.3392C76.0342 23.3392 76.8769 24.2629 76.8769 25.5274C76.8769 26.7775 76.0342 27.6885 74.9612 27.6885ZM95.5277 18.3387H91.7562V28.8838H93.3294V24.8888H95.5268C97.2713 24.8888 98.987 23.626 98.987 21.6142C98.987 19.6023 97.2721 18.3387 95.5277 18.3387ZM95.5681 23.421H93.3294V19.8064H95.5681C96.7449 19.8064 97.413 20.7807 97.413 21.6142C97.413 22.4307 96.7449 23.421 95.5681 23.421ZM105.296 21.9069C104.156 21.9069 102.976 22.4088 102.488 23.5214L103.885 24.1043C104.183 23.5214 104.74 23.3308 105.323 23.3308C106.137 23.3308 106.964 23.8192 106.978 24.6872V24.796C106.693 24.6332 106.082 24.3894 105.336 24.3894C103.831 24.3894 102.297 25.2169 102.297 26.7632C102.297 28.1744 103.532 29.0829 104.915 29.0829C105.973 29.0829 106.557 28.608 106.923 28.0513H106.977V28.8653H108.497V24.8222C108.498 22.9512 107.099 21.9069 105.296 21.9069ZM105.105 27.686C104.591 27.686 103.871 27.4279 103.871 26.7902C103.871 25.9761 104.767 25.664 105.541 25.664C106.231 25.664 106.558 25.8133 106.978 26.0166C106.856 26.9943 106.015 27.686 105.105 27.686ZM114.032 22.1372L112.228 26.7092H112.174L110.302 22.1372H108.606L111.414 28.527L109.813 32.0817H111.455L115.783 22.1372H114.032ZM99.8559 28.8838H101.429V18.3387H99.8559V28.8838Z" fill="white"/>
<path d="M49.6482 12.2165C49.6482 12.9234 49.439 13.4861 49.0198 13.9061C48.544 14.4055 47.9231 14.6552 47.1606 14.6552C46.4301 14.6552 45.8084 14.4021 45.298 13.896C44.7868 13.389 44.5312 12.7614 44.5312 12.0124C44.5312 11.2625 44.7868 10.6349 45.298 10.1287C45.8084 9.62178 46.4301 9.36871 47.1606 9.36871C47.5233 9.36871 47.87 9.43957 48.199 9.58044C48.5288 9.72216 48.7928 9.91027 48.9902 10.1456L48.5457 10.591C48.2108 10.1903 47.7494 9.99041 47.1597 9.99041C46.6266 9.99041 46.166 10.1777 45.7772 10.5522C45.3883 10.9267 45.1943 11.4135 45.1943 12.0115C45.1943 12.6096 45.3883 13.0963 45.7772 13.4709C46.166 13.8454 46.6266 14.0327 47.1597 14.0327C47.7249 14.0327 48.1965 13.8446 48.5735 13.4675C48.8181 13.222 48.9599 12.8804 48.9978 12.4426H47.1597V11.8344H49.6119C49.6372 11.9668 49.6482 12.0942 49.6482 12.2165Z" fill="white"/>
<path d="M53.537 10.1026H51.2325V11.7071H53.3109V12.3153H51.2325V13.9197H53.537V14.5422H50.5821V9.48095H53.537V10.1026Z" fill="white"/>
<path d="M56.2793 14.5422H55.6289V10.1026H54.2151V9.48095H57.6931V10.1026H56.2793V14.5422Z" fill="white"/>
<path d="M60.2093 14.5422V9.48095H60.8597V14.5422H60.2093Z" fill="white"/>
<path d="M63.7439 14.5422H63.0935V10.1026H61.6798V9.48095H65.1577V10.1026H63.7439V14.5422Z" fill="white"/>
<path d="M71.7414 13.8885C71.2437 14.3997 70.6254 14.6552 69.8856 14.6552C69.1458 14.6552 68.5275 14.3997 68.0306 13.8885C67.5329 13.3773 67.2849 12.7514 67.2849 12.0116C67.2849 11.2718 67.5329 10.6459 68.0306 10.1347C68.5275 9.6235 69.1458 9.36707 69.8856 9.36707C70.6211 9.36707 71.2386 9.62435 71.738 10.1381C72.2374 10.6518 72.4871 11.276 72.4871 12.0116C72.4871 12.7514 72.2382 13.3773 71.7414 13.8885ZM68.5106 13.4642C68.8851 13.8438 69.3432 14.0327 69.8856 14.0327C70.428 14.0327 70.8869 13.8429 71.2605 13.4642C71.6351 13.0846 71.8232 12.6004 71.8232 12.0116C71.8232 11.4228 71.6351 10.9386 71.2605 10.559C70.8869 10.1794 70.428 9.99045 69.8856 9.99045C69.3432 9.99045 68.8851 10.1802 68.5106 10.559C68.1369 10.9386 67.9488 11.4228 67.9488 12.0116C67.9488 12.6004 68.1369 13.0846 68.5106 13.4642Z" fill="white"/>
<path d="M73.3998 14.5422V9.48095H74.191L76.6508 13.4178H76.6787L76.6508 12.4426V9.48095H77.3012V14.5422H76.6221L74.0485 10.4139H74.0206L74.0485 11.389V14.5422H73.3998Z" fill="white"/>
<path d="M49.6482 12.2165C49.6482 12.9234 49.439 13.4861 49.0198 13.9061C48.544 14.4055 47.9231 14.6552 47.1606 14.6552C46.4301 14.6552 45.8084 14.4021 45.298 13.896C44.7868 13.389 44.5312 12.7614 44.5312 12.0124C44.5312 11.2625 44.7868 10.6349 45.298 10.1287C45.8084 9.62178 46.4301 9.36871 47.1606 9.36871C47.5233 9.36871 47.87 9.43957 48.199 9.58044C48.5288 9.72216 48.7928 9.91027 48.9902 10.1456L48.5457 10.591C48.2108 10.1903 47.7494 9.99041 47.1597 9.99041C46.6266 9.99041 46.166 10.1777 45.7772 10.5522C45.3883 10.9267 45.1943 11.4135 45.1943 12.0115C45.1943 12.6096 45.3883 13.0963 45.7772 13.4709C46.166 13.8454 46.6266 14.0327 47.1597 14.0327C47.7249 14.0327 48.1965 13.8446 48.5735 13.4675C48.8181 13.222 48.9599 12.8804 48.9978 12.4426H47.1597V11.8344H49.6119C49.6372 11.9668 49.6482 12.0942 49.6482 12.2165Z" stroke="white" stroke-width="0.187597" stroke-miterlimit="10"/>
<path d="M53.537 10.1026H51.2325V11.7071H53.3109V12.3153H51.2325V13.9197H53.537V14.5422H50.5821V9.48095H53.537V10.1026Z" stroke="white" stroke-width="0.187597" stroke-miterlimit="10"/>
<path d="M56.2793 14.5422H55.6289V10.1026H54.2151V9.48095H57.6931V10.1026H56.2793V14.5422Z" stroke="white" stroke-width="0.187597" stroke-miterlimit="10"/>
<path d="M60.2093 14.5422V9.48095H60.8597V14.5422H60.2093Z" stroke="white" stroke-width="0.187597" stroke-miterlimit="10"/>
<path d="M63.7439 14.5422H63.0935V10.1026H61.6798V9.48095H65.1577V10.1026H63.7439V14.5422Z" stroke="white" stroke-width="0.187597" stroke-miterlimit="10"/>
<path d="M71.7414 13.8885C71.2437 14.3997 70.6254 14.6552 69.8856 14.6552C69.1458 14.6552 68.5275 14.3997 68.0306 13.8885C67.5329 13.3773 67.2849 12.7514 67.2849 12.0116C67.2849 11.2718 67.5329 10.6459 68.0306 10.1347C68.5275 9.6235 69.1458 9.36707 69.8856 9.36707C70.6211 9.36707 71.2386 9.62435 71.738 10.1381C72.2374 10.6518 72.4871 11.276 72.4871 12.0116C72.4871 12.7514 72.2382 13.3773 71.7414 13.8885ZM68.5106 13.4642C68.8851 13.8438 69.3432 14.0327 69.8856 14.0327C70.428 14.0327 70.8869 13.8429 71.2605 13.4642C71.6351 13.0846 71.8232 12.6004 71.8232 12.0116C71.8232 11.4228 71.6351 10.9386 71.2605 10.559C70.8869 10.1794 70.428 9.99045 69.8856 9.99045C69.3432 9.99045 68.8851 10.1802 68.5106 10.559C68.1369 10.9386 67.9488 11.4228 67.9488 12.0116C67.9488 12.6004 68.1369 13.0846 68.5106 13.4642Z" stroke="white" stroke-width="0.187597" stroke-miterlimit="10"/>
<path d="M73.3998 14.5422V9.48095H74.191L76.6508 13.4178H76.6787L76.6508 12.4426V9.48095H77.3012V14.5422H76.6221L74.0485 10.4139H74.0206L74.0485 11.389V14.5422H73.3998Z" stroke="white" stroke-width="0.187597" stroke-miterlimit="10"/>
<path fill-rule="evenodd" clip-rule="evenodd" d="M18.2015 10.1135C18.1118 10.3339 18.0625 10.5994 18.0625 10.9053V29.7629C18.0625 30.0685 18.1115 30.3333 18.2008 30.5531L28.4202 20.3322L18.2015 10.1135ZM18.854 31.2265C19.2285 31.368 19.708 31.3093 20.2291 31.0137L32.2633 24.1753L29.0835 20.9955L18.854 31.2265ZM33.1097 23.6952L36.8569 21.5662C38.0481 20.8883 38.0481 19.7807 36.8569 19.1037L33.1061 16.9724L29.7467 20.3322L33.1097 23.6952ZM32.2602 16.4917L20.2291 9.65533C19.709 9.35976 19.2303 9.30093 18.8562 9.44164L29.0834 19.6689L32.2602 16.4917Z" fill="white"/>
</svg>
