<svg width="180" height="115" viewBox="0 0 180 115" fill="none" xmlns="http://www.w3.org/2000/svg">
<rect width="180" height="114.943" rx="7.66286" fill="#08494B"/>
<path d="M41.4342 72.9416C41.4342 72.035 42.1692 71.3 43.0758 71.3H136.123C137.03 71.3 137.765 72.035 137.765 72.9416V90.6613H41.4342V72.9416Z" fill="#F3BE00"/>
<path d="M41.455 72.9468C41.455 72.0401 42.1899 71.3052 43.0966 71.3052H77.5593V90.6779H41.455V72.9468Z" fill="#E2B30C"/>
<path d="M47.3221 25.9075C47.3221 25.0008 48.0571 24.2659 48.9637 24.2659H130.233C131.14 24.2659 131.875 25.0008 131.875 25.9075V71.2993H47.3221V25.9075Z" fill="#5AC6A9"/>
<path d="M49.6221 27.4094C49.6221 26.9561 49.9896 26.5886 50.4429 26.5886H128.754C129.207 26.5886 129.575 26.9561 129.575 27.4094V71.2973H49.6221V27.4094Z" fill="#FFDC5E"/>
<path opacity="0.31" d="M49.5819 27.3357C49.5819 26.8824 49.9494 26.5149 50.4027 26.5149H76.7392C77.1926 26.5149 77.56 26.8824 77.56 27.3357V71.3047H49.5819V27.3357Z" fill="#F3BE00"/>
<path d="M41.4342 72.9416C41.4342 72.035 42.1692 71.3 43.0758 71.3H49.6231C49.6231 73.0119 48.2354 74.3997 46.5235 74.3997H41.4342V72.9416Z" fill="#4C9D8D"/>
<path d="M41.4342 87.5605H46.5235C48.2354 87.5605 49.6231 88.9483 49.6231 90.6602H41.4342V87.5605Z" fill="#4C9D8D"/>
<path d="M137.764 72.9416C137.764 72.035 137.029 71.3 136.123 71.3H129.575C129.575 73.0119 130.963 74.3997 132.675 74.3997H137.764V72.9416Z" fill="#4C9D8D"/>
<path d="M137.764 87.5605H132.675C130.963 87.5605 129.575 88.9483 129.575 90.6602H137.764V87.5605Z" fill="#4C9D8D"/>
<rect x="74.2672" y="75.5547" width="9.19947" height="4.64947" rx="0.820799" fill="#4C9D8D"/>
<rect x="95.7324" y="75.5547" width="9.19947" height="4.64947" rx="0.820799" fill="#4C9D8D"/>
<path d="M78.7128 78.4336V84.7787C78.7128 84.8693 78.7863 84.9428 78.8769 84.9428H100.167C100.258 84.9428 100.332 84.8693 100.332 84.7787V78.4336" stroke="#006956" stroke-width="2.4624" stroke-linecap="square"/>
<rect x="89.5986" y="67.0684" width="30.4574" height="4.22894" fill="#006956"/>
<rect x="89.5988" y="62.8391" width="30.4574" height="4.22894" fill="#4C9D8D"/>
<rect x="102.986" y="62.8391" width="3.68166" height="8.45787" fill="#FFFDF4"/>
<rect opacity="0.15" x="89.5988" y="62.8391" width="2.51023" height="8.45787" fill="#1A1A1A"/>
<rect x="75.0393" y="58.6104" width="30.4574" height="4.22894" fill="#006956"/>
<rect x="75.0394" y="54.3816" width="30.4574" height="4.22894" fill="#4C9D8D"/>
<rect x="88.427" y="54.3813" width="3.68166" height="8.45787" fill="#FFFDF4"/>
<rect opacity="0.15" x="75.0394" y="54.3816" width="2.51023" height="8.45787" fill="#1A1A1A"/>
<path d="M92.1144 52.1433H100.671V53.5159H92.1144V52.1433Z" fill="#BE970A"/>
<ellipse cx="96.3906" cy="53.5174" rx="4.28136" ry="0.898012" fill="#BE970A"/>
<ellipse cx="96.3898" cy="52.1448" rx="4.28136" ry="0.898012" fill="#F3BE00"/>
<path d="M92.1144 50.5605H100.671V51.9332H92.1144V50.5605Z" fill="#BE970A"/>
<ellipse cx="96.3906" cy="51.9332" rx="4.28136" ry="0.898012" fill="#BE970A"/>
<ellipse cx="96.3898" cy="50.5618" rx="4.28136" ry="0.898012" fill="#F3BE00"/>
<path d="M92.1144 48.9766H100.671V50.3492H92.1144V48.9766Z" fill="#BE970A"/>
<ellipse cx="96.3906" cy="50.3497" rx="4.28136" ry="0.898012" fill="#BE970A"/>
<ellipse cx="96.3898" cy="48.9759" rx="4.28136" ry="0.898012" fill="#F3BE00"/>
<path d="M92.1144 47.3906H100.671V48.7632H92.1144V47.3906Z" fill="#BE970A"/>
<ellipse cx="96.3906" cy="48.764" rx="4.28136" ry="0.898012" fill="#BE970A"/>
<ellipse cx="96.3898" cy="47.3922" rx="4.28136" ry="0.898012" fill="#F3BE00"/>
<path d="M92.1141 45.8093H100.671V47.1819H92.1141V45.8093Z" fill="#BE970A"/>
<ellipse cx="96.3898" cy="47.181" rx="4.28136" ry="0.898012" fill="#BE970A"/>
<ellipse cx="96.3894" cy="45.8089" rx="4.28136" ry="0.898012" fill="#F3BE00"/>
<ellipse cx="2.4117" cy="0.409005" rx="2.4117" ry="0.409005" transform="matrix(1 0 0 -1 93.9783 46.218)" fill="#BE970A"/>
<rect x="92.1096" y="53.5376" width="8.53477" height="0.845787" fill="#BE970A"/>
<path d="M66.5372 61.0813H75.0942V62.4539H66.5372V61.0813Z" fill="#BE970A"/>
<ellipse cx="70.8132" cy="62.4544" rx="4.28136" ry="0.898012" fill="#BE970A"/>
<ellipse cx="70.8129" cy="61.0819" rx="4.28136" ry="0.898012" fill="#F3BE00"/>
<ellipse cx="2.4117" cy="0.409005" rx="2.4117" ry="0.409005" transform="matrix(1 0 0 -1 68.4009 61.4902)" fill="#BE970A"/>
<path d="M67.2068 59.2222H75.7638V60.5948H67.2068V59.2222Z" fill="#BE970A"/>
<ellipse cx="71.4822" cy="60.5953" rx="4.28136" ry="0.898012" fill="#BE970A"/>
<ellipse cx="71.4825" cy="59.2198" rx="4.28136" ry="0.898012" fill="#F3BE00"/>
<ellipse cx="2.4117" cy="0.409005" rx="2.4117" ry="0.409005" transform="matrix(1 0 0 -1 69.0709 59.6301)" fill="#BE970A"/>
<rect x="66.5369" y="62.2" width="8.55683" height="0.640452" fill="#BE970A"/>
<rect x="59.1409" y="67.0676" width="30.4574" height="4.22894" fill="#006956"/>
<rect x="59.1411" y="62.8394" width="30.4574" height="4.22894" fill="#4C9D8D"/>
<rect x="72.5283" y="62.8391" width="3.68166" height="8.45787" fill="#FFFDF4"/>
<rect opacity="0.15" x="59.1411" y="62.8394" width="2.51023" height="8.45787" fill="#1A1A1A"/>
</svg>
