<svg width="24" height="25" viewBox="0 0 24 25" fill="none" xmlns="http://www.w3.org/2000/svg">
<path d="M0 0.230469H2.66667V2.89714H0V0.230469ZM5.33333 0.230469H8V2.89714H5.33333V0.230469ZM10.6667 0.230469H13.3333V2.89714H10.6667V0.230469ZM16 0.230469H18.6667V2.89714H16V0.230469ZM21.3333 0.230469H24V2.89714H21.3333V0.230469ZM21.3333 5.5638H24V8.23047H21.3333V5.5638ZM0 21.5638H2.66667V24.2305H0V21.5638ZM0 16.2305H2.66667V18.8971H0V16.2305ZM0 10.8971H2.66667V13.5638H0V10.8971ZM0 5.5638H2.66667V8.23047H0V5.5638Z" fill="#09121F"/>
<path d="M8 21.5638H5.33333V24.2305H8V21.5638Z" fill="#09121F"/>
<path d="M13.3333 21.5638H10.6667V24.2305H13.3333V21.5638Z" fill="#09121F"/>
<path d="M18.6667 21.5638H16V24.2305H18.6667V21.5638Z" fill="#09121F"/>
<path d="M24 21.5638H21.3333V24.2305H24V21.5638Z" fill="#09121F"/>
<path d="M24 16.2305H21.3333V18.8971H24V16.2305Z" fill="#09121F"/>
<path d="M24 10.8971H21.3333V13.5638H24V10.8971Z" fill="#09121F"/>
</svg>
