<svg width="98" height="97" viewBox="0 0 98 97" fill="none" xmlns="http://www.w3.org/2000/svg">
<path d="M49 97C75.7858 97 97.5 75.2858 97.5 48.5C97.5 21.7142 75.7858 0 49 0C22.2142 0 0.5 21.7142 0.5 48.5C0.5 75.2858 22.2142 97 49 97Z" fill="#C5E9FF"/>
<ellipse cx="27.604" cy="54.2502" rx="8.48975" ry="7.04456" fill="#4C9D8D"/>
<ellipse cx="39.6255" cy="52.3681" rx="11.3042" ry="8.9267" fill="#4C9D8D"/>
<ellipse cx="8.48975" cy="7.04456" rx="8.48975" ry="7.04456" transform="matrix(-1 0 0 1 78.8857 47.2057)" fill="#4C9D8D"/>
<ellipse cx="11.3042" cy="8.9267" rx="11.3042" ry="8.9267" transform="matrix(-1 0 0 1 69.6787 43.4414)" fill="#4C9D8D"/>
<ellipse cx="49.0005" cy="48.7173" rx="9.37451" ry="6.48926" fill="#4C9D8D"/>
<ellipse cx="29.951" cy="54.6412" rx="7.55846" ry="5.04327" fill="#006956"/>
<ellipse cx="40.654" cy="52.8026" rx="10.0642" ry="6.39071" fill="#006956"/>
<ellipse cx="7.55846" cy="5.04327" rx="7.55846" ry="5.04327" transform="matrix(-1 0 0 1 75.6074 49.5979)" fill="#006956"/>
<ellipse cx="10.0642" cy="6.39071" rx="10.0642" ry="6.39071" transform="matrix(-1 0 0 1 67.4102 46.4119)" fill="#006956"/>
<ellipse cx="49.0005" cy="49.1889" rx="8.34617" ry="4.64573" fill="#006956"/>
<path d="M43.9095 72.6812C43.9095 72.2745 44.2398 71.9441 44.6465 71.9441H54.2336C54.6403 71.9441 54.9707 72.2745 54.9707 72.6812V73.5659H43.9082V72.6812H43.9095Z" fill="#1A1A1A"/>
<path d="M48.6533 21.1969C48.6533 21.0029 48.811 20.8452 49.005 20.8452H49.9423C50.1362 20.8452 50.2939 21.0029 50.2939 21.1969V23.3067H48.6533V21.1969Z" fill="#1A1A1A"/>
<path d="M43.0279 25.4153H56.7397L75.7424 31.6436C76.1228 31.7687 76.0327 32.3293 75.6335 32.3293H24.1353C23.7349 32.3293 23.646 31.7687 24.0252 31.6436L43.0279 25.4153Z" fill="#BCC3FF"/>
<path d="M48.5935 23.3055H50.4168L58.5898 25.5368C58.7212 25.5731 58.6962 25.7671 58.5585 25.7671H41.1338C40.9987 25.7671 40.9712 25.5756 41.1001 25.5381L48.591 23.3068L48.5935 23.3055Z" fill="#4B5DFF"/>
<path d="M75.6073 32.3293H24.1592L36.2991 33.9374H63.585L75.6073 32.3293Z" fill="#4B5DFF"/>
<path d="M48.6289 32.3495H50.2507V71.993H48.6289V32.3495Z" fill="#1A1A1A"/>
<rect x="19.1143" y="58.302" width="59.7715" height="17.8527" fill="#FFDC5E"/>
<rect x="17.2227" y="52.1111" width="63.5547" height="6.19104" fill="#F3BE00"/>
</svg>
