<svg width="25" height="23" viewBox="0 0 25 23" fill="none" xmlns="http://www.w3.org/2000/svg">
<path d="M22.3182 20.1261H24.5V22.3079H0.5V20.1261H2.68182V1.58066C2.68182 1.29133 2.79675 1.01385 3.00134 0.809266C3.20592 0.604681 3.4834 0.489746 3.77273 0.489746H21.2273C21.5166 0.489746 21.7941 0.604681 21.9987 0.809266C22.2032 1.01385 22.3182 1.29133 22.3182 1.58066V20.1261ZM8.13636 10.3079V12.4897H11.4091V10.3079H8.13636ZM8.13636 5.94429V8.12611H11.4091V5.94429H8.13636ZM8.13636 14.6716V16.8534H11.4091V14.6716H8.13636ZM13.5909 14.6716V16.8534H16.8636V14.6716H13.5909ZM13.5909 10.3079V12.4897H16.8636V10.3079H13.5909ZM13.5909 5.94429V8.12611H16.8636V5.94429H13.5909Z" fill="#09121F"/>
</svg>
