<svg width="180" height="116" viewBox="0 0 180 116" fill="none" xmlns="http://www.w3.org/2000/svg">
<rect y="0.942871" width="180" height="114.943" rx="7.66286" fill="#006956"/>
<g clip-path="url(#clip0_3140_9964)">
<path d="M142.001 90.9836H68.587L55.1267 31.3379H129.15C129.779 31.3379 130.324 31.7744 130.463 32.3887L143.315 89.34C143.504 90.182 142.865 90.9836 142.002 90.9836H142.001Z" fill="#C5E9FF"/>
<path d="M55.1274 31.3379L42.4814 90.9836H68.5877L55.1274 31.3379Z" fill="#5CA6CC"/>
<path d="M55.1267 31.3379H129.15C129.779 31.3379 130.324 31.7744 130.463 32.3887L132.501 41.4178H57.4015L55.1267 31.3392V31.3379Z" fill="#FFDC5E"/>
<path d="M136.17 85.5375H73.2566C72.9416 85.5375 72.6684 85.3192 72.5997 85.012L64.2341 47.7586C64.1399 47.3383 64.4589 46.9381 64.8896 46.9368L127.779 46.856C128.094 46.856 128.367 47.0742 128.436 47.3814L136.824 84.7157C136.918 85.1373 136.599 85.5375 136.167 85.5375H136.17Z" fill="#FFFDF4"/>
<path d="M67.3556 30.4515C67.0729 28.8456 66.4053 27.396 65.4778 26.3708C64.4737 25.2607 63.2771 24.7635 62.1074 24.9697C60.939 25.1758 59.9847 26.0528 59.4194 27.4405C59.0465 28.3552 58.8742 30.2117 58.9092 31.334H60.2553C60.2203 30.3842 60.3589 28.7028 60.6671 27.9484C61.0508 27.0053 61.6457 26.4193 62.3429 26.2953C63.0388 26.1714 63.7993 26.5203 64.4818 27.2748C65.2423 28.1141 65.7915 29.3252 66.0311 30.6846C66.4981 33.3346 65.5976 35.8014 64.0645 36.0721C63.6984 36.1368 63.4534 36.4857 63.518 36.8522C63.5759 37.1796 63.8599 37.4086 64.1803 37.4086C64.2193 37.4086 64.2583 37.4046 64.2974 37.3978C66.626 36.9869 67.9694 33.9354 67.3556 30.4502V30.4515Z" fill="#FFDC5E"/>
<path d="M64.5322 38.9583C65.4107 38.8033 65.9476 37.6826 65.7314 36.4553C65.5151 35.2279 64.6277 34.3587 63.7491 34.5137C62.8706 34.6687 62.3337 35.7894 62.55 37.0168C62.7662 38.2441 63.6536 39.1134 64.5322 38.9583Z" fill="#DBA700"/>
<path d="M55.1269 31.3379L57.4017 41.4165H52.9894L55.1269 31.3379Z" fill="#368FB2"/>
<path d="M75.1047 66.1968H125.935" stroke="#CCCCCC" stroke-width="0.253102" stroke-miterlimit="10"/>
<path d="M128.831 79.0903H77.9999L72.2092 53.3018H123.038L128.831 79.0903Z" stroke="#CCCCCC" stroke-width="0.253102" stroke-miterlimit="10"/>
<path d="M73.6584 59.7468H124.52" stroke="#CCCCCC" stroke-width="0.253102" stroke-miterlimit="10"/>
<path d="M76.5026 72.6445H127.357" stroke="#CCCCCC" stroke-width="0.253102" stroke-miterlimit="10"/>
<path d="M79.4712 53.3018L85.2618 79.0903" stroke="#CCCCCC" stroke-width="0.253102" stroke-miterlimit="10"/>
<path d="M86.7325 53.3018L92.5232 79.0903" stroke="#CCCCCC" stroke-width="0.253102" stroke-miterlimit="10"/>
<path d="M93.9935 53.3018L99.7842 79.0903" stroke="#CCCCCC" stroke-width="0.253102" stroke-miterlimit="10"/>
<path d="M101.255 53.3018L107.046 79.0903" stroke="#CCCCCC" stroke-width="0.253102" stroke-miterlimit="10"/>
<path d="M111.425 66.2526L114.308 79.0903L108.517 53.3018" stroke="#CCCCCC" stroke-width="0.253102" stroke-miterlimit="10"/>
<path d="M115.777 53.3018L121.568 79.0903" stroke="#CCCCCC" stroke-width="0.253102" stroke-miterlimit="10"/>
<path d="M66.1176 31.3378C66.3437 33.7291 65.4701 35.8281 64.0649 36.076C63.6988 36.1406 63.4538 36.4896 63.5184 36.856C63.5763 37.1834 63.8603 37.4124 64.1806 37.4124C64.2197 37.4124 64.2587 37.4084 64.2977 37.4016C66.4272 37.0258 67.7301 34.4404 67.469 31.3364H66.1176V31.3378Z" fill="#F3BE00"/>
<path d="M82.175 30.454C81.8924 28.8481 81.2247 27.3985 80.2973 26.3732C79.2932 25.2631 78.0965 24.766 76.9268 24.9721C75.7585 25.1782 74.8042 26.0553 74.2388 27.4429C73.866 28.3577 73.6937 30.2142 73.7287 31.3364H75.0747C75.0397 30.3866 75.1784 28.7053 75.4866 27.9508C75.8702 27.0078 76.4652 26.4217 77.1624 26.2978C77.8583 26.1738 78.6188 26.5228 79.3012 27.2772C80.0618 28.1165 80.6109 29.3277 80.8505 30.687C81.3176 33.337 80.4171 35.8038 78.884 36.0746C78.5179 36.1393 78.2729 36.4882 78.3375 36.8546C78.3954 37.182 78.6794 37.411 78.9997 37.411C79.0388 37.411 79.0778 37.407 79.1168 37.4003C81.4455 36.9894 82.7888 33.9379 82.175 30.4526V30.454Z" fill="#FFDC5E"/>
<path d="M79.3511 38.961C80.2296 38.806 80.7665 37.6853 80.5503 36.458C80.3341 35.2306 79.4466 34.3613 78.5681 34.5164C77.6896 34.6714 77.1527 35.7921 77.3689 37.0194C77.5851 38.2468 78.4726 39.1161 79.3511 38.961Z" fill="#DBA700"/>
<path d="M80.935 31.3361C81.1611 33.7274 80.2875 35.8264 78.8823 36.0743C78.5161 36.1389 78.2712 36.4878 78.3358 36.8543C78.3937 37.1817 78.6777 37.4107 78.998 37.4107C79.0371 37.4107 79.0761 37.4067 79.1151 37.3999C81.2446 37.024 82.5475 34.4387 82.2864 31.3347H80.935V31.3361Z" fill="#F3BE00"/>
<path d="M96.994 30.4549C96.7113 28.8491 96.0437 27.3994 95.1163 26.3742C94.1121 25.2641 92.9155 24.767 91.7458 24.9731C90.5775 25.1792 89.6231 26.0563 89.0578 27.4439C88.6849 28.3587 88.5127 30.2151 88.5476 31.3374H89.8937C89.8587 30.3876 89.9973 28.7062 90.3056 27.9518C90.6892 27.0087 91.2841 26.4227 91.9814 26.2988C92.6773 26.1748 93.4378 26.5237 94.1202 27.2782C94.8807 28.1175 95.4299 29.3287 95.6695 30.688C96.1366 33.338 95.2361 35.8048 93.7029 36.0756C93.3368 36.1402 93.0918 36.4892 93.1565 36.8556C93.2143 37.183 93.4983 37.412 93.8187 37.412C93.8577 37.412 93.8968 37.408 93.9358 37.4012C96.2644 36.9903 97.6078 33.9389 96.994 30.4536V30.4549Z" fill="#FFDC5E"/>
<path d="M94.168 38.962C95.0465 38.807 95.5834 37.6863 95.3672 36.459C95.151 35.2316 94.2635 34.3623 93.385 34.5174C92.5065 34.6724 91.9696 35.7931 92.1858 37.0204C92.402 38.2478 93.2895 39.117 94.168 38.962Z" fill="#DBA700"/>
<path d="M95.7539 31.3368C95.9801 33.7281 95.1065 35.8271 93.7012 36.075C93.3351 36.1396 93.0901 36.4886 93.1547 36.855C93.2126 37.1824 93.4966 37.4114 93.817 37.4114C93.856 37.4114 93.8951 37.4074 93.9341 37.4007C96.0635 37.0248 97.3665 34.4395 97.1053 31.3354H95.7539V31.3368Z" fill="#F3BE00"/>
<path d="M91.4455 57.9678C91.8496 57.8965 92.0964 57.3808 91.9969 56.816C91.8974 56.2512 91.4892 55.8511 91.0852 55.9224C90.6812 55.9937 90.4343 56.5094 90.5338 57.0742C90.6333 57.6391 91.0415 58.0391 91.4455 57.9678Z" fill="#E0857E"/>
<path d="M111.812 30.4549C111.529 28.8491 110.862 27.3994 109.934 26.3742C108.93 25.2641 107.734 24.767 106.564 24.9731C105.395 25.1792 104.441 26.0563 103.876 27.4439C103.503 28.3587 103.331 30.2151 103.366 31.3374H104.712C104.677 30.3876 104.815 28.7062 105.124 27.9518C105.507 27.0087 106.102 26.4227 106.799 26.2988C107.495 26.1748 108.256 26.5237 108.938 27.2782C109.699 28.1175 110.248 29.3287 110.487 30.688C110.955 33.338 110.054 35.8048 108.521 36.0756C108.155 36.1402 107.91 36.4892 107.974 36.8556C108.032 37.183 108.316 37.412 108.637 37.412C108.676 37.412 108.715 37.408 108.754 37.4012C111.082 36.9903 112.426 33.9389 111.812 30.4536V30.4549Z" fill="#FFDC5E"/>
<path d="M108.986 38.962C109.864 38.807 110.401 37.6863 110.185 36.459C109.969 35.2316 109.081 34.3623 108.203 34.5174C107.324 34.6724 106.787 35.7931 107.004 37.0204C107.22 38.2478 108.107 39.117 108.986 38.962Z" fill="#DBA700"/>
<path d="M110.573 31.3373C110.799 33.7286 109.926 35.8276 108.52 36.0755C108.154 36.1401 107.909 36.4891 107.974 36.8555C108.032 37.1829 108.316 37.4119 108.636 37.4119C108.675 37.4119 108.714 37.4079 108.753 37.4011C110.883 37.0253 112.186 34.4399 111.924 31.3359H110.573V31.3373Z" fill="#F3BE00"/>
<path d="M126.631 30.4549C126.348 28.8491 125.68 27.3994 124.753 26.3742C123.749 25.2641 122.552 24.767 121.383 24.9731C120.214 25.1792 119.26 26.0563 118.695 27.4439C118.322 28.3587 118.149 30.2151 118.184 31.3374H119.53C119.495 30.3876 119.634 28.7062 119.942 27.9518C120.326 27.0087 120.921 26.4227 121.618 26.2988C122.314 26.1748 123.074 26.5237 123.757 27.2782C124.517 28.1175 125.067 29.3287 125.306 30.688C125.773 33.338 124.873 35.8048 123.34 36.0756C122.974 36.1402 122.729 36.4892 122.793 36.8556C122.851 37.183 123.135 37.412 123.455 37.412C123.494 37.412 123.533 37.408 123.573 37.4012C125.901 36.9903 127.244 33.9389 126.631 30.4536V30.4549Z" fill="#FFDC5E"/>
<path d="M123.805 38.96C124.684 38.805 125.221 37.6843 125.004 36.457C124.788 35.2296 123.901 34.3604 123.022 34.5154C122.144 34.6705 121.607 35.7911 121.823 37.0185C122.039 38.2458 122.927 39.1151 123.805 38.96Z" fill="#DBA700"/>
<path d="M125.39 31.3361C125.616 33.7274 124.743 35.8264 123.338 36.0743C122.971 36.1389 122.726 36.4878 122.791 36.8543C122.849 37.1817 123.133 37.4107 123.453 37.4107C123.492 37.4107 123.531 37.4067 123.57 37.3999C125.7 37.024 127.003 34.4387 126.742 31.3347H125.39V31.3361Z" fill="#F3BE00"/>
<path d="M59.4446 45.6082L58.6383 46.8988L59.3934 50.2426L71.8685 60.5691C71.9344 60.6243 72.0111 60.6661 72.0932 60.6917L77.935 62.5562L78.3671 62.3771L59.4459 45.6095L59.4446 45.6082Z" fill="#CCCCCC"/>
<path d="M64.7397 50.0729L59.4445 45.6082L58.6395 46.8974L59.3933 50.2426L66.0252 55.7312L64.7397 50.0729Z" fill="#A3D1E8"/>
<path d="M41.1686 28.2989L40.3599 29.2017L73.2274 58.6974L74.0361 57.7946L41.1686 28.2989Z" fill="#FFDC5E"/>
<path d="M39.602 30.0485L39.6002 30.0505L72.4677 59.5463L72.4695 59.5443L39.602 30.0485Z" fill="#FFDC5E"/>
<path d="M40.3595 29.202L39.6021 30.0476L72.4695 59.5433L73.227 58.6978L40.3595 29.202Z" fill="#DBA700"/>
<path d="M41.9239 27.4542L41.1664 28.2998L74.0339 57.7955L74.7914 56.95L41.9239 27.4542Z" fill="#F3BE00"/>
<path d="M72.4675 59.5431L74.7935 56.947L78.382 62.0584C78.592 62.3561 78.2541 62.7334 77.9351 62.5569L72.4689 59.5431H72.4675Z" fill="#FFF1BE"/>
<path d="M41.9236 27.4517L40.0094 25.7339L37.6839 28.3298L39.5981 30.0476L41.9236 27.4517Z" fill="#CCCCCC"/>
<path d="M39.0996 24.915L40.0116 25.7334L37.6861 28.3294L36.7741 27.5109C36.2209 27.0145 36.1745 26.1622 36.6705 25.6085L37.1988 25.0187C37.6949 24.465 38.5464 24.4185 39.0996 24.915Z" fill="#FCBFB7"/>
<path d="M78.381 62.0564L77.7687 61.1836L77.0016 62.0403L77.9355 62.5548C78.2545 62.7312 78.5923 62.3541 78.3823 62.0564H78.381Z" fill="#A6A6A6"/>
<path d="M59.4 50.2333L52.3643 44.3688L52.8757 41.9546L58.7041 47.1859L59.4 50.2333Z" fill="#368FB2"/>
<path d="M120.889 79.7642H119.336C116.077 79.7642 113.202 77.4523 112.501 74.2661L112.462 74.0923C112.003 72.0082 112.506 69.8594 113.841 68.1955C115.176 66.5317 117.166 65.5779 119.297 65.5779H120.834C124.102 65.5779 126.985 67.8965 127.689 71.0921L127.724 71.2497C128.183 73.3339 127.68 75.4827 126.344 77.1452C125.009 78.809 123.02 79.7628 120.889 79.7628V79.7642ZM119.297 66.9265C117.575 66.9265 115.968 67.6971 114.89 69.0402C113.812 70.3834 113.405 72.12 113.775 73.8027L113.814 73.9765C114.381 76.5497 116.703 78.4169 119.336 78.4169H120.889C122.611 78.4169 124.218 77.6463 125.296 76.3031C126.374 74.96 126.781 73.2234 126.41 71.5407L126.375 71.3831C125.807 68.8004 123.476 66.9265 120.834 66.9265H119.297Z" fill="#FFDC5E"/>
<path d="M118.697 75.8784H121.539L118.357 70.247L115.538 70.2268L118.697 75.8784Z" fill="#006956"/>
<path d="M121.539 75.8771H118.698L125.518 63.5891H128.359L121.539 75.8771Z" fill="#4C9D8D"/>
<path d="M107.128 57.7173H94.1554C93.8081 57.7173 93.5039 57.4855 93.411 57.1501C93.2751 56.657 93.6452 56.1707 94.1554 56.1707H107.128C107.476 56.1707 107.78 56.4024 107.873 56.7378C108.009 57.2309 107.639 57.7173 107.128 57.7173Z" fill="#FCBFB7"/>
<path d="M78.9715 70.7559C79.3756 70.6846 79.6225 70.1689 79.5229 69.6041C79.4234 69.0393 79.0152 68.6392 78.6112 68.7105C78.2072 68.7818 77.9603 69.2975 78.0598 69.8623C78.1593 70.4271 78.5675 70.8272 78.9715 70.7559Z" fill="#E0857E"/>
<path d="M94.6544 70.5076H81.6814C81.3341 70.5076 81.0299 70.2758 80.937 69.9404C80.8011 69.4473 81.1712 68.9609 81.6814 68.9609H94.6544C95.0017 68.9609 95.3059 69.1927 95.3988 69.5281C95.5347 70.0212 95.1646 70.5076 94.6544 70.5076Z" fill="#FCBFB7"/>
</g>
<defs>
<clipPath id="clip0_3140_9964">
<rect width="107.023" height="66.4114" fill="white" transform="translate(36.3258 24.5696)"/>
</clipPath>
</defs>
</svg>
