<svg width="21" height="22" viewBox="0 0 21 22" fill="none" xmlns="http://www.w3.org/2000/svg">
<path d="M16.1505 4.97338C14.4515 3.69649 12.5097 3 10.5 3C7.07282 3 3.87864 5.01208 1.65534 8.49451C0.781553 9.85847 0.781553 12.1511 1.65534 13.515C2.42233 14.7145 3.31553 15.7496 4.28641 16.5815" stroke="white" stroke-width="1.5" stroke-linecap="round" stroke-linejoin="round"/>
<path d="M7.02426 18.2842C8.13106 18.7485 9.30582 19 10.5 19C13.9272 19 17.1214 16.9879 19.3447 13.5055C20.2184 12.1415 20.2184 9.84894 19.3447 8.48498C19.0243 7.98197 18.6747 7.50797 18.3155 7.06299" stroke="white" stroke-width="1.5" stroke-linecap="round" stroke-linejoin="round"/>
<path d="M12.9035 8.47004L8.09651 13.53C7.47901 12.88 7.09901 11.99 7.09901 11C7.09901 9.02004 8.61901 7.42004 10.5 7.42004C11.4405 7.42004 12.286 7.82004 12.9035 8.47004Z" stroke="white" stroke-width="1.5" stroke-linecap="round" stroke-linejoin="round"/>
<path d="M13.8345 11.7C13.5875 13.11 12.495 14.26 11.1555 14.52" stroke="white" stroke-width="1.5" stroke-linecap="round" stroke-linejoin="round"/>
<path d="M8.0965 13.53L1 21" stroke="white" stroke-width="1.5" stroke-linecap="round" stroke-linejoin="round"/>
<path d="M20 1L12.9035 8.47" stroke="white" stroke-width="1.5" stroke-linecap="round" stroke-linejoin="round"/>
</svg>
