<svg width="25" height="24" viewBox="0 0 25 24" fill="none" xmlns="http://www.w3.org/2000/svg">
<path d="M6.5 11.4C5.79086 11.4 5.08867 11.2603 4.43351 10.9889C3.77835 10.7175 3.18306 10.3198 2.68162 9.81835C2.18019 9.31691 1.78243 8.72162 1.51105 8.06647C1.23967 7.41131 1.1 6.70911 1.1 5.99998C1.1 5.29084 1.23967 4.58864 1.51105 3.93348C1.78243 3.27833 2.18019 2.68304 2.68162 2.1816C3.18306 1.68016 3.77835 1.2824 4.43351 1.01103C5.08867 0.739651 5.79086 0.599976 6.5 0.599976C7.93217 0.599976 9.30568 1.1689 10.3184 2.1816C11.3311 3.1943 11.9 4.56781 11.9 5.99998C11.9 7.43214 11.3311 8.80565 10.3184 9.81835C9.30568 10.831 7.93217 11.4 6.5 11.4ZM19.1 16.2C17.827 16.2 16.6061 15.6943 15.7059 14.7941C14.8057 13.8939 14.3 12.673 14.3 11.4C14.3 10.1269 14.8057 8.90604 15.7059 8.00586C16.6061 7.10569 17.827 6.59998 19.1 6.59998C20.373 6.59998 21.5939 7.10569 22.4941 8.00586C23.3943 8.90604 23.9 10.1269 23.9 11.4C23.9 12.673 23.3943 13.8939 22.4941 14.7941C21.5939 15.6943 20.373 16.2 19.1 16.2ZM19.1 17.4C20.5322 17.4 21.9057 17.9689 22.9184 18.9816C23.9311 19.9943 24.5 21.3678 24.5 22.8V23.4H13.7V22.8C13.7 21.3678 14.2689 19.9943 15.2816 18.9816C16.2943 17.9689 17.6678 17.4 19.1 17.4ZM6.5 12.6C7.28793 12.6 8.06815 12.7552 8.7961 13.0567C9.52405 13.3582 10.1855 13.8002 10.7426 14.3573C11.2998 14.9145 11.7417 15.5759 12.0433 16.3039C12.3448 17.0318 12.5 17.812 12.5 18.6V23.4H0.5V18.6C0.5 17.0087 1.13214 15.4826 2.25736 14.3573C3.38258 13.2321 4.9087 12.6 6.5 12.6Z" fill="#09121F"/>
</svg>
