<svg width="98" height="97" viewBox="0 0 98 97" fill="none" xmlns="http://www.w3.org/2000/svg">
<circle cx="49" cy="48.5" r="48.5" fill="#C5E9FF"/>
<path d="M69.0224 45.0929L52.0927 42.9142C51.6365 42.8559 51.3116 42.4393 51.3637 41.981L53.8048 21.4188C53.8652 20.9064 53.4986 20.5523 53.0862 20.4898L48.5768 19.9066L48.456 26.7364L32.8531 50.8083C32.5073 51.327 32.826 52.0289 33.4467 52.108L47.1354 53.8702L43.1009 76.4966L47.5707 77.0714V77.0569C47.8915 77.1548 48.2664 77.0735 48.5039 76.734L69.6077 46.4072C69.968 45.8885 69.6514 45.1741 69.0245 45.0929H69.0224ZM47.9769 53.9785L48.9663 54.1055C49.4266 54.1639 49.7515 54.5867 49.6932 55.047L47.6832 70.6686L47.9769 53.9785Z" fill="#DAB326"/>
<path d="M65.1366 45.8322L44.0328 76.159C43.5308 76.8818 42.3957 76.4464 42.5081 75.5716L45.2242 54.4741C45.2825 54.0137 44.9597 53.5909 44.4973 53.5326L39.0797 52.8348L28.9756 51.5351C28.357 51.4539 28.0362 50.7519 28.382 50.2333L47.8008 20.2793C48.2902 19.5441 49.44 19.9648 49.3379 20.8438L49.0796 23.0141L46.8968 41.406C46.8426 41.8664 47.1655 42.2808 47.6258 42.3392L55.8553 43.3994L64.5555 44.5199C65.1804 44.5991 65.499 45.3135 65.1366 45.8322Z" fill="#FFDC5E"/>
</svg>
