<svg width="100%" height="100%" viewBox="0 0 99 38" fill="none" xmlns="http://www.w3.org/2000/svg">
<path d="M19.2698 0.184945L9.38902 3.88181C8.98251 4.03283 8.71369 4.42025 8.71369 4.86019V8.78688C8.71369 9.36472 8.24817 9.83093 7.6712 9.83093H1.0425C0.465517 9.82436 0 10.2971 0 10.8684V29.484C0 30.0619 0.465517 30.5281 1.0425 30.5281H19.6304C20.2074 30.5281 20.6729 30.0619 20.6729 29.484V1.16333C20.6729 0.434467 19.9451 -0.0711431 19.2698 0.184945ZM8.71369 26.759C8.71369 27.0479 8.48421 27.2777 8.19572 27.2777H3.76348C3.47499 27.2777 3.23895 27.0414 3.23895 26.759V22.3201C3.23895 22.0312 3.47499 21.8014 3.76348 21.8014H8.19572C8.48421 21.8014 8.71369 22.0378 8.71369 22.3201V26.759ZM8.71369 18.0323C8.71369 18.3212 8.48421 18.5511 8.19572 18.5511H3.76348C3.47499 18.5511 3.23895 18.3147 3.23895 18.0323V13.5935C3.23895 13.3045 3.47499 13.0747 3.76348 13.0747H8.19572C8.48421 13.0747 8.71369 13.3111 8.71369 13.5935V18.0323ZM17.4274 26.759C17.4274 27.0479 17.1979 27.2777 16.9094 27.2777H12.4837C12.1952 27.2777 11.9592 27.0414 11.9592 26.759V22.3201C11.9592 22.0312 12.1952 21.8014 12.4837 21.8014H16.9094C17.1979 21.8014 17.4274 22.0378 17.4274 22.3201V26.759ZM17.4274 18.0323C17.4274 18.3212 17.1979 18.5511 16.9094 18.5511H12.4837C12.1952 18.5511 11.9592 18.3147 11.9592 18.0323V13.5935C11.9592 13.3045 12.1952 13.0747 12.4837 13.0747H16.9094C17.1979 13.0747 17.4274 13.3111 17.4274 13.5935V18.0323ZM17.4274 9.30562C17.4274 9.59454 17.1979 9.83093 16.9094 9.83093H12.4837C12.1952 9.83093 11.9592 9.59454 11.9592 9.30562V6.75787C11.9592 6.54118 12.0969 6.34419 12.3001 6.27196L16.7258 4.61067C17.0668 4.48591 17.4274 4.73543 17.4274 5.10315V9.30562Z" fill="#006956"/>
<path d="M67.2837 29.333C66.1428 29.0507 65.4872 28.6501 65.4872 27.4091V13.9809C65.4872 13.7839 65.4085 13.6066 65.2774 13.4819C65.1528 13.3571 64.9692 13.2717 64.7791 13.2717C64.7201 13.2717 64.6545 13.2783 64.5955 13.298L60.019 14.5193C59.8879 14.5522 59.7764 14.631 59.6977 14.7295C59.619 14.8345 59.5731 14.9593 59.5731 15.0972C59.5731 15.373 59.7567 15.6094 60.0255 15.675C60.6746 15.8326 61.8024 16.3054 61.8024 17.7303V27.4748C61.8024 28.6501 60.9238 29.4906 59.8485 29.4906C58.7732 29.4906 57.9143 28.6501 57.9143 27.5339L57.8947 19.7265C57.8947 15.7998 55.5999 13.2783 51.4561 13.2783C47.5025 13.2783 44.4209 15.6028 44.4209 18.4001C44.4209 19.0961 44.6176 19.733 45.0175 20.4291L45.0831 20.5276C45.1618 20.6523 45.3323 20.6917 45.4503 20.6129C46.4272 19.9957 47.5222 19.5689 48.0205 19.3916C48.1647 19.339 48.2368 19.1683 48.1713 19.0304C47.9221 18.4789 47.7975 17.9864 47.7975 17.4676C47.7975 15.9048 48.8269 14.7098 50.6234 14.7098C53.6067 14.7098 54.1246 17.7303 54.2033 19.1289C54.223 19.5295 53.9542 19.8841 53.5673 19.9628L52.1511 20.2583C47.5025 21.3221 44.2832 22.6222 44.2832 26.0433C44.2832 28.6042 46.1453 30.5281 48.9318 30.5281C51.0299 30.5281 52.7477 29.6614 53.8689 27.7046C53.9607 27.5404 54.2099 27.6061 54.2099 27.7899V29.7336C54.2099 29.9503 54.3017 30.1538 54.4459 30.2983C54.5901 30.4428 54.7868 30.5347 55.0098 30.5347H67.146C67.4804 30.5347 67.7558 30.2589 67.7558 29.924C67.7426 29.6417 67.5525 29.3987 67.2837 29.333ZM54.2033 24.6447C54.2033 25.9973 53.4952 27.2778 52.2953 27.9016C51.7774 28.1708 51.2135 28.3087 50.6169 28.3087C49.0892 28.3087 48.1254 27.1464 48.1254 25.5837C48.1254 23.5218 49.2859 22.3924 52.5052 21.5585L53.8361 21.2433C54.0197 21.1973 54.1967 21.3418 54.1967 21.5322V24.6447H54.2033Z" fill="#006956"/>
<path d="M97.7257 13.7445H93.3066C93.1426 13.7445 92.9918 13.8102 92.8804 13.9218C92.7689 14.0334 92.7034 14.1845 92.7034 14.3486C92.7034 14.6441 92.9197 14.9002 93.2148 14.9462C94.9457 15.2154 95.1817 15.6356 94.7621 16.6403L91.1101 25.1109C91.0511 25.2553 90.8478 25.2553 90.7823 25.1109L86.9926 16.6665C86.6844 15.9311 86.5467 15.3073 88.3891 14.9527C88.6776 14.9002 88.8809 14.6507 88.8809 14.3617V14.3486C88.8809 14.0137 88.6121 13.7445 88.2777 13.7445H81.3343C81.1638 13.7445 81.0064 13.8167 80.895 13.9284C80.7704 14.0531 80.6917 14.237 80.7179 14.4405C80.7442 14.6835 80.9277 14.8871 81.1638 14.9658C82.1342 15.2876 82.4817 15.8326 83.0062 16.9686L87.8712 27.4419C88.2514 28.2627 88.435 29.1492 88.4285 30.0422C88.4285 30.2326 88.4154 30.4362 88.3891 30.6397C88.258 31.7429 87.7925 32.9839 87.2352 33.9623C86.75 34.8094 86.1861 35.4529 85.714 35.6302C85.6288 35.663 85.5436 35.6827 85.4649 35.6827C85.1371 35.6827 84.901 35.4989 84.6716 35.2428C84.1798 34.6715 83.7602 33.7325 82.7111 33.5355C82.4226 33.483 82.1276 33.5027 81.8457 33.5815C81.3015 33.7325 80.4753 34.1593 80.4753 35.3675C80.4753 37.1667 82.1473 37.8824 83.6618 37.8824C84.5404 37.8824 85.301 37.6395 86.0091 37.1273C86.514 36.7662 86.9926 36.2606 87.4712 35.617C87.8646 35.0917 88.3104 34.2906 88.7235 33.4633L88.7366 33.4436L96.1521 16.8438C96.5914 15.872 96.9258 15.3467 97.9158 15.0052C98.1715 14.9199 98.342 14.6835 98.342 14.4143V14.3683C98.3486 14.0203 98.0732 13.7445 97.7257 13.7445Z" fill="#006956"/>
<path d="M43.7259 29.4315H43.6079C42.349 29.4315 41.9163 28.834 41.9163 27.3697V6.5412C41.9163 6.15378 41.6016 5.83203 41.2082 5.83203C41.1492 5.83203 41.0836 5.8386 41.0311 5.8583L36.376 7.09277C36.1399 7.15844 35.976 7.36856 35.976 7.61808V7.69688C35.976 7.9661 36.1727 8.19592 36.4415 8.23532C37.8381 8.36665 38.2315 8.99702 38.2315 10.2643V12.9959C38.2315 13.4096 37.7922 13.6657 37.4316 13.4687C36.7169 13.0747 35.8318 12.8252 34.6778 12.8252C30.1276 12.8252 26.3772 16.3513 26.3772 22.2348C26.3772 26.9888 28.9015 30.5478 33.5829 30.5478C35.1237 30.5478 36.7497 29.7204 37.9037 28.092C38.002 27.9475 38.2249 28.0263 38.2249 28.1971V29.7533C38.2249 30.1932 38.579 30.5544 39.0248 30.5544H43.7193C44.0209 30.5544 44.2701 30.3114 44.2701 30.0028C44.2701 29.6942 44.0275 29.4315 43.7259 29.4315ZM38.2315 24.7891C38.2315 26.608 36.8349 28.1708 35.0188 28.2693C34.9466 28.2758 34.8811 28.2758 34.809 28.2758C31.8192 28.2758 30.1931 25.1831 30.1931 20.9938C30.1931 16.9357 31.9831 14.342 34.3434 14.342C37.0316 14.342 38.0938 16.568 38.2249 19.1946V24.7891H38.2315Z" fill="#006956"/>
<path d="M63.6907 11.0522C65.0873 11.0522 66.1167 10.0541 66.1167 8.65551C66.1167 7.28971 65.0873 6.25879 63.6907 6.25879C62.2286 6.25879 61.1992 7.28971 61.1992 8.65551C61.2058 10.0541 62.2286 11.0522 63.6907 11.0522Z" fill="#006956"/>
<path d="M77.0136 20.7245L73.6632 19.5622C72.2995 19.0304 71.139 18.4 71.139 17.0013C71.139 15.5699 72.2667 14.644 74.096 14.644C75.8203 14.644 77.2169 15.7997 77.984 17.612C78.0496 17.7762 78.2528 17.8287 78.3971 17.7236L80.5935 16.0427C80.7116 15.9507 80.7378 15.78 80.646 15.6618C79.774 14.5455 77.7283 13.2848 74.3976 13.2848C70.6472 13.2848 68.2213 15.2153 68.2213 18.3081C68.2213 21.0003 70.1817 22.1953 72.5027 23.0293L75.8204 24.1915C77.112 24.6577 78.043 25.5245 78.0758 26.9166C78.0758 28.545 76.6137 29.6416 74.8565 29.6416C73.0207 29.6416 71.3357 28.1904 70.4046 25.9579C70.3325 25.7937 70.1227 25.7412 69.985 25.8528L67.6771 27.7505C67.5656 27.8424 67.5459 28.0131 67.6377 28.1313C68.995 29.8977 71.7422 31.0074 74.5156 31.0074C78.5348 31.0074 80.9869 28.5778 80.9869 25.623C80.9935 22.9833 79.3019 21.5256 77.0136 20.7245Z" fill="#006956"/>
</svg>